<svg width="65" height="51" viewBox="0 0 65 51" fill="none" xmlns="http://www.w3.org/2000/svg">
<path d="M0 33.4688C0 41.3877 6.55078 47.8125 14.625 47.8125H52C59.1805 47.8125 65 42.1049 65 35.0625C65 28.8967 60.5312 23.7469 54.6 22.5715C55.0164 21.5057 55.25 20.3402 55.25 19.125C55.25 13.8457 50.8828 9.5625 45.5 9.5625C43.4992 9.5625 41.6305 10.1602 40.0867 11.1762C37.2734 6.39492 32.0227 3.1875 26 3.1875C17.0219 3.1875 9.75 10.3195 9.75 19.125C9.75 19.3939 9.76016 19.6629 9.77031 19.9318C4.08281 21.8941 0 27.2133 0 33.4688Z" fill="#69A4FF"/>
</svg>
