<svg width="121" height="80" viewBox="0 0 121 80" fill="none" xmlns="http://www.w3.org/2000/svg">
<g clip-path="url(#clip0_160_61)">
<path d="M101.36 25.1502C100.904 18.316 97.867 11.9107 92.865 7.23155C87.863 2.55241 81.2695 -0.0507812 74.4201 -0.0507812C67.5707 -0.0507813 60.9773 2.55241 55.9752 7.23155C50.9732 11.9107 47.9365 18.316 47.4801 25.1502C42.2167 25.3833 37.2547 27.6716 33.6602 31.5236C30.0657 35.3755 28.1255 40.4837 28.2565 45.7506C28.3874 51.0176 30.5791 56.023 34.3606 59.6915C38.142 63.3601 43.2116 65.399 48.4801 65.3702H100.34C105.609 65.399 110.678 63.3601 114.46 59.6915C118.241 56.023 120.433 51.0176 120.564 45.7506C120.695 40.4837 118.755 35.3755 115.16 31.5236C111.566 27.6716 106.604 25.3833 101.34 25.1502H101.36Z" fill="url(#paint0_radial_160_61)"/>
<path style="mix-blend-mode:overlay" opacity="0.6" d="M76.3099 27.6501C68.7299 21.5001 65.7799 12.1501 69.6999 6.75011C73.6199 1.35011 82.9999 2.00011 90.5399 8.09011C98.0799 14.1801 101.07 23.6001 97.1399 29.0001C93.2099 34.4001 83.8799 33.7901 76.3099 27.6501Z" fill="url(#paint1_radial_160_61)"/>
<path style="mix-blend-mode:overlay" opacity="0.4" d="M101.5 45.8101C95.5 40.9801 93.22 33.63 96.31 29.39C99.4 25.15 106.73 25.62 112.68 30.45C118.63 35.28 120.96 42.63 117.87 46.87C114.78 51.11 107.45 50.6401 101.5 45.8101Z" fill="url(#paint2_radial_160_61)"/>
<path style="mix-blend-mode:overlay" opacity="0.2" d="M42.75 46.4902C38.36 39.6402 33.25 36.3402 31.34 39.1202C29.43 41.9002 31.45 49.7102 35.84 56.5602C40.23 63.4102 45.34 66.7102 47.25 63.9302C49.16 61.1502 47.14 53.3502 42.75 46.4902Z" fill="url(#paint3_radial_160_61)"/>
<path d="M73 39.0002C72.5622 32.1515 69.5329 25.7265 64.5279 21.0312C59.5228 16.3359 52.9177 13.7227 46.055 13.7227C39.1923 13.7227 32.5872 16.3359 27.5821 21.0312C22.5771 25.7265 19.5478 32.1515 19.11 39.0002C13.8466 39.2333 8.8846 41.5216 5.2901 45.3735C1.69559 49.2254 -0.244603 54.3336 -0.11365 59.6006C0.0173033 64.8675 2.20896 69.8729 5.99044 73.5415C9.77193 77.21 14.8415 79.2489 20.11 79.2202H72C77.2685 79.2489 82.3381 77.21 86.1196 73.5415C89.901 69.8729 92.0927 64.8675 92.2236 59.6006C92.3546 54.3336 90.4144 49.2254 86.8199 45.3735C83.2254 41.5216 78.2634 39.2333 73 39.0002Z" fill="url(#paint4_radial_160_61)"/>
<path style="mix-blend-mode:overlay" d="M46.0599 41.4904C38.4799 35.3504 35.5199 25.9904 39.4499 20.5904C43.3799 15.1904 52.7099 15.7904 60.2899 21.9404C67.8699 28.0904 70.8099 37.4404 66.8899 42.8404C62.9699 48.2404 53.6299 47.6304 46.0599 41.4904Z" fill="url(#paint5_radial_160_61)"/>
<path style="mix-blend-mode:overlay" opacity="0.4" d="M73.1399 59.6604C67.1399 54.8304 64.8599 47.4704 67.9499 43.2304C71.0399 38.9904 78.3599 39.4604 84.3199 44.2904C90.2799 49.1204 92.5899 56.4704 89.5099 60.7104C86.4299 64.9504 79.0899 64.4804 73.1399 59.6604Z" fill="url(#paint6_radial_160_61)"/>
<path style="mix-blend-mode:overlay" opacity="0.2" d="M14.39 60.3302C9.99997 53.4802 4.88997 50.1802 2.99997 53.0002C1.10997 55.8202 3.10997 63.5902 7.49997 70.4402C11.89 77.2902 17 80.5602 18.89 77.7802C20.78 75.0002 18.78 67.1902 14.39 60.3302Z" fill="url(#paint7_radial_160_61)"/>
</g>
<defs>
<radialGradient id="paint0_radial_160_61" cx="0" cy="0" r="1" gradientUnits="userSpaceOnUse" gradientTransform="translate(86.0301 13.7808) rotate(180) scale(70.26 51.2898)">
<stop stop-color="#B6CCD2"/>
<stop offset="0.2" stop-color="#97B6BE"/>
<stop offset="1" stop-color="#5D87B4"/>
</radialGradient>
<radialGradient id="paint1_radial_160_61" cx="0" cy="0" r="1" gradientUnits="userSpaceOnUse" gradientTransform="translate(84.9399 9.93121) rotate(126.146) scale(12.0765 17.6458)">
<stop stop-color="white"/>
<stop offset="0.1" stop-color="white" stop-opacity="0.85"/>
<stop offset="0.29" stop-color="white" stop-opacity="0.59"/>
<stop offset="0.47" stop-color="white" stop-opacity="0.38"/>
<stop offset="0.63" stop-color="white" stop-opacity="0.22"/>
<stop offset="0.78" stop-color="white" stop-opacity="0.1"/>
<stop offset="0.91" stop-color="white" stop-opacity="0.03"/>
<stop offset="1" stop-color="white" stop-opacity="0"/>
</radialGradient>
<radialGradient id="paint2_radial_160_61" cx="0" cy="0" r="1" gradientUnits="userSpaceOnUse" gradientTransform="translate(108.623 30.1433) rotate(126.146) scale(9.4846 13.8586)">
<stop stop-color="white"/>
<stop offset="0.1" stop-color="white" stop-opacity="0.85"/>
<stop offset="0.29" stop-color="white" stop-opacity="0.59"/>
<stop offset="0.47" stop-color="white" stop-opacity="0.38"/>
<stop offset="0.63" stop-color="white" stop-opacity="0.22"/>
<stop offset="0.78" stop-color="white" stop-opacity="0.1"/>
<stop offset="0.91" stop-color="white" stop-opacity="0.03"/>
<stop offset="1" stop-color="white" stop-opacity="0"/>
</radialGradient>
<radialGradient id="paint3_radial_160_61" cx="0" cy="0" r="1" gradientUnits="userSpaceOnUse" gradientTransform="translate(39.1178 51.5298) rotate(-25.5374) scale(4.85757 14.1582)">
<stop stop-color="white"/>
<stop offset="0.1" stop-color="white" stop-opacity="0.85"/>
<stop offset="0.29" stop-color="white" stop-opacity="0.59"/>
<stop offset="0.47" stop-color="white" stop-opacity="0.38"/>
<stop offset="0.63" stop-color="white" stop-opacity="0.22"/>
<stop offset="0.78" stop-color="white" stop-opacity="0.1"/>
<stop offset="0.91" stop-color="white" stop-opacity="0.03"/>
<stop offset="1" stop-color="white" stop-opacity="0"/>
</radialGradient>
<radialGradient id="paint4_radial_160_61" cx="0" cy="0" r="1" gradientUnits="userSpaceOnUse" gradientTransform="translate(57.67 27.6276) rotate(180) scale(70.26 51.2898)">
<stop stop-color="white"/>
<stop offset="0.2" stop-color="#D5F3FF"/>
<stop offset="1" stop-color="#85BCF1"/>
</radialGradient>
<radialGradient id="paint5_radial_160_61" cx="0" cy="0" r="1" gradientUnits="userSpaceOnUse" gradientTransform="translate(54.6663 23.7191) rotate(126.146) scale(12.0765 17.6458)">
<stop stop-color="white"/>
<stop offset="0.1" stop-color="white" stop-opacity="0.85"/>
<stop offset="0.29" stop-color="white" stop-opacity="0.59"/>
<stop offset="0.47" stop-color="white" stop-opacity="0.38"/>
<stop offset="0.63" stop-color="white" stop-opacity="0.22"/>
<stop offset="0.78" stop-color="white" stop-opacity="0.1"/>
<stop offset="0.91" stop-color="white" stop-opacity="0.03"/>
<stop offset="1" stop-color="white" stop-opacity="0"/>
</radialGradient>
<radialGradient id="paint6_radial_160_61" cx="0" cy="0" r="1" gradientUnits="userSpaceOnUse" gradientTransform="translate(80.2455 43.9462) rotate(126.146) scale(9.4846 13.8586)">
<stop stop-color="white"/>
<stop offset="0.1" stop-color="white" stop-opacity="0.85"/>
<stop offset="0.29" stop-color="white" stop-opacity="0.59"/>
<stop offset="0.47" stop-color="white" stop-opacity="0.38"/>
<stop offset="0.63" stop-color="white" stop-opacity="0.22"/>
<stop offset="0.78" stop-color="white" stop-opacity="0.1"/>
<stop offset="0.91" stop-color="white" stop-opacity="0.03"/>
<stop offset="1" stop-color="white" stop-opacity="0"/>
</radialGradient>
<radialGradient id="paint7_radial_160_61" cx="0" cy="0" r="1" gradientUnits="userSpaceOnUse" gradientTransform="translate(10.7522 65.2254) rotate(-25.5374) scale(4.85757 14.1582)">
<stop stop-color="white"/>
<stop offset="0.1" stop-color="white" stop-opacity="0.85"/>
<stop offset="0.29" stop-color="white" stop-opacity="0.59"/>
<stop offset="0.47" stop-color="white" stop-opacity="0.38"/>
<stop offset="0.63" stop-color="white" stop-opacity="0.22"/>
<stop offset="0.78" stop-color="white" stop-opacity="0.1"/>
<stop offset="0.91" stop-color="white" stop-opacity="0.03"/>
<stop offset="1" stop-color="white" stop-opacity="0"/>
</radialGradient>
<clipPath id="clip0_160_61">
<rect width="120.47" height="79.21" fill="white"/>
</clipPath>
</defs>
</svg>
