<svg width="65" height="74" viewBox="0 0 65 74" fill="none" xmlns="http://www.w3.org/2000/svg">
<g clip-path="url(#clip0_160_198)">
<path d="M62.83 50.3901L56.11 46.5101L58.18 45.3101C58.574 45.0843 58.9196 44.783 59.1972 44.4235C59.4747 44.0641 59.6787 43.6535 59.7976 43.2152C59.9164 42.7769 59.9478 42.3195 59.8899 41.8691C59.832 41.4187 59.6859 40.9841 59.46 40.5901C59.2342 40.1962 58.9329 39.8505 58.5735 39.573C58.214 39.2955 57.8034 39.0914 57.3651 38.9726C56.9268 38.8537 56.4694 38.8224 56.019 38.8803C55.5686 38.9382 55.134 39.0843 54.74 39.3101L49.21 42.5001L44.1 39.5001C44.5666 37.6288 44.5666 35.6715 44.1 33.8001L49.21 30.8601L54.74 34.0501C55.134 34.276 55.5686 34.4221 56.019 34.48C56.4694 34.5379 56.9268 34.5065 57.3651 34.3877C57.8034 34.2688 58.214 34.0648 58.5735 33.7873C58.9329 33.5097 59.2342 33.1641 59.46 32.7701C59.6859 32.3762 59.832 31.9416 59.8899 31.4911C59.9478 31.0407 59.9164 30.5833 59.7976 30.145C59.6787 29.7067 59.4747 29.2961 59.1972 28.9367C58.9196 28.5773 58.574 28.276 58.18 28.0501L56.1 27.0001L62.83 23.1201C63.6257 22.6626 64.207 21.9078 64.4461 21.0217C64.6852 20.1356 64.5625 19.1908 64.105 18.3951C63.6475 17.5995 62.8927 17.0182 62.0066 16.779C61.1205 16.5399 60.1757 16.6626 59.38 17.1201L52.66 21.0001V18.6001C52.6574 17.6859 52.2931 16.81 51.6466 16.1635C51.0002 15.5171 50.1242 15.1528 49.21 15.1501C48.2958 15.1528 47.4199 15.5171 46.7734 16.1635C46.127 16.81 45.7627 17.6859 45.76 18.6001V25.0001L40.65 27.9501C39.2575 26.6205 37.5672 25.6433 35.72 25.1001V19.1701L41.25 16.0001C42.0457 15.5426 42.627 14.7878 42.8661 13.9017C43.1052 13.0156 42.9825 12.0708 42.525 11.2751C42.0675 10.4795 41.3127 9.89816 40.4266 9.65905C39.5405 9.41994 38.5957 9.54263 37.8 10.0001L35.72 11.2101V3.45013C35.7453 2.98211 35.6749 2.51386 35.5131 2.07395C35.3514 1.63405 35.1017 1.23171 34.7793 0.891488C34.457 0.551269 34.0686 0.280304 33.6381 0.0951292C33.2075 -0.0900456 32.7437 -0.185547 32.275 -0.185547C31.8063 -0.185547 31.3426 -0.0900456 30.912 0.0951292C30.4814 0.280304 30.0931 0.551269 29.7707 0.891488C29.4484 1.23171 29.1987 1.63405 29.0369 2.07395C28.8752 2.51386 28.8048 2.98211 28.83 3.45013V11.2101L26.75 10.0001C26.3561 9.7736 25.9213 9.62688 25.4707 9.56836C25.02 9.50984 24.5622 9.54065 24.1235 9.65905C23.6847 9.77744 23.2736 9.9811 22.9135 10.2584C22.5535 10.5357 22.2516 10.8812 22.025 11.2751C21.7985 11.6691 21.6518 12.1038 21.5933 12.5545C21.5347 13.0052 21.5656 13.4629 21.684 13.9017C21.8023 14.3404 22.006 14.7516 22.2833 15.1116C22.5606 15.4717 22.9061 15.7736 23.3 16.0001L28.83 19.1901V25.0801C26.984 25.6258 25.2942 26.6027 23.9 27.9301L18.79 25.0001V18.5801C18.79 17.6651 18.4266 16.7876 17.7796 16.1406C17.1325 15.4936 16.255 15.1301 15.34 15.1301C14.425 15.1301 13.5475 15.4936 12.9005 16.1406C12.2535 16.7876 11.89 17.6651 11.89 18.5801V21.0001L5.17003 17.1001C4.37438 16.644 3.43011 16.5225 2.54494 16.7626C1.65976 17.0026 0.906204 17.5845 0.450032 18.3801C-0.00614044 19.1758 -0.127559 20.1201 0.112488 21.0052C0.352534 21.8904 0.934382 22.644 1.73003 23.1001L8.44003 27.0001L6.36003 28.1501C5.96607 28.3767 5.62058 28.6786 5.34329 29.0386C5.066 29.3987 4.86235 29.8098 4.74395 30.2486C4.50484 31.1347 4.62753 32.0795 5.08503 32.8751C5.54253 33.6708 6.29736 34.2521 7.18347 34.4912C8.06958 34.7303 9.01438 34.6076 9.81003 34.1501L15.34 30.9601L20.45 33.9001C19.9834 35.7715 19.9834 37.7288 20.45 39.6001L15.34 42.6001L9.81003 39.4001C9.01438 38.9426 8.06958 38.8199 7.18347 39.059C6.29736 39.2982 5.54253 39.8795 5.08503 40.6751C4.62753 41.4708 4.50484 42.4156 4.74395 43.3017C4.98306 44.1878 5.56438 44.9426 6.36003 45.4001L8.45003 46.6001L1.73003 50.3901C1.06877 50.7663 0.550851 51.3511 0.257323 52.0529C-0.0362042 52.7548 -0.0887852 53.5342 0.107807 54.2691C0.3044 55.004 0.739074 55.6531 1.34382 56.1147C1.94857 56.5763 2.68927 56.8243 3.45003 56.8201C4.05443 56.8252 4.64888 56.6663 5.17003 56.3601L11.89 52.4801V54.8801C11.89 55.7951 12.2535 56.6726 12.9005 57.3196C13.5475 57.9666 14.425 58.3301 15.34 58.3301C16.255 58.3301 17.1325 57.9666 17.7796 57.3196C18.4266 56.6726 18.79 55.7951 18.79 54.8801V48.5001L23.9 45.5001C25.292 46.8253 26.978 47.8019 28.82 48.3501V54.2501L23.3 57.4901C22.9061 57.7167 22.5606 58.0186 22.2833 58.3786C22.006 58.7387 21.8023 59.1498 21.684 59.5886C21.5656 60.0273 21.5347 60.4851 21.5933 60.9358C21.6518 61.3864 21.7985 61.8212 22.025 62.2151C22.2516 62.6091 22.5535 62.9546 22.9135 63.2319C23.2736 63.5092 23.6847 63.7128 24.1235 63.8312C24.5622 63.9496 25.02 63.9804 25.4707 63.9219C25.9213 63.8634 26.3561 63.7167 26.75 63.4901L28.83 62.2901V70.0001C28.8048 70.4681 28.8752 70.9364 29.0369 71.3763C29.1987 71.8162 29.4484 72.2186 29.7707 72.5588C30.0931 72.899 30.4814 73.17 30.912 73.3551C31.3426 73.5403 31.8063 73.6358 32.275 73.6358C32.7437 73.6358 33.2075 73.5403 33.6381 73.3551C34.0686 73.17 34.457 72.899 34.7793 72.5588C35.1017 72.2186 35.3514 71.8162 35.5131 71.3763C35.6749 70.9364 35.7453 70.4681 35.72 70.0001V62.2601L37.8 63.4601C38.3221 63.764 38.916 63.9228 39.52 63.9201C40.2774 63.9183 41.0132 63.6672 41.6138 63.2057C42.2144 62.7442 42.6464 62.0979 42.8432 61.3665C43.0399 60.6351 42.9906 59.8592 42.7026 59.1587C42.4147 58.4581 41.9043 57.8718 41.25 57.4901L35.72 54.3001V48.4001C37.5661 47.8544 39.2559 46.8776 40.65 45.5501L45.76 48.5501V54.9301C45.76 55.8451 46.1235 56.7226 46.7705 57.3696C47.4175 58.0166 48.295 58.3801 49.21 58.3801C50.125 58.3801 51.0025 58.0166 51.6495 57.3696C52.2965 56.7226 52.66 55.8451 52.66 54.9301V52.5301L59.38 56.4101C59.9012 56.7163 60.4956 56.8752 61.1 56.8701C61.8574 56.8683 62.5932 56.6172 63.1938 56.1557C63.7944 55.6942 64.2264 55.0479 64.4232 54.3165C64.6199 53.5851 64.5706 52.8092 64.2826 52.1087C63.9947 51.4081 63.4843 50.8218 62.83 50.4401V50.3901ZM32.28 42.0001C31.2357 42.0001 30.2149 41.6905 29.3466 41.1103C28.4783 40.5301 27.8016 39.7055 27.4019 38.7407C27.0023 37.7759 26.8978 36.7143 27.1015 35.69C27.3052 34.6658 27.8081 33.725 28.5465 32.9866C29.2849 32.2482 30.2257 31.7453 31.25 31.5416C32.2742 31.3379 33.3358 31.4424 34.3006 31.842C35.2654 32.2417 36.09 32.9184 36.6702 33.7867C37.2504 34.655 37.56 35.6758 37.56 36.7201C37.56 38.1205 37.0037 39.4635 36.0136 40.4537C35.0234 41.4438 33.6804 42.0001 32.28 42.0001Z" fill="url(#paint0_radial_160_198)"/>
</g>
<defs>
<radialGradient id="paint0_radial_160_198" cx="0" cy="0" r="1" gradientUnits="userSpaceOnUse" gradientTransform="translate(53.35 22.0801) scale(62.65 62.65)">
<stop stop-color="#28CBE9"/>
<stop offset="1" stop-color="#0A4FBB"/>
</radialGradient>
<clipPath id="clip0_160_198">
<rect width="64.55" height="73.47" fill="white"/>
</clipPath>
</defs>
</svg>
