<svg width="76" height="131" viewBox="0 0 76 131" fill="none" xmlns="http://www.w3.org/2000/svg">
<g clip-path="url(#clip0_120_11)">
<path d="M71.9168 99.7272L56.8786 90.9184L61.5109 88.1941C62.3925 87.6813 63.166 86.9974 63.787 86.1813C64.4081 85.3653 64.8647 84.4331 65.1307 83.4381C65.3967 82.443 65.4669 81.4046 65.3372 80.382C65.2076 79.3594 64.8808 78.3728 64.3753 77.4783C63.8698 76.5839 63.1957 75.7993 62.3913 75.1692C61.5869 74.5391 60.6681 74.0759 59.6873 73.806C58.7065 73.5362 57.6829 73.465 56.6749 73.5965C55.667 73.728 54.6944 74.0596 53.8128 74.5724L41.4376 81.8146L30.0023 75.0037C31.0465 70.7552 31.0465 66.3116 30.0023 62.0631L41.4376 55.3884L53.8128 62.6306C54.6944 63.1434 55.667 63.4751 56.6749 63.6065C57.6829 63.738 58.7065 63.6668 59.6873 63.397C60.6681 63.1271 61.5869 62.6639 62.3913 62.0338C63.1957 61.4037 63.8698 60.6191 64.3753 59.7247C64.8808 58.8303 65.2076 57.8436 65.3372 56.821C65.4669 55.7985 65.3967 54.76 65.1307 53.765C64.8647 52.7699 64.4081 51.8377 63.787 51.0217C63.166 50.2057 62.3925 49.5217 61.5109 49.0089L56.8562 46.6251L71.9168 37.8164C73.6973 36.7777 74.9982 35.064 75.5333 33.0523C76.0684 31.0406 75.7938 28.8956 74.77 27.0893C73.7462 25.2829 72.057 23.9632 70.0741 23.4203C68.0911 22.8775 65.9768 23.156 64.1963 24.1947L49.1581 33.0034V27.5547C49.1522 25.4792 48.3369 23.4905 46.8903 22.0229C45.4437 20.5553 43.4834 19.7282 41.4376 19.7222C39.3918 19.7282 37.4315 20.5553 35.9849 22.0229C34.5383 23.4905 33.723 25.4792 33.7171 27.5547V42.0845L22.2818 48.7819C19.1656 45.7633 15.3829 43.5448 11.2493 42.3116V28.8487L23.6245 21.6519C25.405 20.6133 26.7059 18.8996 27.241 16.8879C27.7761 14.8761 27.5015 12.7312 26.4777 10.9248C25.4539 9.11845 23.7648 7.79869 21.7818 7.25584C19.7988 6.713 17.6845 6.99154 15.904 8.03019L11.2493 10.7772V-6.84021C11.3058 -7.90274 11.1482 -8.9658 10.7863 -9.96452C10.4244 -10.9632 9.86565 -11.8767 9.14423 -12.6491C8.42281 -13.4215 7.55382 -14.0366 6.59029 -14.457C5.62675 -14.8774 4.5889 -15.0942 3.54004 -15.0942C2.49118 -15.0942 1.45332 -14.8774 0.489784 -14.457C-0.47374 -14.0366 -1.34273 -13.4215 -2.06416 -12.6491C-2.78558 -11.8767 -3.3443 -10.9632 -3.70623 -9.96452C-4.06817 -8.9658 -4.22572 -7.90274 -4.16927 -6.84021V10.7772L-8.82394 8.03019C-9.70557 7.5159 -10.6784 7.18282 -11.6869 7.04995C-12.6954 6.91709 -13.7199 6.98705 -14.7017 7.25584C-15.6836 7.52463 -16.6037 7.98699 -17.4094 8.61651C-18.2151 9.24603 -18.8907 10.0304 -19.3977 10.9248C-19.9046 11.8192 -20.2329 12.8062 -20.3639 13.8293C-20.4949 14.8525 -20.4259 15.8918 -20.1609 16.8879C-19.896 17.884 -19.4403 18.8174 -18.8197 19.6348C-18.1992 20.4522 -17.4261 21.1376 -16.5444 21.6519L-4.16927 28.8942V42.2662C-8.30041 43.505 -12.0819 45.7228 -15.2017 48.7365L-26.637 42.0845V27.5093C-26.637 25.432 -27.4504 23.4397 -28.8983 21.9709C-30.3462 20.502 -32.3099 19.6768 -34.3575 19.6768C-36.4051 19.6768 -38.3689 20.502 -39.8167 21.9709C-41.2646 23.4397 -42.078 25.432 -42.078 27.5093V33.0034L-57.1162 24.1492C-58.8967 23.1136 -61.0099 22.838 -62.9907 23.3829C-64.9716 23.9279 -66.6579 25.2489 -67.6787 27.0552C-68.6996 28.8616 -68.9713 31.0053 -68.4341 33.0149C-67.8969 35.0245 -66.5949 36.7353 -64.8143 37.771L-49.7985 46.6251L-54.4532 49.2359C-55.3348 49.7502 -56.108 50.4357 -56.7285 51.2531C-57.349 52.0705 -57.8048 53.0039 -58.0697 54C-58.6048 56.0117 -58.3302 58.1567 -57.3064 59.9631C-56.2826 61.7694 -54.5934 63.0892 -52.6105 63.632C-50.6275 64.1749 -48.5132 63.8963 -46.7327 62.8577L-34.3575 55.6155L-22.9222 62.2901C-23.9664 66.5386 -23.9664 70.9822 -22.9222 75.2308L-34.3575 82.0416L-46.7327 74.7767C-48.5132 73.738 -50.6275 73.4595 -52.6105 74.0023C-54.5934 74.5452 -56.2826 75.865 -57.3064 77.6713C-58.3302 79.4777 -58.6048 81.6226 -58.0697 83.6344C-57.5346 85.6461 -56.2337 87.3598 -54.4532 88.3984L-49.7761 91.1228L-64.8143 99.7272C-66.2941 100.581 -67.4531 101.909 -68.11 103.502C-68.7669 105.096 -68.8845 106.865 -68.4446 108.534C-68.0046 110.202 -67.0319 111.676 -65.6786 112.724C-64.3253 113.771 -62.6677 114.335 -60.9653 114.325C-59.6127 114.337 -58.2825 113.976 -57.1162 113.281L-42.078 104.472V109.921C-42.078 111.998 -41.2646 113.99 -39.8167 115.459C-38.3689 116.928 -36.4051 117.753 -34.3575 117.753C-32.3099 117.753 -30.3462 116.928 -28.8983 115.459C-27.4504 113.99 -26.637 111.998 -26.637 109.921V95.4363L-15.2017 88.6255C-12.0868 91.6339 -8.31379 93.8512 -4.19165 95.0958V108.49L-16.5444 115.846C-17.4261 116.361 -18.1992 117.046 -18.8197 117.863C-19.4403 118.681 -19.896 119.614 -20.1609 120.61C-20.4259 121.606 -20.4949 122.646 -20.3639 123.669C-20.2329 124.692 -19.9046 125.679 -19.3977 126.573C-18.8907 127.468 -18.2151 128.252 -17.4094 128.882C-16.6037 129.511 -15.6836 129.974 -14.7017 130.242C-13.7199 130.511 -12.6954 130.581 -11.6869 130.448C-10.6784 130.315 -9.70557 129.982 -8.82394 129.468L-4.16927 126.744V144.248C-4.22572 145.31 -4.06817 146.373 -3.70623 147.372C-3.3443 148.371 -2.78558 149.284 -2.06416 150.056C-1.34273 150.829 -0.47374 151.444 0.489784 151.864C1.45332 152.285 2.49118 152.502 3.54004 152.502C4.5889 152.502 5.62675 152.285 6.59029 151.864C7.55382 151.444 8.42281 150.829 9.14423 150.056C9.86565 149.284 10.4244 148.371 10.7863 147.372C11.1482 146.373 11.3058 145.31 11.2493 144.248V126.676L15.904 129.4C17.0724 130.09 18.4013 130.45 19.7531 130.444C21.448 130.44 23.0945 129.87 24.4385 128.822C25.7825 127.775 26.7493 126.307 27.1897 124.647C27.63 122.986 27.5195 121.225 26.8752 119.634C26.2309 118.044 25.0886 116.713 23.6245 115.846L11.2493 108.604V95.2093C15.3805 93.9704 19.162 91.7526 22.2818 88.739L33.7171 95.5498V110.034C33.7171 112.112 34.5305 114.104 35.9784 115.573C37.4263 117.042 39.39 117.867 41.4376 117.867C43.4852 117.867 45.4489 117.042 46.8968 115.573C48.3447 114.104 49.1581 112.112 49.1581 110.034V104.586L64.1963 113.394C65.3625 114.089 66.6928 114.45 68.0453 114.439C69.7403 114.434 71.3868 113.865 72.7308 112.817C74.0748 111.769 75.0415 110.302 75.4819 108.641C75.9223 106.981 75.8118 105.219 75.1675 103.629C74.5232 102.038 73.3808 100.707 71.9168 99.8407V99.7272ZM3.55122 80.6795C1.21429 80.6795 -1.07014 79.9764 -3.01323 78.6593C-4.95631 77.3421 -6.47076 75.47 -7.36507 73.2796C-8.25937 71.0892 -8.49337 68.679 -8.03745 66.3537C-7.58154 64.0285 -6.4562 61.8926 -4.80375 60.2161C-3.15128 58.5397 -1.04593 57.3981 1.2461 56.9355C3.53812 56.473 5.91386 56.7104 8.0729 57.6177C10.2319 58.5249 12.0773 60.0614 13.3756 62.0326C14.674 64.0039 15.3669 66.3215 15.3669 68.6923C15.3669 71.8715 14.1221 74.9205 11.9062 77.1685C9.69032 79.4165 6.68494 80.6795 3.55122 80.6795Z" fill="url(#paint0_radial_120_11)"/>
</g>
<defs>
<radialGradient id="paint0_radial_120_11" cx="0" cy="0" r="1" gradientUnits="userSpaceOnUse" gradientTransform="translate(50.7022 35.4553) scale(140.2 142.234)">
<stop stop-color="#28CBE9"/>
<stop offset="1" stop-color="#0A4FBB"/>
</radialGradient>
<clipPath id="clip0_120_11">
<rect width="76" height="131" fill="white"/>
</clipPath>
</defs>
</svg>
