<svg width="71" height="135" viewBox="0 0 71 135" fill="none" xmlns="http://www.w3.org/2000/svg">
<g clip-path="url(#clip0_120_15)">
<path d="M118.561 110.78L103.995 111.748L101.249 126.01L87.2219 121.948L79.7304 134.412L67.9629 125.82L56.6299 135L48.5126 122.933L34.7289 127.687L31.2525 113.581L16.6518 113.373L18.2335 98.938L4.5888 93.769L11.0548 80.7342L0 71.2433L10.5508 61.1993L3.42422 48.5102L16.7908 42.667L14.4617 28.3356L29.045 27.3848L31.7913 13.1053L45.8011 17.1678L53.2926 4.7035L65.0775 13.2781L76.3931 4.11572L84.5104 16.1824L98.2941 11.4111L101.77 25.535L116.371 25.7425L114.789 40.1776L128.434 45.3466L121.986 58.3814L133.023 67.8723L122.49 77.9163L129.599 90.5881L116.232 96.4486L118.561 110.78Z" fill="url(#paint0_linear_120_15)"/>
<path d="M17.2427 69.5491C17.2392 79.2432 20.1264 88.7205 25.539 96.7825C30.9516 104.844 38.6464 111.129 47.6504 114.841C56.6544 118.553 66.563 119.526 76.123 117.637C85.683 115.748 94.4651 111.082 101.358 104.228C108.252 97.3745 112.947 88.6417 114.849 79.1342C116.752 69.6267 115.777 59.7714 112.048 50.815C108.319 41.8585 102.003 34.2032 93.899 28.8171C85.795 23.431 76.267 20.5562 66.5201 20.5562C53.4539 20.5562 40.9227 25.7173 31.6819 34.9048C22.441 44.0923 17.2473 56.5538 17.2427 69.5491Z" fill="url(#paint1_radial_120_15)"/>
<path style="mix-blend-mode:overlay" d="M74.0291 64.5183C61.4795 54.3878 56.6473 38.9846 63.0786 30.0815C69.5099 21.1784 85.0318 22.1811 97.5815 32.2943C110.131 42.4075 114.963 57.8453 108.532 66.7311C102.101 75.6169 86.5614 74.6315 74.0291 64.5183Z" fill="url(#paint2_radial_120_15)"/>
<path style="mix-blend-mode:overlay" opacity="0.4" d="M22.9613 80.3885C24.6299 74.9948 33.0254 77.2076 41.8553 85.3673C50.6853 93.5271 56.3691 104.591 54.7179 110.019C53.0666 115.448 44.619 113.183 35.8412 105.006C27.0634 96.829 21.31 85.7995 22.9613 80.3885Z" fill="url(#paint3_radial_120_15)"/>
</g>
<defs>
<linearGradient id="paint0_linear_120_15" x1="127.165" y1="2.14494" x2="10.9608" y2="132.706" gradientUnits="userSpaceOnUse">
<stop stop-color="#FFBA24"/>
<stop offset="1" stop-color="#FF5500"/>
</linearGradient>
<radialGradient id="paint1_radial_120_15" cx="0" cy="0" r="1" gradientUnits="userSpaceOnUse" gradientTransform="translate(77.7835 38.8291) rotate(180) scale(93.5315 93.0244)">
<stop stop-color="#FFF4C3"/>
<stop offset="0.16" stop-color="#FFE036"/>
<stop offset="1" stop-color="#FA761C"/>
</radialGradient>
<radialGradient id="paint2_radial_120_15" cx="0" cy="0" r="1" gradientUnits="userSpaceOnUse" gradientTransform="translate(87.6954 32.8147) rotate(126.294) scale(19.9303 29.1694)">
<stop stop-color="white"/>
<stop offset="0.1" stop-color="white" stop-opacity="0.85"/>
<stop offset="0.29" stop-color="white" stop-opacity="0.59"/>
<stop offset="0.47" stop-color="white" stop-opacity="0.38"/>
<stop offset="0.63" stop-color="white" stop-opacity="0.22"/>
<stop offset="0.78" stop-color="white" stop-opacity="0.1"/>
<stop offset="0.91" stop-color="white" stop-opacity="0.03"/>
<stop offset="1" stop-color="white" stop-opacity="0"/>
</radialGradient>
<radialGradient id="paint3_radial_120_15" cx="0" cy="0" r="1" gradientUnits="userSpaceOnUse" gradientTransform="translate(21.0156 83.3808) rotate(-136.922) scale(21.6893 9.21529)">
<stop stop-color="white"/>
<stop offset="0.1" stop-color="white" stop-opacity="0.85"/>
<stop offset="0.29" stop-color="white" stop-opacity="0.59"/>
<stop offset="0.47" stop-color="white" stop-opacity="0.38"/>
<stop offset="0.63" stop-color="white" stop-opacity="0.22"/>
<stop offset="0.78" stop-color="white" stop-opacity="0.1"/>
<stop offset="0.91" stop-color="white" stop-opacity="0.03"/>
<stop offset="1" stop-color="white" stop-opacity="0"/>
</radialGradient>
<clipPath id="clip0_120_15">
<rect width="71" height="135" fill="white"/>
</clipPath>
</defs>
</svg>
