<svg width="107" height="94" viewBox="0 0 107 94" fill="none" xmlns="http://www.w3.org/2000/svg">
<g clip-path="url(#clip0_160_73)">
<path d="M99.77 52.29L92.67 52.76L91.33 59.75L84.5 57.76L80.85 63.88L75.1 59.67L69.58 64.16L65.63 58.24L58.9 60.58L57.21 53.67L50.09 53.56L50.86 46.48L44.21 43.95L47.36 37.56L41.97 32.91L47.11 27.98L43.64 21.77L50.16 18.9L49.02 11.87L56.13 11.4L57.47 4.41L64.3 6.4L67.95 0.29L73.69 4.5L79.22 0L83.17 5.92L89.9 3.58L91.59 10.5L98.71 10.6L97.94 17.68L104.59 20.21L101.44 26.6L106.83 31.25L101.69 36.18L105.16 42.4L98.64 45.26L99.77 52.29Z" fill="url(#paint0_linear_160_73)"/>
<path d="M50.3799 32.0801C50.3799 36.8268 51.7875 41.467 54.4246 45.4138C57.0618 49.3605 60.8101 52.4367 65.1955 54.2532C69.5809 56.0697 74.4065 56.545 79.062 55.6189C83.7176 54.6929 87.994 52.4071 91.3504 49.0506C94.7069 45.6942 96.9927 41.4178 97.9187 36.7622C98.8448 32.1067 98.3695 27.2811 96.553 22.8957C94.7365 18.5102 91.6603 14.762 87.7136 12.1248C83.7668 9.48765 79.1266 8.08008 74.3799 8.08008C68.0147 8.08008 61.9102 10.6086 57.4093 15.1095C52.9084 19.6104 50.3799 25.7149 50.3799 32.0801Z" fill="url(#paint1_radial_160_73)"/>
<path style="mix-blend-mode:overlay" d="M78.0601 29.61C71.9401 24.61 69.5501 17.09 72.7201 12.73C75.8901 8.36997 83.4301 8.85997 89.5501 13.82C95.6701 18.78 98.0501 26.34 94.8801 30.7C91.7101 35.06 84.1801 34.57 78.0601 29.61Z" fill="url(#paint2_radial_160_73)"/>
<path style="mix-blend-mode:overlay" opacity="0.4" d="M53.17 37.3899C53.98 34.7299 58.1 35.8299 62.37 39.8499C66.64 43.8699 69.46 49.2699 68.65 51.9299C67.84 54.5899 63.72 53.4899 59.44 49.4699C55.16 45.4499 52.36 39.9999 53.17 37.3899Z" fill="url(#paint3_radial_160_73)"/>
<path d="M73 39.36C72.5622 32.5113 69.5329 26.0864 64.5279 21.3911C59.5228 16.6958 52.9177 14.0825 46.055 14.0825C39.1923 14.0825 32.5872 16.6958 27.5821 21.3911C22.5771 26.0864 19.5478 32.5113 19.11 39.36C13.8466 39.5931 8.8846 41.8814 5.2901 45.7334C1.69559 49.5853 -0.244603 54.6935 -0.11365 59.9604C0.0173033 65.2274 2.20896 70.2328 5.99044 73.9013C9.77193 77.5699 14.8415 79.6088 20.11 79.58H72C77.2685 79.6088 82.3381 77.5699 86.1196 73.9013C89.901 70.2328 92.0927 65.2274 92.2236 59.9604C92.3546 54.6935 90.4144 49.5853 86.8199 45.7334C83.2254 41.8814 78.2634 39.5931 73 39.36Z" fill="url(#paint4_radial_160_73)"/>
<path d="M73 39.36C72.5622 32.5113 69.5329 26.0864 64.5279 21.3911C59.5228 16.6958 52.9177 14.0825 46.055 14.0825C39.1923 14.0825 32.5872 16.6958 27.5821 21.3911C22.5771 26.0864 19.5478 32.5113 19.11 39.36C13.8466 39.5931 8.8846 41.8814 5.2901 45.7334C1.69559 49.5853 -0.244603 54.6935 -0.11365 59.9604C0.0173033 65.2274 2.20896 70.2328 5.99044 73.9013C9.77193 77.5699 14.8415 79.6088 20.11 79.58H72C77.2685 79.6088 82.3381 77.5699 86.1196 73.9013C89.901 70.2328 92.0927 65.2274 92.2236 59.9604C92.3546 54.6935 90.4144 49.5853 86.8199 45.7334C83.2254 41.8814 78.2634 39.5931 73 39.36Z" fill="url(#paint5_radial_160_73)"/>
<path style="mix-blend-mode:overlay" d="M46.0599 41.86C38.4799 35.71 35.5199 26.36 39.4499 21C43.3799 15.64 52.7099 16.21 60.2799 22.35C67.8499 28.49 70.8099 37.86 66.8899 43.26C62.9699 48.66 53.6299 48 46.0599 41.86Z" fill="url(#paint6_radial_160_73)"/>
<path style="mix-blend-mode:overlay" opacity="0.4" d="M73.1399 59.9999C67.1399 55.1699 64.8599 47.8199 67.9399 43.5799C71.0199 39.3399 78.3599 39.8099 84.3199 44.5799C90.2799 49.3499 92.5899 56.7699 89.5099 61.0099C86.4299 65.2499 79.0899 64.8499 73.1399 59.9999Z" fill="url(#paint7_radial_160_73)"/>
<path style="mix-blend-mode:overlay" opacity="0.2" d="M14.39 60.7002C9.99997 53.8502 4.88997 50.5502 2.99997 53.3302C1.10997 56.1102 3.10997 63.9102 7.49997 70.7702C11.89 77.6302 17 80.9202 18.89 78.1402C20.78 75.3602 18.78 67.5502 14.39 60.7002Z" fill="url(#paint8_radial_160_73)"/>
<path d="M23.58 91.9402C23.035 92.8843 22.1372 93.5733 21.0842 93.8556C20.0312 94.1378 18.9092 93.9902 17.965 93.4452C17.0208 92.9002 16.3318 92.0024 16.0496 90.9494C15.7673 89.8964 15.915 88.7743 16.46 87.8302C17.6 85.8302 24.62 81.9302 24.62 81.9302C24.62 81.9302 24.72 90.0002 23.58 91.9402Z" fill="url(#paint9_radial_160_73)"/>
<path style="mix-blend-mode:overlay" d="M16.5799 91.2601C15.9399 89.6001 16.3299 87.8501 17.4499 87.3501C18.5699 86.8501 19.9799 87.8001 20.6199 89.4701C21.2599 91.1401 20.8699 92.8801 19.7599 93.3801C18.6499 93.8801 17.2199 92.9301 16.5799 91.2601Z" fill="url(#paint10_radial_160_73)"/>
<path d="M40.78 91.9402C40.5101 92.4083 40.1507 92.8188 39.7222 93.148C39.2937 93.4773 38.8046 93.7189 38.2827 93.8591C37.7608 93.9993 37.2165 94.0354 36.6807 93.9652C36.1449 93.8951 35.6281 93.72 35.16 93.4502C34.6918 93.1803 34.2814 92.8209 33.9521 92.3924C33.6229 91.9639 33.3813 91.4748 33.241 90.9529C33.1008 90.431 33.0648 89.8867 33.1349 89.3509C33.2051 88.8151 33.3801 88.2983 33.65 87.8302C34.79 85.8302 41.81 81.9302 41.81 81.9302C41.81 81.9302 41.91 90.0002 40.78 91.9402Z" fill="url(#paint11_radial_160_73)"/>
<path style="mix-blend-mode:overlay" d="M33.77 91.2601C33.14 89.6001 33.52 87.8501 34.64 87.3501C35.76 86.8501 37.18 87.8001 37.81 89.4701C38.44 91.1401 38.06 92.8801 36.95 93.3801C35.84 93.8801 34.41 92.9301 33.77 91.2601Z" fill="url(#paint12_radial_160_73)"/>
<path d="M57.9999 91.9402C57.73 92.4077 57.3707 92.8175 56.9425 93.1461C56.5143 93.4747 56.0255 93.7158 55.5041 93.8556C54.9827 93.9953 54.4389 94.031 53.9037 93.9606C53.3685 93.8902 52.8524 93.715 52.3849 93.4452C51.9174 93.1753 51.5076 92.816 51.179 92.3878C50.8503 91.9595 50.6092 91.4708 50.4695 90.9494C50.3297 90.428 50.2941 89.8841 50.3645 89.349C50.4349 88.8138 50.61 88.2977 50.8799 87.8302C52.0099 85.8302 59.0299 81.9302 59.0299 81.9302C59.0299 81.9302 59.0999 90.0002 57.9999 91.9402Z" fill="url(#paint13_radial_160_73)"/>
<path style="mix-blend-mode:overlay" d="M50.9999 91.2601C50.3599 89.6001 50.7499 87.8501 51.8599 87.3501C52.9699 86.8501 54.3999 87.8001 55.0399 89.4701C55.6799 91.1401 55.2899 92.8801 54.1699 93.3801C53.0499 93.8801 51.5999 92.9301 50.9999 91.2601Z" fill="url(#paint14_radial_160_73)"/>
<path d="M75.16 91.9402C74.615 92.8897 73.7152 93.5837 72.6584 93.8697C71.6016 94.1557 70.4745 94.0102 69.525 93.4652C68.5756 92.9202 67.8815 92.0203 67.5955 90.9635C67.3095 89.9067 67.455 88.7797 68 87.8302C69.14 85.8302 76.16 81.9302 76.16 81.9302C76.16 81.9302 76.3 90.0002 75.16 91.9402Z" fill="url(#paint15_radial_160_73)"/>
<path style="mix-blend-mode:overlay" d="M68.16 91.2601C67.52 89.6001 67.91 87.8501 69.03 87.3501C70.15 86.8501 71.56 87.8001 72.2 89.4701C72.84 91.1401 72.45 92.8801 71.33 93.3801C70.21 93.8801 68.8 92.9301 68.16 91.2601Z" fill="url(#paint16_radial_160_73)"/>
</g>
<defs>
<linearGradient id="paint0_linear_160_73" x1="103.97" y1="-0.96" x2="46.97" y2="62.73" gradientUnits="userSpaceOnUse">
<stop stop-color="#FFBA24"/>
<stop offset="1" stop-color="#FF5500"/>
</linearGradient>
<radialGradient id="paint1_radial_160_73" cx="0" cy="0" r="1" gradientUnits="userSpaceOnUse" gradientTransform="translate(79.8899 17.0201) rotate(180) scale(45.6 45.6)">
<stop stop-color="#FFF4C3"/>
<stop offset="0.16" stop-color="#FFE036"/>
<stop offset="1" stop-color="#FA761C"/>
</radialGradient>
<radialGradient id="paint2_radial_160_73" cx="0" cy="0" r="1" gradientUnits="userSpaceOnUse" gradientTransform="translate(85.1985 11.5638) rotate(126.146) scale(9.74094 14.2332)">
<stop stop-color="white"/>
<stop offset="0.1" stop-color="white" stop-opacity="0.85"/>
<stop offset="0.29" stop-color="white" stop-opacity="0.59"/>
<stop offset="0.47" stop-color="white" stop-opacity="0.38"/>
<stop offset="0.63" stop-color="white" stop-opacity="0.22"/>
<stop offset="0.78" stop-color="white" stop-opacity="0.1"/>
<stop offset="0.91" stop-color="white" stop-opacity="0.03"/>
<stop offset="1" stop-color="white" stop-opacity="0"/>
</radialGradient>
<radialGradient id="paint3_radial_160_73" cx="0" cy="0" r="1" gradientUnits="userSpaceOnUse" gradientTransform="translate(51.3681 38.4577) rotate(-136.766) scale(10.5989 4.50481)">
<stop stop-color="white"/>
<stop offset="0.1" stop-color="white" stop-opacity="0.85"/>
<stop offset="0.29" stop-color="white" stop-opacity="0.59"/>
<stop offset="0.47" stop-color="white" stop-opacity="0.38"/>
<stop offset="0.63" stop-color="white" stop-opacity="0.22"/>
<stop offset="0.78" stop-color="white" stop-opacity="0.1"/>
<stop offset="0.91" stop-color="white" stop-opacity="0.03"/>
<stop offset="1" stop-color="white" stop-opacity="0"/>
</radialGradient>
<radialGradient id="paint4_radial_160_73" cx="0" cy="0" r="1" gradientUnits="userSpaceOnUse" gradientTransform="translate(57.67 27.9973) rotate(180) scale(70.26 51.2898)">
<stop stop-color="white"/>
<stop offset="0.2" stop-color="#D5F3FF"/>
<stop offset="1" stop-color="#85BCF1"/>
</radialGradient>
<radialGradient id="paint5_radial_160_73" cx="0" cy="0" r="1" gradientUnits="userSpaceOnUse" gradientTransform="translate(66.72 31.98) scale(61.7 61.7)">
<stop stop-color="#FFE036"/>
<stop offset="0.08" stop-color="#FECB31" stop-opacity="0.81"/>
<stop offset="0.18" stop-color="#FDB52B" stop-opacity="0.6"/>
<stop offset="0.28" stop-color="#FCA227" stop-opacity="0.41"/>
<stop offset="0.38" stop-color="#FB9223" stop-opacity="0.26"/>
<stop offset="0.48" stop-color="#FB8620" stop-opacity="0.15"/>
<stop offset="0.58" stop-color="#FA7D1E" stop-opacity="0.07"/>
<stop offset="0.68" stop-color="#FA781C" stop-opacity="0.02"/>
<stop offset="0.77" stop-color="#FA761C" stop-opacity="0"/>
</radialGradient>
<radialGradient id="paint6_radial_160_73" cx="0" cy="0" r="1" gradientUnits="userSpaceOnUse" gradientTransform="translate(54.5227 21.88) rotate(126.146) scale(12.0765 17.6458)">
<stop stop-color="white"/>
<stop offset="0.1" stop-color="white" stop-opacity="0.85"/>
<stop offset="0.29" stop-color="white" stop-opacity="0.59"/>
<stop offset="0.47" stop-color="white" stop-opacity="0.38"/>
<stop offset="0.63" stop-color="white" stop-opacity="0.22"/>
<stop offset="0.78" stop-color="white" stop-opacity="0.1"/>
<stop offset="0.91" stop-color="white" stop-opacity="0.03"/>
<stop offset="1" stop-color="white" stop-opacity="0"/>
</radialGradient>
<radialGradient id="paint7_radial_160_73" cx="0" cy="0" r="1" gradientUnits="userSpaceOnUse" gradientTransform="translate(80.1103 42.0955) rotate(126.146) scale(9.4846 13.8586)">
<stop stop-color="white"/>
<stop offset="0.1" stop-color="white" stop-opacity="0.85"/>
<stop offset="0.29" stop-color="white" stop-opacity="0.59"/>
<stop offset="0.47" stop-color="white" stop-opacity="0.38"/>
<stop offset="0.63" stop-color="white" stop-opacity="0.22"/>
<stop offset="0.78" stop-color="white" stop-opacity="0.1"/>
<stop offset="0.91" stop-color="white" stop-opacity="0.03"/>
<stop offset="1" stop-color="white" stop-opacity="0"/>
</radialGradient>
<radialGradient id="paint8_radial_160_73" cx="0" cy="0" r="1" gradientUnits="userSpaceOnUse" gradientTransform="translate(10.7394 65.5991) rotate(-25.5374) scale(4.85757 14.1582)">
<stop stop-color="white"/>
<stop offset="0.1" stop-color="white" stop-opacity="0.85"/>
<stop offset="0.29" stop-color="white" stop-opacity="0.59"/>
<stop offset="0.47" stop-color="white" stop-opacity="0.38"/>
<stop offset="0.63" stop-color="white" stop-opacity="0.22"/>
<stop offset="0.78" stop-color="white" stop-opacity="0.1"/>
<stop offset="0.91" stop-color="white" stop-opacity="0.03"/>
<stop offset="1" stop-color="white" stop-opacity="0"/>
</radialGradient>
<radialGradient id="paint9_radial_160_73" cx="0" cy="0" r="1" gradientUnits="userSpaceOnUse" gradientTransform="translate(18.0712 91.0111) rotate(30) scale(9.89)">
<stop stop-color="#D0F2FF"/>
<stop offset="0.2" stop-color="#D5F3FF"/>
<stop offset="1" stop-color="#85BCF1"/>
</radialGradient>
<radialGradient id="paint10_radial_160_73" cx="0" cy="0" r="1" gradientUnits="userSpaceOnUse" gradientTransform="translate(32.7599 98.4241) rotate(155.956) scale(2.20645 3.23389)">
<stop stop-color="white"/>
<stop offset="0.1" stop-color="white" stop-opacity="0.85"/>
<stop offset="0.29" stop-color="white" stop-opacity="0.59"/>
<stop offset="0.47" stop-color="white" stop-opacity="0.38"/>
<stop offset="0.63" stop-color="white" stop-opacity="0.22"/>
<stop offset="0.78" stop-color="white" stop-opacity="0.1"/>
<stop offset="0.91" stop-color="white" stop-opacity="0.03"/>
<stop offset="1" stop-color="white" stop-opacity="0"/>
</radialGradient>
<radialGradient id="paint11_radial_160_73" cx="0" cy="0" r="1" gradientUnits="userSpaceOnUse" gradientTransform="translate(35.2663 91.0083) rotate(30) scale(9.89 9.89)">
<stop stop-color="#D0F2FF"/>
<stop offset="0.2" stop-color="#D5F3FF"/>
<stop offset="1" stop-color="#85BCF1"/>
</radialGradient>
<radialGradient id="paint12_radial_160_73" cx="0" cy="0" r="1" gradientUnits="userSpaceOnUse" gradientTransform="translate(49.931 98.4395) rotate(155.956) scale(2.20645 3.23389)">
<stop stop-color="white"/>
<stop offset="0.1" stop-color="white" stop-opacity="0.85"/>
<stop offset="0.29" stop-color="white" stop-opacity="0.59"/>
<stop offset="0.47" stop-color="white" stop-opacity="0.38"/>
<stop offset="0.63" stop-color="white" stop-opacity="0.22"/>
<stop offset="0.78" stop-color="white" stop-opacity="0.1"/>
<stop offset="0.91" stop-color="white" stop-opacity="0.03"/>
<stop offset="1" stop-color="white" stop-opacity="0"/>
</radialGradient>
<radialGradient id="paint13_radial_160_73" cx="0" cy="0" r="1" gradientUnits="userSpaceOnUse" gradientTransform="translate(52.4613 91.0054) rotate(30) scale(9.89)">
<stop stop-color="#D0F2FF"/>
<stop offset="0.2" stop-color="#D5F3FF"/>
<stop offset="1" stop-color="#85BCF1"/>
</radialGradient>
<radialGradient id="paint14_radial_160_73" cx="0" cy="0" r="1" gradientUnits="userSpaceOnUse" gradientTransform="translate(67.0944 98.4354) rotate(155.956) scale(2.20645 3.23389)">
<stop stop-color="white"/>
<stop offset="0.1" stop-color="white" stop-opacity="0.85"/>
<stop offset="0.29" stop-color="white" stop-opacity="0.59"/>
<stop offset="0.47" stop-color="white" stop-opacity="0.38"/>
<stop offset="0.63" stop-color="white" stop-opacity="0.22"/>
<stop offset="0.78" stop-color="white" stop-opacity="0.1"/>
<stop offset="0.91" stop-color="white" stop-opacity="0.03"/>
<stop offset="1" stop-color="white" stop-opacity="0"/>
</radialGradient>
<radialGradient id="paint15_radial_160_73" cx="0" cy="0" r="1" gradientUnits="userSpaceOnUse" gradientTransform="translate(69.6516 91.0113) rotate(30) scale(9.89 9.89)">
<stop stop-color="#D0F2FF"/>
<stop offset="0.2" stop-color="#D5F3FF"/>
<stop offset="1" stop-color="#85BCF1"/>
</radialGradient>
<radialGradient id="paint16_radial_160_73" cx="0" cy="0" r="1" gradientUnits="userSpaceOnUse" gradientTransform="translate(84.2655 98.4508) rotate(155.956) scale(2.20645 3.23389)">
<stop stop-color="white"/>
<stop offset="0.1" stop-color="white" stop-opacity="0.85"/>
<stop offset="0.29" stop-color="white" stop-opacity="0.59"/>
<stop offset="0.47" stop-color="white" stop-opacity="0.38"/>
<stop offset="0.63" stop-color="white" stop-opacity="0.22"/>
<stop offset="0.78" stop-color="white" stop-opacity="0.1"/>
<stop offset="0.91" stop-color="white" stop-opacity="0.03"/>
<stop offset="1" stop-color="white" stop-opacity="0"/>
</radialGradient>
<clipPath id="clip0_160_73">
<rect width="106.83" height="94" fill="white"/>
</clipPath>
</defs>
</svg>
