<svg width="75" height="75" viewBox="0 0 75 75" fill="none" xmlns="http://www.w3.org/2000/svg">
<rect width="75" height="75" rx="17" fill="#418CFF"/>
<path d="M19 42.6875C19 47.3457 22.8297 51.125 27.55 51.125H49.4C53.5978 51.125 57 47.7676 57 43.625C57 39.998 54.3875 36.9688 50.92 36.2773C51.1634 35.6504 51.3 34.9648 51.3 34.25C51.3 31.1445 48.7469 28.625 45.6 28.625C44.4303 28.625 43.3378 28.9766 42.4353 29.5742C40.7906 26.7617 37.7209 24.875 34.2 24.875C28.9513 24.875 24.7 29.0703 24.7 34.25C24.7 34.4082 24.7059 34.5664 24.7119 34.7246C21.3869 35.8789 19 39.0078 19 42.6875Z" fill="white"/>
</svg>
