<svg width="20" height="20" viewBox="0 0 20 20" fill="none" xmlns="http://www.w3.org/2000/svg">
<path fill-rule="evenodd" clip-rule="evenodd" d="M19.7712 0.141667C19.916 0.260378 20 0.43776 20 0.625005V18.125C20 18.4229 19.7897 18.6794 19.4976 18.7379L13.2476 19.9879C13.1667 20.0041 13.0833 20.0041 13.0024 19.9879L6.875 18.7624L0.747573 19.9879C0.563963 20.0246 0.373562 19.9771 0.228757 19.8583C0.0839519 19.7396 0 19.5623 0 19.375V1.87501C0 1.57708 0.210287 1.32057 0.502427 1.26214L6.75243 0.0121425C6.83334 -0.00404028 6.91666 -0.00404028 6.99757 0.0121425L13.125 1.23763L19.2524 0.0121425C19.436 -0.0245794 19.6264 0.0229548 19.7712 0.141667ZM12.5 2.38738L7.5 1.38738V17.6126L12.5 18.6126V2.38738ZM13.75 18.6126L18.75 17.6126V1.38738L13.75 2.38738V18.6126ZM6.25 17.6126V1.38738L1.25 2.38738V18.6126L6.25 17.6126Z" fill="white"/>
</svg>
