<svg width="93" height="94" viewBox="0 0 93 94" fill="none" xmlns="http://www.w3.org/2000/svg">
<g clip-path="url(#clip0_160_142)">
<path d="M52.47 70.5501H48.11L55.3 56.5501C55.7743 55.5403 56.0321 54.4426 56.057 53.3273C56.0818 52.2119 55.8732 51.1038 55.4444 50.0739C55.0156 49.044 54.3761 48.1152 53.567 47.3471C52.758 46.579 51.7972 45.9886 50.7465 45.6139C49.6957 45.2391 48.5782 45.0882 47.4657 45.171C46.3532 45.2537 45.2703 45.5682 44.2865 46.0942C43.3027 46.6203 42.4399 47.3463 41.7533 48.2256C41.0668 49.1049 40.5717 50.1181 40.3 51.2001L35.5 73.8101L35.36 74.5001C35.2904 74.8288 35.2568 75.1641 35.26 75.5001C35.26 76.79 35.7717 78.0271 36.6828 78.9402C37.594 79.8532 38.8301 80.3674 40.12 80.3701H45.44L42.57 92.3701C42.5265 92.5813 42.5438 92.8006 42.6199 93.0023C42.696 93.2041 42.8278 93.3802 43 93.5101C43.1201 93.5976 43.2563 93.6605 43.4007 93.6953C43.5452 93.73 43.6951 93.736 43.8418 93.7128C43.9886 93.6896 44.1293 93.6376 44.256 93.5599C44.3826 93.4823 44.4927 93.3804 44.58 93.2601L56 77.5101C56.5423 76.7588 56.836 75.8567 56.84 74.9301C56.8373 73.771 56.3764 72.6599 55.5577 71.8394C54.739 71.0188 53.6291 70.5554 52.47 70.5501Z" fill="url(#paint0_linear_160_142)"/>
<path d="M73 25.1501C72.5622 18.3014 69.5329 11.8764 64.5279 7.1811C59.5228 2.4858 52.9177 -0.127441 46.055 -0.127441C39.1923 -0.127441 32.5872 2.4858 27.5821 7.1811C22.5771 11.8764 19.5478 18.3014 19.11 25.1501C13.8466 25.3832 8.8846 27.6715 5.2901 31.5234C1.69559 35.3753 -0.244603 40.4835 -0.11365 45.7505C0.0173033 51.0174 2.20896 56.0229 5.99044 59.6914C9.77193 63.3599 14.8415 65.3988 20.11 65.3701H72C77.2685 65.3988 82.3381 63.3599 86.1196 59.6914C89.901 56.0229 92.0927 51.0174 92.2236 45.7505C92.3546 40.4835 90.4144 35.3753 86.8199 31.5234C83.2254 27.6715 78.2634 25.3832 73 25.1501Z" fill="url(#paint1_radial_160_142)"/>
<path style="mix-blend-mode:overlay" opacity="0.6" d="M48.0001 27.6501C40.4201 21.5001 37.4601 12.1501 41.3901 6.75011C45.3201 1.35011 54.6001 2.00011 62.1801 8.09011C69.7601 14.1801 72.7001 23.6001 68.7801 29.0001C64.8601 34.4001 55.5201 33.7901 48.0001 27.6501Z" fill="url(#paint2_radial_160_142)"/>
<path style="mix-blend-mode:overlay" opacity="0.4" d="M73.1399 45.8101C67.1799 41.0001 64.8599 33.63 67.9999 29.39C71.1399 25.15 78.4099 25.62 84.3699 30.45C90.3299 35.28 92.6399 42.63 89.5599 46.87C86.4799 51.11 79.0899 50.6401 73.1399 45.8101Z" fill="url(#paint3_radial_160_142)"/>
<path style="mix-blend-mode:overlay" opacity="0.2" d="M14.39 46.4901C9.99997 39.6301 4.88997 36.3401 2.99997 39.1201C1.10997 41.9001 3.10997 49.7101 7.49997 56.5601C11.89 63.4101 17 66.7101 18.89 63.9301C20.78 61.1501 18.78 53.3501 14.39 46.4901Z" fill="url(#paint4_radial_160_142)"/>
<path d="M22.9201 78.4599C22.3751 79.4041 21.4773 80.0931 20.4243 80.3753C19.3713 80.6576 18.2492 80.51 17.3051 79.9649C16.3609 79.4199 15.6719 78.5221 15.3897 77.4691C15.1074 76.4161 15.2551 75.2941 15.8001 74.3499C16.9401 72.3499 23.9601 68.4399 23.9601 68.4399C23.9601 68.4399 24.0601 76.4899 22.9201 78.4599Z" fill="url(#paint5_radial_160_142)"/>
<path style="mix-blend-mode:overlay" d="M15.9199 77.7803C15.2899 76.1102 15.6699 74.3603 16.7899 73.8603C17.9099 73.3603 19.3199 74.3103 19.9999 76.0003C20.6799 77.6903 20.2499 79.4203 19.1399 79.9103C18.0299 80.4003 16.5599 79.4402 15.9199 77.7803Z" fill="url(#paint6_radial_160_142)"/>
<path d="M29.5499 90.5002C29.2801 90.9677 28.9208 91.3775 28.4925 91.7062C28.0643 92.0348 27.5755 92.2759 27.0541 92.4156C26.5327 92.5554 25.9889 92.5911 25.4537 92.5207C24.9185 92.4502 24.4025 92.2751 23.9349 92.0052C23.4674 91.7354 23.0577 91.3761 22.729 90.9478C22.4004 90.5196 22.1593 90.0308 22.0195 89.5094C21.8798 88.988 21.8441 88.4442 21.9145 87.909C21.9849 87.3738 22.1601 86.8577 22.4299 86.3902C23.5699 84.3902 30.5899 80.4902 30.5899 80.4902C30.5899 80.4902 30.6899 88.5402 29.5499 90.5002Z" fill="url(#paint7_radial_160_142)"/>
<path style="mix-blend-mode:overlay" d="M22.5501 89.8201C21.9101 88.1601 22.3001 86.4001 23.4201 85.9101C24.5401 85.4201 26.0001 86.3601 26.5901 88.0001C27.1801 89.6401 26.8401 91.4101 25.7301 91.9101C24.6201 92.4101 23.1901 91.4901 22.5501 89.8201Z" fill="url(#paint8_radial_160_142)"/>
<path d="M75.9999 78.4599C75.4549 79.4041 74.5571 80.0931 73.5041 80.3753C72.4511 80.6576 71.3291 80.51 70.3849 79.9649C69.4407 79.4199 68.7517 78.5221 68.4695 77.4691C68.1873 76.4161 68.3349 75.2941 68.8799 74.3499C69.9999 72.3799 76.9999 68.4399 76.9999 68.4399C76.9999 68.4399 77.0799 76.4899 75.9999 78.4599Z" fill="url(#paint9_radial_160_142)"/>
<path style="mix-blend-mode:overlay" d="M68.9999 77.7803C68.3599 76.1102 68.7399 74.3603 69.8599 73.8603C70.9799 73.3603 72.3499 74.3103 72.9999 76.0003C73.6499 77.6903 73.2499 79.4203 72.1299 79.9103C71.0099 80.4003 69.5799 79.4402 68.9999 77.7803Z" fill="url(#paint10_radial_160_142)"/>
<path d="M64.5299 90.5002C64.2601 90.9677 63.9008 91.3775 63.4725 91.7062C63.0443 92.0348 62.5555 92.2759 62.0341 92.4156C61.5127 92.5554 60.9689 92.5911 60.4337 92.5207C59.8985 92.4502 59.3824 92.2751 58.9149 92.0052C58.4474 91.7354 58.0376 91.3761 57.709 90.9478C57.3804 90.5196 57.1393 90.0308 56.9995 89.5094C56.8598 88.988 56.8241 88.4442 56.8945 87.909C56.9649 87.3738 57.1401 86.8577 57.4099 86.3902C58.5399 84.3902 65.5599 80.4902 65.5599 80.4902C65.5599 80.4902 65.6599 88.5402 64.5299 90.5002Z" fill="url(#paint11_radial_160_142)"/>
<path style="mix-blend-mode:overlay" d="M57.5299 89.82C56.8899 88.16 57.2799 86.4 58.3899 85.91C59.4999 85.42 60.9299 86.36 61.5699 88.03C62.2099 89.7 61.82 91.44 60.7 91.94C59.58 92.44 58.1699 91.49 57.5299 89.82Z" fill="url(#paint12_radial_160_142)"/>
</g>
<defs>
<linearGradient id="paint0_linear_160_142" x1="39.18" y1="92.9601" x2="50.71" y2="56.6701" gradientUnits="userSpaceOnUse">
<stop offset="0.16" stop-color="#FFE036"/>
<stop offset="1" stop-color="#FA761C"/>
</linearGradient>
<radialGradient id="paint1_radial_160_142" cx="0" cy="0" r="1" gradientUnits="userSpaceOnUse" gradientTransform="translate(57.67 13.7807) rotate(180) scale(70.26 51.2898)">
<stop stop-color="#B6CCD2"/>
<stop offset="0.2" stop-color="#97B6BE"/>
<stop offset="1" stop-color="#5D87B4"/>
</radialGradient>
<radialGradient id="paint2_radial_160_142" cx="0" cy="0" r="1" gradientUnits="userSpaceOnUse" gradientTransform="translate(57.1779 10.5364) rotate(126.146) scale(12.0765 17.6458)">
<stop stop-color="white"/>
<stop offset="0.1" stop-color="white" stop-opacity="0.85"/>
<stop offset="0.29" stop-color="white" stop-opacity="0.59"/>
<stop offset="0.47" stop-color="white" stop-opacity="0.38"/>
<stop offset="0.63" stop-color="white" stop-opacity="0.22"/>
<stop offset="0.78" stop-color="white" stop-opacity="0.1"/>
<stop offset="0.91" stop-color="white" stop-opacity="0.03"/>
<stop offset="1" stop-color="white" stop-opacity="0"/>
</radialGradient>
<radialGradient id="paint3_radial_160_142" cx="0" cy="0" r="1" gradientUnits="userSpaceOnUse" gradientTransform="translate(80.8609 30.7485) rotate(126.146) scale(9.4846 13.8586)">
<stop stop-color="white"/>
<stop offset="0.1" stop-color="white" stop-opacity="0.85"/>
<stop offset="0.29" stop-color="white" stop-opacity="0.59"/>
<stop offset="0.47" stop-color="white" stop-opacity="0.38"/>
<stop offset="0.63" stop-color="white" stop-opacity="0.22"/>
<stop offset="0.78" stop-color="white" stop-opacity="0.1"/>
<stop offset="0.91" stop-color="white" stop-opacity="0.03"/>
<stop offset="1" stop-color="white" stop-opacity="0"/>
</radialGradient>
<radialGradient id="paint4_radial_160_142" cx="0" cy="0" r="1" gradientUnits="userSpaceOnUse" gradientTransform="translate(10.7938 51.4245) rotate(-25.5374) scale(4.85757 14.1582)">
<stop stop-color="white"/>
<stop offset="0.1" stop-color="white" stop-opacity="0.85"/>
<stop offset="0.29" stop-color="white" stop-opacity="0.59"/>
<stop offset="0.47" stop-color="white" stop-opacity="0.38"/>
<stop offset="0.63" stop-color="white" stop-opacity="0.22"/>
<stop offset="0.78" stop-color="white" stop-opacity="0.1"/>
<stop offset="0.91" stop-color="white" stop-opacity="0.03"/>
<stop offset="1" stop-color="white" stop-opacity="0"/>
</radialGradient>
<radialGradient id="paint5_radial_160_142" cx="0" cy="0" r="1" gradientUnits="userSpaceOnUse" gradientTransform="translate(17.4093 77.5183) rotate(30) scale(9.89 9.89)">
<stop stop-color="#D0F2FF"/>
<stop offset="0.2" stop-color="#D5F3FF"/>
<stop offset="1" stop-color="#85BCF1"/>
</radialGradient>
<radialGradient id="paint6_radial_160_142" cx="0" cy="0" r="1" gradientUnits="userSpaceOnUse" gradientTransform="translate(28.5204 84.15) rotate(155.956) scale(2.20645 3.23389)">
<stop stop-color="white"/>
<stop offset="0.1" stop-color="white" stop-opacity="0.85"/>
<stop offset="0.29" stop-color="white" stop-opacity="0.59"/>
<stop offset="0.47" stop-color="white" stop-opacity="0.38"/>
<stop offset="0.63" stop-color="white" stop-opacity="0.22"/>
<stop offset="0.78" stop-color="white" stop-opacity="0.1"/>
<stop offset="0.91" stop-color="white" stop-opacity="0.03"/>
<stop offset="1" stop-color="white" stop-opacity="0"/>
</radialGradient>
<radialGradient id="paint7_radial_160_142" cx="0" cy="0" r="1" gradientUnits="userSpaceOnUse" gradientTransform="translate(24.0336 89.5647) rotate(30) scale(9.89)">
<stop stop-color="#D0F2FF"/>
<stop offset="0.2" stop-color="#D5F3FF"/>
<stop offset="1" stop-color="#85BCF1"/>
</radialGradient>
<radialGradient id="paint8_radial_160_142" cx="0" cy="0" r="1" gradientUnits="userSpaceOnUse" gradientTransform="translate(35.1791 96.2347) rotate(155.956) scale(2.20645 3.23389)">
<stop stop-color="white"/>
<stop offset="0.1" stop-color="white" stop-opacity="0.85"/>
<stop offset="0.29" stop-color="white" stop-opacity="0.59"/>
<stop offset="0.47" stop-color="white" stop-opacity="0.38"/>
<stop offset="0.63" stop-color="white" stop-opacity="0.22"/>
<stop offset="0.78" stop-color="white" stop-opacity="0.1"/>
<stop offset="0.91" stop-color="white" stop-opacity="0.03"/>
<stop offset="1" stop-color="white" stop-opacity="0"/>
</radialGradient>
<radialGradient id="paint9_radial_160_142" cx="0" cy="0" r="1" gradientUnits="userSpaceOnUse" gradientTransform="translate(70.432 77.52) rotate(30) scale(9.89)">
<stop stop-color="#D0F2FF"/>
<stop offset="0.2" stop-color="#D5F3FF"/>
<stop offset="1" stop-color="#85BCF1"/>
</radialGradient>
<radialGradient id="paint10_radial_160_142" cx="0" cy="0" r="1" gradientUnits="userSpaceOnUse" gradientTransform="translate(81.4579 84.1775) rotate(155.956) scale(2.20645 3.23389)">
<stop stop-color="white"/>
<stop offset="0.1" stop-color="white" stop-opacity="0.85"/>
<stop offset="0.29" stop-color="white" stop-opacity="0.59"/>
<stop offset="0.47" stop-color="white" stop-opacity="0.38"/>
<stop offset="0.63" stop-color="white" stop-opacity="0.22"/>
<stop offset="0.78" stop-color="white" stop-opacity="0.1"/>
<stop offset="0.91" stop-color="white" stop-opacity="0.03"/>
<stop offset="1" stop-color="white" stop-opacity="0"/>
</radialGradient>
<radialGradient id="paint11_radial_160_142" cx="0" cy="0" r="1" gradientUnits="userSpaceOnUse" gradientTransform="translate(59.0192 89.568) rotate(30) scale(9.89 9.89)">
<stop stop-color="#D0F2FF"/>
<stop offset="0.2" stop-color="#D5F3FF"/>
<stop offset="1" stop-color="#85BCF1"/>
</radialGradient>
<radialGradient id="paint12_radial_160_142" cx="0" cy="0" r="1" gradientUnits="userSpaceOnUse" gradientTransform="translate(70.09 96.24) rotate(155.956) scale(2.20645 3.23389)">
<stop stop-color="white"/>
<stop offset="0.1" stop-color="white" stop-opacity="0.85"/>
<stop offset="0.29" stop-color="white" stop-opacity="0.59"/>
<stop offset="0.47" stop-color="white" stop-opacity="0.38"/>
<stop offset="0.63" stop-color="white" stop-opacity="0.22"/>
<stop offset="0.78" stop-color="white" stop-opacity="0.1"/>
<stop offset="0.91" stop-color="white" stop-opacity="0.03"/>
<stop offset="1" stop-color="white" stop-opacity="0"/>
</radialGradient>
<clipPath id="clip0_160_142">
<rect width="92.11" height="93.73" fill="white"/>
</clipPath>
</defs>
</svg>
