<svg width="93" height="95" viewBox="0 0 93 95" fill="none" xmlns="http://www.w3.org/2000/svg">
<g clip-path="url(#clip0_160_94)">
<path d="M73 25.1501C72.5622 18.3014 69.5329 11.8764 64.5279 7.1811C59.5228 2.4858 52.9177 -0.127441 46.055 -0.127441C39.1923 -0.127441 32.5872 2.4858 27.5821 7.1811C22.5771 11.8764 19.5478 18.3014 19.11 25.1501C13.8466 25.3832 8.8846 27.6715 5.2901 31.5234C1.69559 35.3753 -0.244603 40.4835 -0.11365 45.7505C0.0173033 51.0174 2.20896 56.0229 5.99044 59.6914C9.77193 63.3599 14.8415 65.3988 20.11 65.3701H72C77.2685 65.3988 82.3381 63.3599 86.1196 59.6914C89.901 56.0229 92.0927 51.0174 92.2236 45.7505C92.3546 40.4835 90.4144 35.3753 86.8199 31.5234C83.2254 27.6715 78.2634 25.3832 73 25.1501Z" fill="url(#paint0_radial_160_94)"/>
<path style="mix-blend-mode:overlay" d="M46.0599 27.6501C38.4799 21.5001 35.5199 12.1501 39.4499 6.75011C43.3799 1.35011 52.7099 2.00011 60.2799 8.09011C67.8499 14.1801 70.8099 23.6001 66.8899 29.0001C62.9699 34.4001 53.6299 33.7901 46.0599 27.6501Z" fill="url(#paint1_radial_160_94)"/>
<path style="mix-blend-mode:overlay" opacity="0.4" d="M73.1399 45.8101C67.1399 40.9801 64.8599 33.63 67.9399 29.39C71.0199 25.15 78.3599 25.62 84.3199 30.45C90.2799 35.28 92.5899 42.63 89.5099 46.87C86.4299 51.11 79.0899 50.6401 73.1399 45.8101Z" fill="url(#paint2_radial_160_94)"/>
<path style="mix-blend-mode:overlay" opacity="0.2" d="M14.39 46.4901C9.99997 39.6301 4.88997 36.3401 2.99997 39.1201C1.10997 41.9001 3.10997 49.7101 7.49997 56.5601C11.89 63.4101 17 66.7101 18.89 63.9301C20.78 61.1501 18.78 53.3501 14.39 46.4901Z" fill="url(#paint3_radial_160_94)"/>
<path d="M23.58 77.7302C23.3101 78.1977 22.9508 78.6075 22.5226 78.9361C22.0943 79.2648 21.6056 79.5059 21.0842 79.6456C20.5628 79.7854 20.0189 79.8211 19.4838 79.7506C18.9486 79.6802 18.4325 79.5051 17.965 79.2352C17.4975 78.9653 17.0877 78.606 16.759 78.1778C16.4304 77.7496 16.1893 77.2608 16.0496 76.7394C15.9098 76.218 15.8741 75.6742 15.9445 75.139C16.015 74.6038 16.1901 74.0877 16.46 73.6202C17.6 71.6202 24.62 67.7202 24.62 67.7202C24.62 67.7202 24.72 75.7702 23.58 77.7302Z" fill="url(#paint4_radial_160_94)"/>
<path style="mix-blend-mode:overlay" d="M16.5799 77.0499C15.9399 75.3899 16.3299 73.6299 17.4499 73.1399C18.5699 72.6499 19.9799 73.5899 20.6199 75.2599C21.2599 76.9299 20.8699 78.6699 19.7599 79.1699C18.6499 79.6699 17.2199 78.7199 16.5799 77.0499Z" fill="url(#paint5_radial_160_94)"/>
<path d="M40.78 77.7302C40.235 78.6757 39.3367 79.366 38.2827 79.6492C37.2288 79.9323 36.1055 79.7852 35.16 79.2402C34.2145 78.6952 33.5242 77.7969 33.241 76.7429C32.9579 75.689 33.105 74.5657 33.65 73.6202C34.79 71.6202 41.81 67.7202 41.81 67.7202C41.81 67.7202 41.91 75.7702 40.78 77.7302Z" fill="url(#paint6_radial_160_94)"/>
<path style="mix-blend-mode:overlay" d="M33.77 77.0499C33.14 75.3899 33.52 73.6299 34.64 73.1399C35.76 72.6499 37.18 73.5899 37.81 75.2599C38.44 76.9299 38.06 78.6699 36.95 79.1699C35.84 79.6699 34.41 78.7199 33.77 77.0499Z" fill="url(#paint7_radial_160_94)"/>
<path d="M57.9999 77.7302C57.4549 78.6744 56.5571 79.3634 55.5041 79.6456C54.4511 79.9279 53.3291 79.7802 52.3849 79.2352C51.4407 78.6902 50.7517 77.7924 50.4695 76.7394C50.1873 75.6864 50.3349 74.5644 50.8799 73.6202C52.0099 71.6202 59.0299 67.7202 59.0299 67.7202C59.0299 67.7202 59.0999 75.7702 57.9999 77.7302Z" fill="url(#paint8_radial_160_94)"/>
<path style="mix-blend-mode:overlay" d="M50.9999 77.0499C50.3599 75.3899 50.7499 73.6299 51.8599 73.1399C52.9699 72.6499 54.3999 73.5899 55.0399 75.2599C55.6799 76.9299 55.2899 78.6699 54.1699 79.1699C53.0499 79.6699 51.6099 78.7199 50.9999 77.0499Z" fill="url(#paint9_radial_160_94)"/>
<path d="M75.16 77.7302C74.615 78.6797 73.7152 79.3738 72.6584 79.6598C71.6016 79.9458 70.4745 79.8002 69.525 79.2552C68.5756 78.7102 67.8815 77.8103 67.5955 76.7535C67.3095 75.6968 67.455 74.5697 68 73.6202C69.14 71.6202 76.16 67.7202 76.16 67.7202C76.16 67.7202 76.3 75.7702 75.16 77.7302Z" fill="url(#paint10_radial_160_94)"/>
<path style="mix-blend-mode:overlay" d="M68.16 77.0499C67.52 75.3899 67.91 73.6299 69.03 73.1399C70.15 72.6499 71.56 73.5899 72.2 75.2599C72.84 76.9299 72.45 78.6699 71.33 79.1699C70.21 79.6699 68.8 78.7199 68.16 77.0499Z" fill="url(#paint11_radial_160_94)"/>
<path d="M32.1801 92.1802C31.6351 93.1243 30.7373 93.8133 29.6843 94.0956C28.6313 94.3778 27.5093 94.2302 26.5651 93.6852C25.6209 93.1401 24.9319 92.2424 24.6497 91.1893C24.3674 90.1363 24.5151 89.0143 25.0601 88.0702C26.1901 86.0702 33.2101 82.1602 33.2101 82.1602C33.2101 82.1602 33.3101 90.2102 32.1801 92.1802Z" fill="url(#paint12_radial_160_94)"/>
<path style="mix-blend-mode:overlay" d="M25.1801 91.5003C24.5401 89.8303 24.9301 88.0803 26.0401 87.5803C27.1501 87.0803 28.5801 88.0403 29.2201 89.7003C29.8601 91.3603 29.4701 93.1203 28.3501 93.6103C27.2301 94.1003 25.8201 93.1603 25.1801 91.5003Z" fill="url(#paint13_radial_160_94)"/>
<path d="M49.37 92.1802C48.825 93.1243 47.9272 93.8133 46.8742 94.0956C45.8212 94.3778 44.6992 94.2302 43.755 93.6852C42.8109 93.1401 42.1219 92.2424 41.8396 91.1893C41.5574 90.1363 41.705 89.0143 42.25 88.0702C43.39 86.0702 50.41 82.1602 50.41 82.1602C50.41 82.1602 50.51 90.2102 49.37 92.1802Z" fill="url(#paint14_radial_160_94)"/>
<path style="mix-blend-mode:overlay" d="M42.3699 91.5003C41.7299 89.8303 42.1199 88.0803 43.2399 87.5803C44.3599 87.0803 45.7699 88.0403 46.4099 89.7003C47.0499 91.3603 46.6599 93.1203 45.5499 93.6103C44.4399 94.1003 42.9999 93.1603 42.3699 91.5003Z" fill="url(#paint15_radial_160_94)"/>
<path d="M66.56 92.1802C66.0149 93.1243 65.1172 93.8133 64.0642 94.0956C63.0111 94.3778 61.8891 94.2302 60.945 93.6852C60.0008 93.1401 59.3118 92.2424 59.0296 91.1893C58.7473 90.1363 58.8949 89.0143 59.44 88.0702C60.58 86.0702 67.6 82.1602 67.6 82.1602C67.6 82.1602 67.7 90.2102 66.56 92.1802Z" fill="url(#paint16_radial_160_94)"/>
<path style="mix-blend-mode:overlay" d="M59.5601 91.5001C58.9301 89.8301 59.3101 88.0801 60.4301 87.5801C61.5501 87.0801 63.0001 88.0001 63.6001 89.7001C64.2001 91.4001 63.8501 93.1201 62.7401 93.6101C61.6301 94.1001 60.2001 93.1601 59.5601 91.5001Z" fill="url(#paint17_radial_160_94)"/>
</g>
<defs>
<radialGradient id="paint0_radial_160_94" cx="0" cy="0" r="1" gradientUnits="userSpaceOnUse" gradientTransform="translate(57.67 13.7807) rotate(180) scale(70.26 51.2898)">
<stop stop-color="white"/>
<stop offset="0.2" stop-color="#D5F3FF"/>
<stop offset="1" stop-color="#85BCF1"/>
</radialGradient>
<radialGradient id="paint1_radial_160_94" cx="0" cy="0" r="1" gradientUnits="userSpaceOnUse" gradientTransform="translate(54.6019 8.84931) rotate(126.146) scale(12.0765 17.6458)">
<stop stop-color="white"/>
<stop offset="0.1" stop-color="white" stop-opacity="0.85"/>
<stop offset="0.29" stop-color="white" stop-opacity="0.59"/>
<stop offset="0.47" stop-color="white" stop-opacity="0.38"/>
<stop offset="0.63" stop-color="white" stop-opacity="0.22"/>
<stop offset="0.78" stop-color="white" stop-opacity="0.1"/>
<stop offset="0.91" stop-color="white" stop-opacity="0.03"/>
<stop offset="1" stop-color="white" stop-opacity="0"/>
</radialGradient>
<radialGradient id="paint2_radial_160_94" cx="0" cy="0" r="1" gradientUnits="userSpaceOnUse" gradientTransform="translate(80.1811 29.0763) rotate(126.146) scale(9.4846 13.8586)">
<stop stop-color="white"/>
<stop offset="0.1" stop-color="white" stop-opacity="0.85"/>
<stop offset="0.29" stop-color="white" stop-opacity="0.59"/>
<stop offset="0.47" stop-color="white" stop-opacity="0.38"/>
<stop offset="0.63" stop-color="white" stop-opacity="0.22"/>
<stop offset="0.78" stop-color="white" stop-opacity="0.1"/>
<stop offset="0.91" stop-color="white" stop-opacity="0.03"/>
<stop offset="1" stop-color="white" stop-opacity="0"/>
</radialGradient>
<radialGradient id="paint3_radial_160_94" cx="0" cy="0" r="1" gradientUnits="userSpaceOnUse" gradientTransform="translate(10.7848 51.4288) rotate(-25.5374) scale(4.85757 14.1582)">
<stop stop-color="white"/>
<stop offset="0.1" stop-color="white" stop-opacity="0.85"/>
<stop offset="0.29" stop-color="white" stop-opacity="0.59"/>
<stop offset="0.47" stop-color="white" stop-opacity="0.38"/>
<stop offset="0.63" stop-color="white" stop-opacity="0.22"/>
<stop offset="0.78" stop-color="white" stop-opacity="0.1"/>
<stop offset="0.91" stop-color="white" stop-opacity="0.03"/>
<stop offset="1" stop-color="white" stop-opacity="0"/>
</radialGradient>
<radialGradient id="paint4_radial_160_94" cx="0" cy="0" r="1" gradientUnits="userSpaceOnUse" gradientTransform="translate(18.0716 76.807) rotate(30) scale(9.89 9.89)">
<stop stop-color="#D0F2FF"/>
<stop offset="0.2" stop-color="#D5F3FF"/>
<stop offset="1" stop-color="#85BCF1"/>
</radialGradient>
<radialGradient id="paint5_radial_160_94" cx="0" cy="0" r="1" gradientUnits="userSpaceOnUse" gradientTransform="translate(31.2064 83.528) rotate(155.956) scale(2.20645 3.23389)">
<stop stop-color="white"/>
<stop offset="0.1" stop-color="white" stop-opacity="0.85"/>
<stop offset="0.29" stop-color="white" stop-opacity="0.59"/>
<stop offset="0.47" stop-color="white" stop-opacity="0.38"/>
<stop offset="0.63" stop-color="white" stop-opacity="0.22"/>
<stop offset="0.78" stop-color="white" stop-opacity="0.1"/>
<stop offset="0.91" stop-color="white" stop-opacity="0.03"/>
<stop offset="1" stop-color="white" stop-opacity="0"/>
</radialGradient>
<radialGradient id="paint6_radial_160_94" cx="0" cy="0" r="1" gradientUnits="userSpaceOnUse" gradientTransform="translate(35.2668 76.8042) rotate(30) scale(9.89 9.89)">
<stop stop-color="#D0F2FF"/>
<stop offset="0.2" stop-color="#D5F3FF"/>
<stop offset="1" stop-color="#85BCF1"/>
</radialGradient>
<radialGradient id="paint7_radial_160_94" cx="0" cy="0" r="1" gradientUnits="userSpaceOnUse" gradientTransform="translate(48.37 83.5239) rotate(155.956) scale(2.20645 3.23389)">
<stop stop-color="white"/>
<stop offset="0.1" stop-color="white" stop-opacity="0.85"/>
<stop offset="0.29" stop-color="white" stop-opacity="0.59"/>
<stop offset="0.47" stop-color="white" stop-opacity="0.38"/>
<stop offset="0.63" stop-color="white" stop-opacity="0.22"/>
<stop offset="0.78" stop-color="white" stop-opacity="0.1"/>
<stop offset="0.91" stop-color="white" stop-opacity="0.03"/>
<stop offset="1" stop-color="white" stop-opacity="0"/>
</radialGradient>
<radialGradient id="paint8_radial_160_94" cx="0" cy="0" r="1" gradientUnits="userSpaceOnUse" gradientTransform="translate(52.4618 76.8014) rotate(30) scale(9.89)">
<stop stop-color="#D0F2FF"/>
<stop offset="0.2" stop-color="#D5F3FF"/>
<stop offset="1" stop-color="#85BCF1"/>
</radialGradient>
<radialGradient id="paint9_radial_160_94" cx="0" cy="0" r="1" gradientUnits="userSpaceOnUse" gradientTransform="translate(65.5409 83.5393) rotate(155.956) scale(2.20645 3.23389)">
<stop stop-color="white"/>
<stop offset="0.1" stop-color="white" stop-opacity="0.85"/>
<stop offset="0.29" stop-color="white" stop-opacity="0.59"/>
<stop offset="0.47" stop-color="white" stop-opacity="0.38"/>
<stop offset="0.63" stop-color="white" stop-opacity="0.22"/>
<stop offset="0.78" stop-color="white" stop-opacity="0.1"/>
<stop offset="0.91" stop-color="white" stop-opacity="0.03"/>
<stop offset="1" stop-color="white" stop-opacity="0"/>
</radialGradient>
<radialGradient id="paint10_radial_160_94" cx="0" cy="0" r="1" gradientUnits="userSpaceOnUse" gradientTransform="translate(69.6571 76.7986) rotate(30) scale(9.89 9.89)">
<stop stop-color="#D0F2FF"/>
<stop offset="0.2" stop-color="#D5F3FF"/>
<stop offset="1" stop-color="#85BCF1"/>
</radialGradient>
<radialGradient id="paint11_radial_160_94" cx="0" cy="0" r="1" gradientUnits="userSpaceOnUse" gradientTransform="translate(82.7045 83.5352) rotate(155.956) scale(2.20645 3.23389)">
<stop stop-color="white"/>
<stop offset="0.1" stop-color="white" stop-opacity="0.85"/>
<stop offset="0.29" stop-color="white" stop-opacity="0.59"/>
<stop offset="0.47" stop-color="white" stop-opacity="0.38"/>
<stop offset="0.63" stop-color="white" stop-opacity="0.22"/>
<stop offset="0.78" stop-color="white" stop-opacity="0.1"/>
<stop offset="0.91" stop-color="white" stop-opacity="0.03"/>
<stop offset="1" stop-color="white" stop-opacity="0"/>
</radialGradient>
<radialGradient id="paint12_radial_160_94" cx="0" cy="0" r="1" gradientUnits="userSpaceOnUse" gradientTransform="translate(26.6713 91.252) rotate(30) scale(9.89)">
<stop stop-color="#D0F2FF"/>
<stop offset="0.2" stop-color="#D5F3FF"/>
<stop offset="1" stop-color="#85BCF1"/>
</radialGradient>
<radialGradient id="paint13_radial_160_94" cx="0" cy="0" r="1" gradientUnits="userSpaceOnUse" gradientTransform="translate(39.8346 98.0016) rotate(155.956) scale(2.20645 3.23389)">
<stop stop-color="white"/>
<stop offset="0.1" stop-color="white" stop-opacity="0.85"/>
<stop offset="0.29" stop-color="white" stop-opacity="0.59"/>
<stop offset="0.47" stop-color="white" stop-opacity="0.38"/>
<stop offset="0.63" stop-color="white" stop-opacity="0.22"/>
<stop offset="0.78" stop-color="white" stop-opacity="0.1"/>
<stop offset="0.91" stop-color="white" stop-opacity="0.03"/>
<stop offset="1" stop-color="white" stop-opacity="0"/>
</radialGradient>
<radialGradient id="paint14_radial_160_94" cx="0" cy="0" r="1" gradientUnits="userSpaceOnUse" gradientTransform="translate(43.8664 91.2492) rotate(30) scale(9.89 9.89)">
<stop stop-color="#D0F2FF"/>
<stop offset="0.2" stop-color="#D5F3FF"/>
<stop offset="1" stop-color="#85BCF1"/>
</radialGradient>
<radialGradient id="paint15_radial_160_94" cx="0" cy="0" r="1" gradientUnits="userSpaceOnUse" gradientTransform="translate(56.9979 97.9975) rotate(155.956) scale(2.20645 3.23389)">
<stop stop-color="white"/>
<stop offset="0.1" stop-color="white" stop-opacity="0.85"/>
<stop offset="0.29" stop-color="white" stop-opacity="0.59"/>
<stop offset="0.47" stop-color="white" stop-opacity="0.38"/>
<stop offset="0.63" stop-color="white" stop-opacity="0.22"/>
<stop offset="0.78" stop-color="white" stop-opacity="0.1"/>
<stop offset="0.91" stop-color="white" stop-opacity="0.03"/>
<stop offset="1" stop-color="white" stop-opacity="0"/>
</radialGradient>
<radialGradient id="paint16_radial_160_94" cx="0" cy="0" r="1" gradientUnits="userSpaceOnUse" gradientTransform="translate(61.0615 91.2464) rotate(30) scale(9.89 9.89)">
<stop stop-color="#D0F2FF"/>
<stop offset="0.2" stop-color="#D5F3FF"/>
<stop offset="1" stop-color="#85BCF1"/>
</radialGradient>
<radialGradient id="paint17_radial_160_94" cx="0" cy="0" r="1" gradientUnits="userSpaceOnUse" gradientTransform="translate(74.1691 98.0127) rotate(155.956) scale(2.20645 3.23389)">
<stop stop-color="white"/>
<stop offset="0.1" stop-color="white" stop-opacity="0.85"/>
<stop offset="0.29" stop-color="white" stop-opacity="0.59"/>
<stop offset="0.47" stop-color="white" stop-opacity="0.38"/>
<stop offset="0.63" stop-color="white" stop-opacity="0.22"/>
<stop offset="0.78" stop-color="white" stop-opacity="0.1"/>
<stop offset="0.91" stop-color="white" stop-opacity="0.03"/>
<stop offset="1" stop-color="white" stop-opacity="0"/>
</radialGradient>
<clipPath id="clip0_160_94">
<rect width="92.11" height="94.23" fill="white"/>
</clipPath>
</defs>
</svg>
