<svg xmlns="http://www.w3.org/2000/svg" viewBox="0 0 125.21 109.82"><defs><style>.cls-1{fill:#99aebb;}.cls-2{fill:#cdd4dc;}</style></defs><g id="Layer_2" data-name="Layer 2"><g id="smoky"><path class="cls-1" d="M11.05,108.1A16.68,16.68,0,0,1,13,109.82H120.83a25.62,25.62,0,0,0,4-8c.94-3.74.29-8.13-2.58-10.71-4.17-3.74-12.09-3.24-13.91-8.54-1.48-4.3,2.56-8.28,5.68-11.6a39.45,39.45,0,0,0,.21-53.78,61.35,61.35,0,0,1,.67,11.88l-2-7.5L109.33,27c-.6-8.4-1.83-18-8.77-22.74a22.37,22.37,0,0,0-8-3.13A37.91,37.91,0,0,0,75.91.77,23,23,0,0,0,62.06,9.6a10.29,10.29,0,0,1,9-.83c-2.91-.15-4.77,3.2-4.93,6.11s.6,5.93-.36,8.68C64,28.45,58,30,52.91,30.82c.91-5.29-4.66-9.68-10-10.38C34.58,19.34,26,24.38,22.24,31.9s-2.87,17,1.61,24.08c2.62,4.15,6.56,8.7,4.81,13.29-2.67-.88-5.43-2.39-8.13-1.61a5.35,5.35,0,0,0-3.19,7.14,9.6,9.6,0,0,0-9.71.32A15.75,15.75,0,0,0,1.41,83,18.59,18.59,0,0,0,0,89.67C0,97.09,5.28,103.43,11.05,108.1Z"/><path class="cls-2" d="M40.47,104.14c-.91-2.74.4-5.82,2.48-7.82s4.82-3.12,7.49-4.21c-2.61-1.83-6-1.87-9.18-2.24s-6.67-1.4-8.14-4.23a8.93,8.93,0,0,1-.73-4.52,20.29,20.29,0,0,1,7.09-14.21c2-1.65,4.32-3,5.31-5.41,1.24-2.92-.21-6.46-2.72-8.4s-5.82-2.51-9-2.5C39.65,47.9,45.65,43,47.91,36.26c1.69-5,.58-9.77-1.88-14.24a8.59,8.59,0,0,1-.44-.92,12.26,12.26,0,0,0-2.67-.66C34.58,19.34,26,24.38,22.24,31.9s-2.87,17,1.61,24.08c2.62,4.15,6.56,8.7,4.81,13.29-2.67-.88-5.43-2.39-8.13-1.61a5.35,5.35,0,0,0-3.19,7.14,9.6,9.6,0,0,0-9.71.32A15.75,15.75,0,0,0,1.41,83,18.59,18.59,0,0,0,0,89.67c0,7.42,5.28,13.76,11.05,18.43A16.68,16.68,0,0,1,13,109.82H48.07C44.84,108.79,41.51,107.27,40.47,104.14Z"/><path class="cls-2" d="M59.77,32c-2.2,2.9-3.55,6.88-2.06,10.21,1.76,4,6.94,5.4,11.13,4.34s7.64-4,10.92-6.81c-2.91,3.87-5.59,8.15-6.17,13S75.1,63,79.53,64.92c3.35,1.49,7.4.72,10.47-1.3a21.75,21.75,0,0,0,6.94-8.39,41.33,41.33,0,0,0,4.28-13.85c1.28,2.72,3,5.78,6,6.21,2.29.33,4.53-1.14,5.79-3.07A18.4,18.4,0,0,0,115.2,38c.92,2.39,3,5.42,6,4.49,2-.63,2.5-2.68,3-4.59a39.93,39.93,0,0,0-10-20.74,61.35,61.35,0,0,1,.67,11.88l-2-7.5L109.33,27c-.49-6.88-1.41-14.53-5.54-19.71a11,11,0,0,0-5.13,4.5A43.2,43.2,0,0,0,96.92,2.4a31.12,31.12,0,0,0-4.36-1.27A37.91,37.91,0,0,0,75.91.77,23,23,0,0,0,62.06,9.6a10.29,10.29,0,0,1,9-.83c-2.16-.11-3.75,1.72-4.48,3.86a5.11,5.11,0,0,1,2.6-.11c1.53.38,2.83,2,2.37,3.49a6.87,6.87,0,0,1,9.65-3.65,8.08,8.08,0,0,0-6.87,7c-.19,1.79.24,3.6,0,5.38s-1.58,3.65-3.37,3.55c-2.2-.12-3.13-2.9-3-5.1s.55-4.69-.87-6.37l-.91.21c.1,2.23.36,4.47-.37,6.56a8.21,8.21,0,0,1-3.08,4,8.22,8.22,0,0,1-.56,1.3A26.14,26.14,0,0,1,59.77,32Z"/><path class="cls-2" d="M111.06,96.81a5.78,5.78,0,0,0-4.18-2,18.64,18.64,0,0,0-13.4,3.5c2.33-2.65,4.43-5.66,5.17-9.12s-.12-7.42-2.87-9.64c-2.46-2-5.93-2.25-9.06-1.76A23.6,23.6,0,0,0,67.42,99a8.84,8.84,0,0,0,1.19,5.64,7.91,7.91,0,0,0,3.18,2.47c3.26,1.54,5.82,1,9.18,1,3.06,0,2.61-.17,4.28,1.7h19.67a41.06,41.06,0,0,0,4.73-5.87C111.11,101.82,112.51,99,111.06,96.81Z"/><path class="cls-2" d="M56.3,14.42c-.8.81-1.54,2-1.12,3s1.73,1.41,2.87,1.43a5,5,0,0,0,1.54-.17,4.51,4.51,0,0,0,2.67-3.19,3.83,3.83,0,0,0,.18-1.38,2.54,2.54,0,0,0-1.41-2C59.2,11.24,57.47,13.25,56.3,14.42Z"/></g></g></svg>