<svg width="161" height="122" viewBox="0 0 161 122" fill="none" xmlns="http://www.w3.org/2000/svg">
<g clip-path="url(#clip0_120_24)">
<path d="M151.2 73.5676L141.338 74.2274L139.478 84.0773L129.972 81.2653L124.917 89.8741L116.932 83.9516L109.272 90.2825L103.767 81.9565L94.4323 85.2398L92.0754 75.4999L82.198 75.3585L83.2679 65.3987L74.0263 61.8326L78.399 52.8625L70.925 46.3116L78.0579 39.368L73.2355 30.6335L82.291 26.5962L80.7249 16.6992L90.5868 16.0394L92.4475 6.20525L101.937 9.00154L107.008 0.408447L114.978 6.33093L122.653 0L128.143 8.32604L137.477 5.04275L139.834 14.7669L149.727 14.9083L148.642 24.8681L157.883 28.4342L153.511 37.42L161 43.9709L153.852 50.8988L158.674 59.649L149.619 63.6863L151.2 73.5676Z" fill="url(#paint0_linear_120_24)"/>
<path d="M115.955 78.9246C134.375 78.9246 149.308 63.7958 149.308 45.1334C149.308 26.4711 134.375 11.3423 115.955 11.3423C97.534 11.3423 82.6011 26.4711 82.6011 45.1334C82.6011 63.7958 97.534 78.9246 115.955 78.9246Z" fill="url(#paint1_radial_120_24)"/>
<path style="mix-blend-mode:overlay" d="M121.041 41.6616C112.544 34.6709 109.225 24.0512 113.629 17.9088C118.033 11.7664 128.499 12.4576 136.997 19.4798C145.494 26.5019 148.859 37.0587 144.409 43.1854C139.958 49.3121 129.538 48.6995 121.041 41.6616Z" fill="url(#paint2_radial_120_24)"/>
<path style="mix-blend-mode:overlay" opacity="0.4" d="M86.4777 52.611C87.5941 48.8722 93.3159 50.4117 99.2547 56.0671C105.194 61.7225 109.086 69.3259 107.969 73.0648C106.853 76.8036 101.131 75.2484 95.1921 69.6087C89.2533 63.969 85.2837 56.3499 86.4777 52.611Z" fill="url(#paint3_radial_120_24)"/>
<path d="M113.195 58.8162C112.516 48.0572 107.819 37.9639 100.058 30.5878C92.2969 23.2117 82.0548 19.1064 71.4135 19.1064C60.7722 19.1064 50.5301 23.2117 42.7693 30.5878C35.0084 37.9639 30.3111 48.0572 29.6323 58.8162C21.4708 59.1823 13.7766 62.7772 8.20297 68.8284C2.62929 74.8796 -0.379199 82.9042 -0.176141 91.1783C0.0269162 99.4524 3.42532 107.316 9.28894 113.079C15.1525 118.842 23.0135 122.045 31.1829 122H111.644C119.813 122.045 127.674 118.842 133.538 113.079C139.402 107.316 142.8 99.4524 143.003 91.1783C143.206 82.9042 140.198 74.8796 134.624 68.8284C129.05 62.7772 121.356 59.1823 113.195 58.8162Z" fill="url(#paint4_radial_120_24)"/>
<path d="M113.195 58.8162C112.516 48.0572 107.819 37.9639 100.058 30.5878C92.2969 23.2117 82.0548 19.1064 71.4135 19.1064C60.7722 19.1064 50.5301 23.2117 42.7693 30.5878C35.0084 37.9639 30.3111 48.0572 29.6323 58.8162C21.4708 59.1823 13.7766 62.7772 8.20297 68.8284C2.62929 74.8796 -0.379199 82.9042 -0.176141 91.1783C0.0269162 99.4524 3.42532 107.316 9.28894 113.079C15.1525 118.842 23.0135 122.045 31.1829 122H111.644C119.813 122.045 127.674 118.842 133.538 113.079C139.402 107.316 142.8 99.4524 143.003 91.1783C143.206 82.9042 140.198 74.8796 134.624 68.8284C129.05 62.7772 121.356 59.1823 113.195 58.8162Z" fill="url(#paint5_radial_120_24)"/>
<path style="mix-blend-mode:overlay" d="M71.4213 62.8379C59.6677 53.098 55.0779 38.3939 61.1718 29.8479C67.2657 21.3019 81.7329 22.3231 93.4865 31.9687C105.24 41.6143 109.799 56.3341 103.721 64.8015C97.6421 73.269 83.1594 72.4049 71.4213 62.8379Z" fill="url(#paint6_radial_120_24)"/>
<path style="mix-blend-mode:overlay" opacity="0.4" d="M113.412 91.288C104.108 83.7003 100.573 72.1538 105.364 65.4773C110.156 58.8007 121.506 59.5705 130.748 67.1425C139.989 74.7145 143.571 86.2924 138.795 92.9532C134.019 99.614 122.638 98.8757 113.412 91.288Z" fill="url(#paint7_radial_120_24)"/>
<path style="mix-blend-mode:overlay" opacity="0.2" d="M22.3134 92.3562C15.5062 81.5794 7.58254 76.3953 4.65188 80.7625C1.72123 85.1298 4.79144 97.3989 11.5986 108.176C18.4058 118.952 26.3604 124.105 29.2911 119.754C32.2218 115.402 29.1205 103.117 22.3134 92.3562Z" fill="url(#paint8_radial_120_24)"/>
</g>
<defs>
<linearGradient id="paint0_linear_120_24" x1="157.031" y1="-1.35101" x2="76.7247" y2="87.2159" gradientUnits="userSpaceOnUse">
<stop stop-color="#FFBA24"/>
<stop offset="1" stop-color="#FF5500"/>
</linearGradient>
<radialGradient id="paint1_radial_120_24" cx="0" cy="0" r="1" gradientUnits="userSpaceOnUse" gradientTransform="translate(123.584 23.9413) rotate(180) scale(63.327 64.1576)">
<stop stop-color="#FFF4C3"/>
<stop offset="0.16" stop-color="#FFE036"/>
<stop offset="1" stop-color="#FA761C"/>
</radialGradient>
<radialGradient id="paint2_radial_120_24" cx="0" cy="0" r="1" gradientUnits="userSpaceOnUse" gradientTransform="translate(131.747 18.9922) rotate(125.791) scale(13.6526 19.8683)">
<stop stop-color="white"/>
<stop offset="0.1" stop-color="white" stop-opacity="0.85"/>
<stop offset="0.29" stop-color="white" stop-opacity="0.59"/>
<stop offset="0.47" stop-color="white" stop-opacity="0.38"/>
<stop offset="0.63" stop-color="white" stop-opacity="0.22"/>
<stop offset="0.78" stop-color="white" stop-opacity="0.1"/>
<stop offset="0.91" stop-color="white" stop-opacity="0.03"/>
<stop offset="1" stop-color="white" stop-opacity="0"/>
</radialGradient>
<radialGradient id="paint3_radial_120_24" cx="0" cy="0" r="1" gradientUnits="userSpaceOnUse" gradientTransform="translate(78.171 50.1666) rotate(-136.394) scale(14.8325 6.30875)">
<stop stop-color="white"/>
<stop offset="0.1" stop-color="white" stop-opacity="0.85"/>
<stop offset="0.29" stop-color="white" stop-opacity="0.59"/>
<stop offset="0.47" stop-color="white" stop-opacity="0.38"/>
<stop offset="0.63" stop-color="white" stop-opacity="0.22"/>
<stop offset="0.78" stop-color="white" stop-opacity="0.1"/>
<stop offset="0.91" stop-color="white" stop-opacity="0.03"/>
<stop offset="1" stop-color="white" stop-opacity="0"/>
</radialGradient>
<radialGradient id="paint4_radial_120_24" cx="0" cy="0" r="1" gradientUnits="userSpaceOnUse" gradientTransform="translate(89.4238 40.9841) rotate(180) scale(108.946 80.5737)">
<stop stop-color="white"/>
<stop offset="0.2" stop-color="#D5F3FF"/>
<stop offset="1" stop-color="#85BCF1"/>
</radialGradient>
<radialGradient id="paint5_radial_120_24" cx="0" cy="0" r="1" gradientUnits="userSpaceOnUse" gradientTransform="translate(104.868 50.2073) scale(92.618 93.8329)">
<stop stop-color="#FFE036"/>
<stop offset="0.08" stop-color="#FECB31" stop-opacity="0.81"/>
<stop offset="0.18" stop-color="#FDB52B" stop-opacity="0.6"/>
<stop offset="0.28" stop-color="#FCA227" stop-opacity="0.41"/>
<stop offset="0.38" stop-color="#FB9223" stop-opacity="0.26"/>
<stop offset="0.48" stop-color="#FB8620" stop-opacity="0.15"/>
<stop offset="0.58" stop-color="#FA7D1E" stop-opacity="0.07"/>
<stop offset="0.68" stop-color="#FA781C" stop-opacity="0.02"/>
<stop offset="0.77" stop-color="#FA761C" stop-opacity="0"/>
</radialGradient>
<radialGradient id="paint6_radial_120_24" cx="0" cy="0" r="1" gradientUnits="userSpaceOnUse" gradientTransform="translate(85.1262 35.7715) rotate(125.791) scale(18.8865 27.4851)">
<stop stop-color="white"/>
<stop offset="0.1" stop-color="white" stop-opacity="0.85"/>
<stop offset="0.29" stop-color="white" stop-opacity="0.59"/>
<stop offset="0.47" stop-color="white" stop-opacity="0.38"/>
<stop offset="0.63" stop-color="white" stop-opacity="0.22"/>
<stop offset="0.78" stop-color="white" stop-opacity="0.1"/>
<stop offset="0.91" stop-color="white" stop-opacity="0.03"/>
<stop offset="1" stop-color="white" stop-opacity="0"/>
</radialGradient>
<radialGradient id="paint7_radial_120_24" cx="0" cy="0" r="1" gradientUnits="userSpaceOnUse" gradientTransform="translate(124.803 67.5294) rotate(125.791) scale(14.833 21.5861)">
<stop stop-color="white"/>
<stop offset="0.1" stop-color="white" stop-opacity="0.85"/>
<stop offset="0.29" stop-color="white" stop-opacity="0.59"/>
<stop offset="0.47" stop-color="white" stop-opacity="0.38"/>
<stop offset="0.63" stop-color="white" stop-opacity="0.22"/>
<stop offset="0.78" stop-color="white" stop-opacity="0.1"/>
<stop offset="0.91" stop-color="white" stop-opacity="0.03"/>
<stop offset="1" stop-color="white" stop-opacity="0"/>
</radialGradient>
<radialGradient id="paint8_radial_120_24" cx="0" cy="0" r="1" gradientUnits="userSpaceOnUse" gradientTransform="translate(16.6679 100.029) rotate(-25.8291) scale(7.55066 22.1874)">
<stop stop-color="white"/>
<stop offset="0.1" stop-color="white" stop-opacity="0.85"/>
<stop offset="0.29" stop-color="white" stop-opacity="0.59"/>
<stop offset="0.47" stop-color="white" stop-opacity="0.38"/>
<stop offset="0.63" stop-color="white" stop-opacity="0.22"/>
<stop offset="0.78" stop-color="white" stop-opacity="0.1"/>
<stop offset="0.91" stop-color="white" stop-opacity="0.03"/>
<stop offset="1" stop-color="white" stop-opacity="0"/>
</radialGradient>
<clipPath id="clip0_120_24">
<rect width="161" height="122" fill="white"/>
</clipPath>
</defs>
</svg>
