<svg width="107" height="93" viewBox="0 0 107 93" fill="none" xmlns="http://www.w3.org/2000/svg">
<g clip-path="url(#clip0_160_116)">
<path d="M85.1299 61.7L76.7499 62.26L75.1699 70.51L67.0999 68.16L62.7899 75.37L56.0199 70.4L49.4999 75.71L44.8399 68.73L36.8999 71.48L34.8999 63.32L26.4999 63.2L27.4099 54.85L19.5599 51.86L23.2799 44.32L16.9199 38.83L22.9899 33.02L18.8899 25.68L26.5799 22.3L25.2399 14.01L33.6299 13.46L35.2099 5.2L43.2699 7.55L47.5799 0.34L54.3599 5.3L60.8699 0L65.5399 6.98L73.4699 4.22L75.4699 12.39L83.8799 12.51L82.9599 20.86L90.8099 23.85L87.0999 31.39L93.4499 36.88L87.3899 42.69L91.4799 50.02L83.7899 53.41L85.1299 61.7Z" fill="url(#paint0_linear_160_116)"/>
<path d="M26.8401 37.8498C26.8381 43.4573 28.4991 48.9395 31.6131 53.6029C34.727 58.2664 39.154 61.9016 44.3341 64.0489C49.5142 66.1962 55.2147 66.759 60.7148 65.6662C66.2148 64.5735 71.2672 61.8742 75.233 57.9098C79.1988 53.9454 81.8999 48.8939 82.9946 43.3943C84.0893 37.8946 83.5285 32.1939 81.383 27.013C79.2376 21.8321 75.6039 17.4039 70.9415 14.2883C66.2792 11.1727 60.7976 9.50977 55.1901 9.50977C47.6729 9.50977 40.4635 12.4953 35.1471 17.8098C29.8308 23.1242 26.8427 30.3326 26.8401 37.8498Z" fill="url(#paint1_radial_160_116)"/>
<path style="mix-blend-mode:overlay" d="M59.5099 34.9398C52.2899 29.0798 49.5099 20.1698 53.2099 15.0198C56.9099 9.86982 65.8399 10.4498 73.0599 16.2998C80.2799 22.1498 83.0599 31.0798 79.3599 36.2198C75.6599 41.3598 66.7199 40.7898 59.5099 34.9398Z" fill="url(#paint2_radial_160_116)"/>
<path style="mix-blend-mode:overlay" opacity="0.4" d="M30.1301 44.1198C31.0901 40.9998 36.0001 42.2798 41.0001 46.9998C46.0001 51.7198 49.3501 58.1198 48.4001 61.2598C47.4501 64.3998 42.5901 63.0898 37.5401 58.3598C32.4901 53.6298 29.1801 47.2498 30.1301 44.1198Z" fill="url(#paint3_radial_160_116)"/>
<path d="M38.49 54.5C38.2375 50.9049 36.6312 47.5393 33.9951 45.0818C31.3589 42.6243 27.889 41.2578 24.285 41.2578C20.6811 41.2578 17.2112 42.6243 14.575 45.0818C11.9389 47.5393 10.3326 50.9049 10.08 54.5C7.30143 54.6191 4.68068 55.8244 2.7819 57.8565C0.883124 59.8886 -0.141843 62.5851 -0.0723689 65.3653C-0.00289448 68.1456 1.15547 70.7875 3.15337 72.7222C5.15127 74.657 7.82895 75.7299 10.61 75.71H38C40.7823 75.7331 43.4624 74.6623 45.4627 72.7283C47.4631 70.7943 48.6237 68.1519 48.6945 65.3704C48.7653 62.5889 47.7407 59.8909 45.8413 57.8577C43.942 55.8244 41.3199 54.6186 38.54 54.5H38.49Z" fill="url(#paint4_radial_160_116)"/>
<path d="M38.49 54.5C38.2375 50.9049 36.6312 47.5393 33.9951 45.0818C31.3589 42.6243 27.889 41.2578 24.285 41.2578C20.6811 41.2578 17.2112 42.6243 14.575 45.0818C11.9389 47.5393 10.3326 50.9049 10.08 54.5C7.30143 54.6191 4.68068 55.8244 2.7819 57.8565C0.883124 59.8886 -0.141843 62.5851 -0.0723689 65.3653C-0.00289448 68.1456 1.15547 70.7875 3.15337 72.7222C5.15127 74.657 7.82895 75.7299 10.61 75.71H38C40.7823 75.7331 43.4624 74.6623 45.4627 72.7283C47.4631 70.7943 48.6237 68.1519 48.6945 65.3704C48.7653 62.5889 47.7407 59.8909 45.8413 57.8577C43.942 55.8244 41.3199 54.6186 38.54 54.5H38.49Z" fill="url(#paint5_radial_160_116)"/>
<path style="mix-blend-mode:overlay" d="M24.28 55.8198C20.28 52.5798 18.73 47.6498 20.8 44.8198C22.87 41.9898 27.8 42.2998 31.8 45.5298C35.8 48.7598 37.36 53.7098 35.29 56.5298C33.22 59.3498 28.28 59.0598 24.28 55.8198Z" fill="url(#paint6_radial_160_116)"/>
<path style="mix-blend-mode:overlay" opacity="0.4" d="M38.56 65.4C35.42 62.86 34.2 58.98 35.82 56.74C37.44 54.5 41.32 54.74 44.46 57.3C47.6 59.86 48.82 63.72 47.19 65.96C45.56 68.2 41.7 68 38.56 65.4Z" fill="url(#paint7_radial_160_116)"/>
<path style="mix-blend-mode:overlay" opacity="0.2" d="M7.58996 65.7598C5.26996 62.1398 2.58996 60.3998 1.58996 61.8698C0.589957 63.3398 1.64996 67.4498 3.95996 71.0698C6.26996 74.6898 8.99996 76.4198 9.99996 74.9998C11 73.5798 9.89996 69.3698 7.58996 65.7598Z" fill="url(#paint8_radial_160_116)"/>
<path d="M99.0001 24.6401C99.0001 21.7228 97.8412 18.9249 95.7783 16.862C93.7154 14.7991 90.9175 13.6401 88.0001 13.6401C85.0827 13.6401 82.2848 14.7991 80.2219 16.862C78.159 18.9249 77.0001 21.7228 77.0001 24.6401C74.8849 24.7837 72.907 25.7389 71.4794 27.3063C70.0519 28.8737 69.2852 30.9321 69.3394 33.0515C69.3936 35.1708 70.2645 37.1873 71.7703 38.6797C73.2761 40.172 75.3003 41.0249 77.4201 41.0601H98.5601C100.681 41.0291 102.708 40.1794 104.217 38.6886C105.726 37.1979 106.6 35.1816 106.657 33.0612C106.714 30.9408 105.949 28.8806 104.522 27.3112C103.095 25.7418 101.116 24.7847 99.0001 24.6401Z" fill="url(#paint9_radial_160_116)"/>
<path d="M99.0001 24.6401C99.0001 21.7228 97.8412 18.9249 95.7783 16.862C93.7154 14.7991 90.9175 13.6401 88.0001 13.6401C85.0827 13.6401 82.2848 14.7991 80.2219 16.862C78.159 18.9249 77.0001 21.7228 77.0001 24.6401C74.8849 24.7837 72.907 25.7389 71.4794 27.3063C70.0519 28.8737 69.2852 30.9321 69.3394 33.0515C69.3936 35.1708 70.2645 37.1873 71.7703 38.6797C73.2761 40.172 75.3003 41.0249 77.4201 41.0601H98.5601C100.681 41.0291 102.708 40.1794 104.217 38.6886C105.726 37.1979 106.6 35.1816 106.657 33.0612C106.714 30.9408 105.949 28.8806 104.522 27.3112C103.095 25.7418 101.116 24.7847 99.0001 24.6401Z" fill="url(#paint10_radial_160_116)"/>
<path style="mix-blend-mode:overlay" d="M88.0002 25.6601C84.9102 23.1501 83.7001 19.3301 85.3101 17.1301C86.9201 14.9301 90.7201 15.1301 93.8101 17.6801C96.9001 20.2301 98.1102 24.0101 96.5102 26.2101C94.9102 28.4101 91.0702 28.1701 88.0002 25.6601Z" fill="url(#paint11_radial_160_116)"/>
<path style="mix-blend-mode:overlay" opacity="0.4" d="M99 33.08C96.57 31.08 95.62 28.08 96.88 26.37C98.14 24.66 101.13 24.83 103.56 26.8C105.99 28.77 106.94 31.8 105.68 33.51C104.42 35.22 101.46 35 99 33.08Z" fill="url(#paint12_radial_160_116)"/>
<path style="mix-blend-mode:overlay" opacity="0.2" d="M75.0499 33.3502C73.2499 30.5502 71.1699 29.2102 70.3899 30.3502C69.6099 31.4902 70.3899 34.6702 72.2299 37.4702C74.0699 40.2702 76.0999 41.6202 76.8799 40.4702C77.6599 39.3202 76.8399 36.1502 75.0499 33.3502Z" fill="url(#paint13_radial_160_116)"/>
<path d="M30.9101 90.3699C30.365 91.314 29.4673 92.003 28.4143 92.2853C27.3612 92.5675 26.2392 92.4199 25.2951 91.8749C24.3509 91.3298 23.6619 90.4321 23.3797 89.3791C23.0974 88.326 23.245 87.204 23.7901 86.2599C24.9301 84.2599 31.9501 80.3599 31.9501 80.3599C31.9501 80.3599 32.0501 88.4099 30.9101 90.3699Z" fill="url(#paint14_radial_160_116)"/>
<path style="mix-blend-mode:overlay" d="M23.9099 89.6901C23.2799 88.0301 23.6599 86.2701 24.7799 85.7801C25.8999 85.2901 27.3199 86.2301 27.9499 87.9001C28.5799 89.5701 28.1999 91.3101 27.0899 91.8101C25.9799 92.3101 24.5499 91.3601 23.9099 89.6901Z" fill="url(#paint15_radial_160_116)"/>
<path d="M48.1101 90.3699C47.8534 90.8614 47.4999 91.296 47.0708 91.6473C46.6418 91.9987 46.146 92.2596 45.6135 92.4143C45.0809 92.569 44.5226 92.6143 43.972 92.5475C43.4215 92.4807 42.8902 92.3032 42.41 92.0257C41.9299 91.7481 41.5109 91.3763 41.1783 90.9326C40.8457 90.4888 40.6063 89.9824 40.4746 89.4437C40.3428 88.905 40.3215 88.3452 40.4118 87.798C40.5021 87.2509 40.7023 86.7276 41.0001 86.2599C42.1301 84.2599 49.1501 80.3599 49.1501 80.3599C49.1501 80.3599 49.2401 88.4099 48.1101 90.3699Z" fill="url(#paint16_radial_160_116)"/>
<path style="mix-blend-mode:overlay" d="M41.11 89.6901C40.47 88.0301 40.86 86.2701 41.97 85.7801C43.08 85.2901 44.51 86.2301 45.15 87.9001C45.79 89.5701 45.4 91.3101 44.28 91.8101C43.16 92.3101 41.74 91.3601 41.11 89.6901Z" fill="url(#paint17_radial_160_116)"/>
<path d="M65.3 90.3699C64.7549 91.314 63.8572 92.003 62.8042 92.2853C61.7511 92.5675 60.6291 92.4199 59.685 91.8749C58.7408 91.3298 58.0518 90.4321 57.7696 89.3791C57.4873 88.326 57.6349 87.204 58.18 86.2599C59.31 84.2599 66.34 80.3599 66.34 80.3599C66.34 80.3599 66.44 88.4099 65.3 90.3699Z" fill="url(#paint18_radial_160_116)"/>
<path style="mix-blend-mode:overlay" d="M58.3 89.6901C57.66 88.0301 58.05 86.2701 59.16 85.7801C60.27 85.2901 61.7 86.2301 62.34 87.9001C62.98 89.5701 62.59 91.3101 61.47 91.8101C60.35 92.3101 58.94 91.3601 58.3 89.6901Z" fill="url(#paint19_radial_160_116)"/>
<path d="M82.4901 90.3699C81.9451 91.314 81.0474 92.003 79.9943 92.2853C78.9413 92.5675 77.8193 92.4199 76.8751 91.8749C75.931 91.3298 75.242 90.4321 74.9597 89.3791C74.6775 88.326 74.8251 87.204 75.3701 86.2599C76.5101 84.2599 83.5301 80.3599 83.5301 80.3599C83.5301 80.3599 83.6301 88.4099 82.4901 90.3699Z" fill="url(#paint20_radial_160_116)"/>
<path style="mix-blend-mode:overlay" d="M75.49 89.6901C74.85 88.0301 75.2401 86.2701 76.3601 85.7801C77.4801 85.2901 78.8901 86.2301 79.5301 87.9001C80.1701 89.5701 79.78 91.3101 78.67 91.8101C77.56 92.3101 76.13 91.3601 75.49 89.6901Z" fill="url(#paint21_radial_160_116)"/>
</g>
<defs>
<linearGradient id="paint0_linear_160_116" x1="90.0799" y1="-1.14" x2="22.8199" y2="74.02" gradientUnits="userSpaceOnUse">
<stop stop-color="#FFBA24"/>
<stop offset="1" stop-color="#FF5500"/>
</linearGradient>
<radialGradient id="paint1_radial_160_116" cx="0" cy="0" r="1" gradientUnits="userSpaceOnUse" gradientTransform="translate(61.6701 20.0798) rotate(180) scale(53.81)">
<stop stop-color="#FFF4C3"/>
<stop offset="0.16" stop-color="#FFE036"/>
<stop offset="1" stop-color="#FA761C"/>
</radialGradient>
<radialGradient id="paint2_radial_160_116" cx="0" cy="0" r="1" gradientUnits="userSpaceOnUse" gradientTransform="translate(68.0219 15.3588) rotate(126.146) scale(11.5068 16.8135)">
<stop stop-color="white"/>
<stop offset="0.1" stop-color="white" stop-opacity="0.85"/>
<stop offset="0.29" stop-color="white" stop-opacity="0.59"/>
<stop offset="0.47" stop-color="white" stop-opacity="0.38"/>
<stop offset="0.63" stop-color="white" stop-opacity="0.22"/>
<stop offset="0.78" stop-color="white" stop-opacity="0.1"/>
<stop offset="0.91" stop-color="white" stop-opacity="0.03"/>
<stop offset="1" stop-color="white" stop-opacity="0"/>
</radialGradient>
<radialGradient id="paint3_radial_160_116" cx="0" cy="0" r="1" gradientUnits="userSpaceOnUse" gradientTransform="translate(29.6446 46.5902) rotate(-136.766) scale(12.5099 5.31705)">
<stop stop-color="white"/>
<stop offset="0.1" stop-color="white" stop-opacity="0.85"/>
<stop offset="0.29" stop-color="white" stop-opacity="0.59"/>
<stop offset="0.47" stop-color="white" stop-opacity="0.38"/>
<stop offset="0.63" stop-color="white" stop-opacity="0.22"/>
<stop offset="0.78" stop-color="white" stop-opacity="0.1"/>
<stop offset="0.91" stop-color="white" stop-opacity="0.03"/>
<stop offset="1" stop-color="white" stop-opacity="0"/>
</radialGradient>
<radialGradient id="paint4_radial_160_116" cx="0" cy="0" r="1" gradientUnits="userSpaceOnUse" gradientTransform="translate(30.4 48.5377) rotate(180) scale(37.04 27.0392)">
<stop stop-color="white"/>
<stop offset="0.2" stop-color="#D5F3FF"/>
<stop offset="1" stop-color="#85BCF1"/>
</radialGradient>
<radialGradient id="paint5_radial_160_116" cx="0" cy="0" r="1" gradientUnits="userSpaceOnUse" gradientTransform="translate(38.81 53.34) scale(42.11 42.11)">
<stop stop-color="#FFE036"/>
<stop offset="0.08" stop-color="#FECB31" stop-opacity="0.81"/>
<stop offset="0.18" stop-color="#FDB52B" stop-opacity="0.6"/>
<stop offset="0.28" stop-color="#FCA227" stop-opacity="0.41"/>
<stop offset="0.38" stop-color="#FB9223" stop-opacity="0.26"/>
<stop offset="0.48" stop-color="#FB8620" stop-opacity="0.15"/>
<stop offset="0.58" stop-color="#FA7D1E" stop-opacity="0.07"/>
<stop offset="0.68" stop-color="#FA781C" stop-opacity="0.02"/>
<stop offset="0.77" stop-color="#FA761C" stop-opacity="0"/>
</radialGradient>
<radialGradient id="paint6_radial_160_116" cx="0" cy="0" r="1" gradientUnits="userSpaceOnUse" gradientTransform="translate(29.7396 40.3225) rotate(126.146) scale(6.36579 9.3015)">
<stop stop-color="white"/>
<stop offset="0.1" stop-color="white" stop-opacity="0.85"/>
<stop offset="0.29" stop-color="white" stop-opacity="0.59"/>
<stop offset="0.47" stop-color="white" stop-opacity="0.38"/>
<stop offset="0.63" stop-color="white" stop-opacity="0.22"/>
<stop offset="0.78" stop-color="white" stop-opacity="0.1"/>
<stop offset="0.91" stop-color="white" stop-opacity="0.03"/>
<stop offset="1" stop-color="white" stop-opacity="0"/>
</radialGradient>
<radialGradient id="paint7_radial_160_116" cx="0" cy="0" r="1" gradientUnits="userSpaceOnUse" gradientTransform="translate(43.2222 50.9692) rotate(126.146) scale(4.99864 7.30386)">
<stop stop-color="white"/>
<stop offset="0.1" stop-color="white" stop-opacity="0.85"/>
<stop offset="0.29" stop-color="white" stop-opacity="0.59"/>
<stop offset="0.47" stop-color="white" stop-opacity="0.38"/>
<stop offset="0.63" stop-color="white" stop-opacity="0.22"/>
<stop offset="0.78" stop-color="white" stop-opacity="0.1"/>
<stop offset="0.91" stop-color="white" stop-opacity="0.03"/>
<stop offset="1" stop-color="white" stop-opacity="0"/>
</radialGradient>
<radialGradient id="paint8_radial_160_116" cx="0" cy="0" r="1" gradientUnits="userSpaceOnUse" gradientTransform="translate(5.56956 68.2229) rotate(-25.5374) scale(2.56344 7.47156)">
<stop stop-color="white"/>
<stop offset="0.1" stop-color="white" stop-opacity="0.85"/>
<stop offset="0.29" stop-color="white" stop-opacity="0.59"/>
<stop offset="0.47" stop-color="white" stop-opacity="0.38"/>
<stop offset="0.63" stop-color="white" stop-opacity="0.22"/>
<stop offset="0.78" stop-color="white" stop-opacity="0.1"/>
<stop offset="0.91" stop-color="white" stop-opacity="0.03"/>
<stop offset="1" stop-color="white" stop-opacity="0"/>
</radialGradient>
<radialGradient id="paint9_radial_160_116" cx="0" cy="0" r="1" gradientUnits="userSpaceOnUse" gradientTransform="translate(92.7201 20.0101) rotate(180) scale(28.68 20.9364)">
<stop stop-color="white"/>
<stop offset="0.2" stop-color="#D5F3FF"/>
<stop offset="1" stop-color="#85BCF1"/>
</radialGradient>
<radialGradient id="paint10_radial_160_116" cx="0" cy="0" r="1" gradientUnits="userSpaceOnUse" gradientTransform="translate(73.9801 29.8501) scale(38.33 38.33)">
<stop stop-color="#FFE036"/>
<stop offset="0.08" stop-color="#FECB31" stop-opacity="0.81"/>
<stop offset="0.18" stop-color="#FDB52B" stop-opacity="0.6"/>
<stop offset="0.28" stop-color="#FCA227" stop-opacity="0.41"/>
<stop offset="0.38" stop-color="#FB9223" stop-opacity="0.26"/>
<stop offset="0.48" stop-color="#FB8620" stop-opacity="0.15"/>
<stop offset="0.58" stop-color="#FA7D1E" stop-opacity="0.07"/>
<stop offset="0.68" stop-color="#FA781C" stop-opacity="0.02"/>
<stop offset="0.77" stop-color="#FA761C" stop-opacity="0"/>
</radialGradient>
<radialGradient id="paint11_radial_160_116" cx="0" cy="0" r="1" gradientUnits="userSpaceOnUse" gradientTransform="translate(92.6402 11.431) rotate(126.146) scale(4.92743 7.19982)">
<stop stop-color="white"/>
<stop offset="0.1" stop-color="white" stop-opacity="0.85"/>
<stop offset="0.29" stop-color="white" stop-opacity="0.59"/>
<stop offset="0.47" stop-color="white" stop-opacity="0.38"/>
<stop offset="0.63" stop-color="white" stop-opacity="0.22"/>
<stop offset="0.78" stop-color="white" stop-opacity="0.1"/>
<stop offset="0.91" stop-color="white" stop-opacity="0.03"/>
<stop offset="1" stop-color="white" stop-opacity="0"/>
</radialGradient>
<radialGradient id="paint12_radial_160_116" cx="0" cy="0" r="1" gradientUnits="userSpaceOnUse" gradientTransform="translate(103.076 19.6868) rotate(126.146) scale(3.87359 5.65998)">
<stop stop-color="white"/>
<stop offset="0.1" stop-color="white" stop-opacity="0.85"/>
<stop offset="0.29" stop-color="white" stop-opacity="0.59"/>
<stop offset="0.47" stop-color="white" stop-opacity="0.38"/>
<stop offset="0.63" stop-color="white" stop-opacity="0.22"/>
<stop offset="0.78" stop-color="white" stop-opacity="0.1"/>
<stop offset="0.91" stop-color="white" stop-opacity="0.03"/>
<stop offset="1" stop-color="white" stop-opacity="0"/>
</radialGradient>
<radialGradient id="paint13_radial_160_116" cx="0" cy="0" r="1" gradientUnits="userSpaceOnUse" gradientTransform="translate(73.4725 35.5892) rotate(-25.5374) scale(1.98492 5.78537)">
<stop stop-color="white"/>
<stop offset="0.1" stop-color="white" stop-opacity="0.85"/>
<stop offset="0.29" stop-color="white" stop-opacity="0.59"/>
<stop offset="0.47" stop-color="white" stop-opacity="0.38"/>
<stop offset="0.63" stop-color="white" stop-opacity="0.22"/>
<stop offset="0.78" stop-color="white" stop-opacity="0.1"/>
<stop offset="0.91" stop-color="white" stop-opacity="0.03"/>
<stop offset="1" stop-color="white" stop-opacity="0"/>
</radialGradient>
<radialGradient id="paint14_radial_160_116" cx="0" cy="0" r="1" gradientUnits="userSpaceOnUse" gradientTransform="translate(25.41 89.4372) rotate(30) scale(9.89)">
<stop stop-color="#D0F2FF"/>
<stop offset="0.2" stop-color="#D5F3FF"/>
<stop offset="1" stop-color="#85BCF1"/>
</radialGradient>
<radialGradient id="paint15_radial_160_116" cx="0" cy="0" r="1" gradientUnits="userSpaceOnUse" gradientTransform="translate(40.3154 97.5268) rotate(155.956) scale(2.20645 3.23389)">
<stop stop-color="white"/>
<stop offset="0.1" stop-color="white" stop-opacity="0.85"/>
<stop offset="0.29" stop-color="white" stop-opacity="0.59"/>
<stop offset="0.47" stop-color="white" stop-opacity="0.38"/>
<stop offset="0.63" stop-color="white" stop-opacity="0.22"/>
<stop offset="0.78" stop-color="white" stop-opacity="0.1"/>
<stop offset="0.91" stop-color="white" stop-opacity="0.03"/>
<stop offset="1" stop-color="white" stop-opacity="0"/>
</radialGradient>
<radialGradient id="paint16_radial_160_116" cx="0" cy="0" r="1" gradientUnits="userSpaceOnUse" gradientTransform="translate(42.6051 89.4344) rotate(30) scale(9.89 9.89)">
<stop stop-color="#D0F2FF"/>
<stop offset="0.2" stop-color="#D5F3FF"/>
<stop offset="1" stop-color="#85BCF1"/>
</radialGradient>
<radialGradient id="paint17_radial_160_116" cx="0" cy="0" r="1" gradientUnits="userSpaceOnUse" gradientTransform="translate(57.4865 97.5422) rotate(155.956) scale(2.20645 3.23389)">
<stop stop-color="white"/>
<stop offset="0.1" stop-color="white" stop-opacity="0.85"/>
<stop offset="0.29" stop-color="white" stop-opacity="0.59"/>
<stop offset="0.47" stop-color="white" stop-opacity="0.38"/>
<stop offset="0.63" stop-color="white" stop-opacity="0.22"/>
<stop offset="0.78" stop-color="white" stop-opacity="0.1"/>
<stop offset="0.91" stop-color="white" stop-opacity="0.03"/>
<stop offset="1" stop-color="white" stop-opacity="0"/>
</radialGradient>
<radialGradient id="paint18_radial_160_116" cx="0" cy="0" r="1" gradientUnits="userSpaceOnUse" gradientTransform="translate(59.7951 89.4402) rotate(30) scale(9.89 9.89)">
<stop stop-color="#D0F2FF"/>
<stop offset="0.2" stop-color="#D5F3FF"/>
<stop offset="1" stop-color="#85BCF1"/>
</radialGradient>
<radialGradient id="paint19_radial_160_116" cx="0" cy="0" r="1" gradientUnits="userSpaceOnUse" gradientTransform="translate(74.65 97.5381) rotate(155.956) scale(2.20645 3.23389)">
<stop stop-color="white"/>
<stop offset="0.1" stop-color="white" stop-opacity="0.85"/>
<stop offset="0.29" stop-color="white" stop-opacity="0.59"/>
<stop offset="0.47" stop-color="white" stop-opacity="0.38"/>
<stop offset="0.63" stop-color="white" stop-opacity="0.22"/>
<stop offset="0.78" stop-color="white" stop-opacity="0.1"/>
<stop offset="0.91" stop-color="white" stop-opacity="0.03"/>
<stop offset="1" stop-color="white" stop-opacity="0"/>
</radialGradient>
<radialGradient id="paint20_radial_160_116" cx="0" cy="0" r="1" gradientUnits="userSpaceOnUse" gradientTransform="translate(76.9904 89.4374) rotate(30) scale(9.89 9.89)">
<stop stop-color="#D0F2FF"/>
<stop offset="0.2" stop-color="#D5F3FF"/>
<stop offset="1" stop-color="#85BCF1"/>
</radialGradient>
<radialGradient id="paint21_radial_160_116" cx="0" cy="0" r="1" gradientUnits="userSpaceOnUse" gradientTransform="translate(91.821 97.5535) rotate(155.956) scale(2.20645 3.23389)">
<stop stop-color="white"/>
<stop offset="0.1" stop-color="white" stop-opacity="0.85"/>
<stop offset="0.29" stop-color="white" stop-opacity="0.59"/>
<stop offset="0.47" stop-color="white" stop-opacity="0.38"/>
<stop offset="0.63" stop-color="white" stop-opacity="0.22"/>
<stop offset="0.78" stop-color="white" stop-opacity="0.1"/>
<stop offset="0.91" stop-color="white" stop-opacity="0.03"/>
<stop offset="1" stop-color="white" stop-opacity="0"/>
</radialGradient>
<clipPath id="clip0_160_116">
<rect width="106.77" height="92.43" fill="white"/>
</clipPath>
</defs>
</svg>
