<svg width="77" height="76" viewBox="0 0 77 76" fill="none" xmlns="http://www.w3.org/2000/svg">
<g clip-path="url(#clip0_160_159)">
<path d="M68.21 61.7L59.83 62.26L58.25 70.51L50.18 68.16L45.87 75.37L39.1 70.4L32.58 75.71L27.91 68.73L19.98 71.48L17.98 63.32L9.58 63.2L10.49 54.85L2.64 51.86L6.36 44.32L0 38.83L6.07 33.02L1.97 25.68L9.66 22.3L8.32 14.01L16.71 13.46L18.29 5.2L26.35 7.55L30.66 0.34L37.44 5.3L43.95 0L48.62 6.98L56.55 4.22L58.55 12.39L66.95 12.51L66.04 20.86L73.89 23.85L70.18 31.39L76.53 36.88L70.47 42.69L74.56 50.02L66.87 53.41L68.21 61.7Z" fill="url(#paint0_linear_160_159)"/>
<path d="M9.91992 37.8498C9.91795 43.4573 11.579 48.9395 14.6929 53.6029C17.8068 58.2664 22.2338 61.9016 27.4139 64.0489C32.594 66.1962 38.2946 66.759 43.7946 65.6662C49.2946 64.5735 54.347 61.8742 58.3129 57.9098C62.2787 53.9454 64.9798 48.8939 66.0745 43.3943C67.1692 37.8946 66.6083 32.1939 64.4629 27.013C62.3174 21.8321 58.6837 17.4039 54.0214 14.2883C49.359 11.1727 43.8774 9.50977 38.2699 9.50977C30.7528 9.50977 23.5434 12.4953 18.227 17.8098C12.9106 23.1242 9.92258 30.3326 9.91992 37.8498Z" fill="url(#paint1_radial_160_159)"/>
<path style="mix-blend-mode:overlay" d="M42.59 34.9398C35.37 29.0798 32.59 20.1698 36.29 15.0198C39.99 9.86982 48.92 10.4498 56.14 16.2998C63.36 22.1498 66.14 31.0798 62.44 36.2198C58.74 41.3598 49.8 40.7898 42.59 34.9398Z" fill="url(#paint2_radial_160_159)"/>
<path style="mix-blend-mode:overlay" opacity="0.4" d="M13.2099 44.1198C14.1699 40.9998 18.9999 42.2798 24.0799 46.9998C29.1599 51.7198 32.4299 58.1198 31.4799 61.2598C30.5299 64.3998 25.6699 63.0898 20.6199 58.3598C15.5699 53.6298 12.2599 47.2498 13.2099 44.1198Z" fill="url(#paint3_radial_160_159)"/>
</g>
<defs>
<linearGradient id="paint0_linear_160_159" x1="73.16" y1="-1.14" x2="5.9" y2="74.02" gradientUnits="userSpaceOnUse">
<stop stop-color="#FFBA24"/>
<stop offset="1" stop-color="#FF5500"/>
</linearGradient>
<radialGradient id="paint1_radial_160_159" cx="0" cy="0" r="1" gradientUnits="userSpaceOnUse" gradientTransform="translate(44.7499 20.0798) rotate(180) scale(53.81)">
<stop stop-color="#FFF4C3"/>
<stop offset="0.16" stop-color="#FFE036"/>
<stop offset="1" stop-color="#FA761C"/>
</radialGradient>
<radialGradient id="paint2_radial_160_159" cx="0" cy="0" r="1" gradientUnits="userSpaceOnUse" gradientTransform="translate(50.4524 16.6008) rotate(126.146) scale(11.5068 16.8135)">
<stop stop-color="white"/>
<stop offset="0.1" stop-color="white" stop-opacity="0.85"/>
<stop offset="0.29" stop-color="white" stop-opacity="0.59"/>
<stop offset="0.47" stop-color="white" stop-opacity="0.38"/>
<stop offset="0.63" stop-color="white" stop-opacity="0.22"/>
<stop offset="0.78" stop-color="white" stop-opacity="0.1"/>
<stop offset="0.91" stop-color="white" stop-opacity="0.03"/>
<stop offset="1" stop-color="white" stop-opacity="0"/>
</radialGradient>
<radialGradient id="paint3_radial_160_159" cx="0" cy="0" r="1" gradientUnits="userSpaceOnUse" gradientTransform="translate(12.0905 45.8507) rotate(-136.766) scale(12.5099 5.31705)">
<stop stop-color="white"/>
<stop offset="0.1" stop-color="white" stop-opacity="0.85"/>
<stop offset="0.29" stop-color="white" stop-opacity="0.59"/>
<stop offset="0.47" stop-color="white" stop-opacity="0.38"/>
<stop offset="0.63" stop-color="white" stop-opacity="0.22"/>
<stop offset="0.78" stop-color="white" stop-opacity="0.1"/>
<stop offset="0.91" stop-color="white" stop-opacity="0.03"/>
<stop offset="1" stop-color="white" stop-opacity="0"/>
</radialGradient>
<clipPath id="clip0_160_159">
<rect width="76.53" height="75.71" fill="white"/>
</clipPath>
</defs>
</svg>
