<svg width="107" height="76" viewBox="0 0 107 76" fill="none" xmlns="http://www.w3.org/2000/svg">
<g clip-path="url(#clip0_160_13)">
<path d="M85.4171 61.901L77.0163 62.4628L75.4324 70.7396L67.3423 68.382L63.0216 75.6155L56.2348 70.6293L49.6987 75.9566L45.0271 68.9539L37.0674 71.7128L35.0624 63.5262L26.6416 63.4058L27.5539 55.0286L19.6844 52.0289L23.4136 44.4643L17.0378 38.9565L23.1229 33.1275L19.0127 25.7636L26.7218 22.3726L25.3785 14.0556L33.7893 13.5038L35.3732 5.21694L43.4532 7.57459L47.7739 0.341107L54.5707 5.31726L61.0969 0L65.7785 7.00273L73.7281 4.23374L75.7331 12.4304L84.164 12.5507L83.2417 20.9279L91.1112 23.9277L87.3919 31.4922L93.7577 37.0001L87.6827 42.829L91.7828 50.1829L84.0737 53.584L85.4171 61.901Z" fill="url(#paint0_linear_160_13)"/>
<path d="M26.9827 37.9733C26.9807 43.5991 28.6458 49.0991 31.7675 53.7778C34.8891 58.4564 39.3271 62.1035 44.5201 64.2578C49.713 66.412 55.4277 66.9767 60.9414 65.8804C66.455 64.7841 71.52 62.076 75.4957 58.0987C79.4713 54.1213 82.1791 49.0534 83.2765 43.5359C84.3739 38.0183 83.8117 32.299 81.6609 27.1013C79.5101 21.9035 75.8674 17.4608 71.1935 14.3351C66.5196 11.2094 61.0244 9.54102 55.403 9.54102C47.8672 9.54102 40.6399 12.5362 35.3103 17.868C29.9808 23.1998 26.9853 30.4317 26.9827 37.9733Z" fill="url(#paint1_radial_160_13)"/>
<path style="mix-blend-mode:overlay" d="M59.7335 35.0537C52.4956 29.1747 49.7087 20.2356 53.4179 15.0689C57.127 9.90209 66.0792 10.484 73.3171 16.353C80.555 22.2221 83.3419 31.1812 79.6327 36.3379C75.9236 41.4947 66.9614 40.9228 59.7335 35.0537Z" fill="url(#paint2_radial_160_13)"/>
<path style="mix-blend-mode:overlay" opacity="0.4" d="M30.2809 44.264C31.2433 41.1339 36.1655 42.418 41.1779 47.1534C46.1903 51.8888 49.5486 58.3096 48.5962 61.4598C47.6439 64.6101 42.7718 63.2958 37.7093 58.5504C32.6467 53.805 29.3285 47.4042 30.2809 44.264Z" fill="url(#paint3_radial_160_13)"/>
<path d="M38.6614 54.6774C38.4082 51.0706 36.798 47.694 34.1553 45.2285C31.5126 42.7631 28.0341 41.3921 24.4212 41.3921C20.8083 41.3921 17.3297 42.7631 14.687 45.2285C12.0443 47.694 10.4341 51.0706 10.1809 54.6774C7.39542 54.7969 4.76816 56.0061 2.86467 58.0449C0.961186 60.0836 -0.0663238 62.7888 0.00332295 65.5781C0.0729697 68.3675 1.2342 71.0179 3.23706 72.959C5.23992 74.9 7.92425 75.9764 10.7122 75.9565H38.1702C40.9594 75.9796 43.6461 74.9054 45.6514 72.9651C47.6567 71.0248 48.8202 68.3738 48.8912 65.5832C48.9622 62.7927 47.935 60.0859 46.0309 58.046C44.1269 56.0061 41.4983 54.7964 38.7115 54.6774H38.6614Z" fill="url(#paint4_radial_160_13)"/>
<path d="M38.6614 54.6774C38.4082 51.0706 36.798 47.694 34.1553 45.2285C31.5126 42.7631 28.0341 41.3921 24.4212 41.3921C20.8083 41.3921 17.3297 42.7631 14.687 45.2285C12.0443 47.694 10.4341 51.0706 10.1809 54.6774C7.39542 54.7969 4.76816 56.0061 2.86467 58.0449C0.961186 60.0836 -0.0663238 62.7888 0.00332295 65.5781C0.0729697 68.3675 1.2342 71.0179 3.23706 72.959C5.23992 74.9 7.92425 75.9764 10.7122 75.9565H38.1702C40.9594 75.9796 43.6461 74.9054 45.6514 72.9651C47.6567 71.0248 48.8202 68.3738 48.8912 65.5832C48.9622 62.7927 47.935 60.0859 46.0309 58.046C44.1269 56.0061 41.4983 54.7964 38.7115 54.6774H38.6614Z" fill="url(#paint5_radial_160_13)"/>
<path style="mix-blend-mode:overlay" d="M24.4164 56.0016C20.4065 52.751 18.8526 47.805 20.9278 44.9658C23.0029 42.1265 27.9451 42.4375 31.9551 45.6781C35.965 48.9186 37.5289 53.8847 35.4537 56.7139C33.3786 59.5431 28.4263 59.2521 24.4164 56.0016Z" fill="url(#paint6_radial_160_13)"/>
<path style="mix-blend-mode:overlay" opacity="0.4" d="M38.7317 65.6129C35.5839 63.0646 34.3609 59.172 35.9849 56.9247C37.6089 54.6774 41.4985 54.9182 44.6463 57.4865C47.7941 60.0548 49.0172 63.9274 47.3831 66.1747C45.7491 68.422 41.8795 68.2214 38.7317 65.6129Z" fill="url(#paint7_radial_160_13)"/>
<path style="mix-blend-mode:overlay" opacity="0.2" d="M7.68488 65.9738C5.35912 62.3421 2.67247 60.5964 1.66999 62.0712C0.667512 63.546 1.73014 67.6693 4.04587 71.3011C6.3616 74.9329 9.09838 76.6686 10.1009 75.2439C11.1033 73.8193 10.0006 69.5956 7.68488 65.9738Z" fill="url(#paint8_radial_160_13)"/>
<path d="M99.3215 24.7204C99.3215 21.7935 98.1597 18.9865 96.0917 16.9169C94.0236 14.8473 91.2188 13.6846 88.2942 13.6846C85.3696 13.6846 82.5647 14.8473 80.4967 16.9169C78.4287 18.9865 77.2669 21.7935 77.2669 24.7204C75.1465 24.8644 73.1636 25.8228 71.7325 27.3953C70.3015 28.9678 69.5328 31.0329 69.5872 33.1591C69.6415 35.2854 70.5146 37.3084 72.0242 38.8056C73.5337 40.3029 75.5629 41.1585 77.6879 41.1939H98.8804C101.007 41.1627 103.038 40.3102 104.551 38.8147C106.064 37.3191 106.94 35.2962 106.997 33.1689C107.054 31.0416 106.287 28.9746 104.857 27.4001C103.426 25.8256 101.443 24.8655 99.3215 24.7204Z" fill="url(#paint9_radial_160_13)"/>
<path d="M99.3215 24.7204C99.3215 21.7935 98.1597 18.9865 96.0917 16.9169C94.0236 14.8473 91.2188 13.6846 88.2942 13.6846C85.3696 13.6846 82.5647 14.8473 80.4967 16.9169C78.4287 18.9865 77.2669 21.7935 77.2669 24.7204C75.1465 24.8644 73.1636 25.8228 71.7325 27.3953C70.3015 28.9678 69.5328 31.0329 69.5872 33.1591C69.6415 35.2854 70.5146 37.3084 72.0242 38.8056C73.5337 40.3029 75.5629 41.1585 77.6879 41.1939H98.8804C101.007 41.1627 103.038 40.3102 104.551 38.8147C106.064 37.3191 106.94 35.2962 106.997 33.1689C107.054 31.0416 106.287 28.9746 104.857 27.4001C103.426 25.8256 101.443 24.8655 99.3215 24.7204Z" fill="url(#paint10_radial_160_13)"/>
<path style="mix-blend-mode:overlay" d="M88.2945 25.7436C85.1968 23.2255 83.9838 19.393 85.5978 17.1859C87.2118 14.9787 91.0212 15.1794 94.1189 17.7377C97.2166 20.296 98.4296 24.0883 96.8256 26.2954C95.2216 28.5026 91.3721 28.2618 88.2945 25.7436Z" fill="url(#paint11_radial_160_13)"/>
<path style="mix-blend-mode:overlay" opacity="0.4" d="M99.3216 33.1877C96.8856 31.1812 95.9332 28.1714 97.1963 26.4558C98.4595 24.7403 101.457 24.9108 103.893 26.8872C106.329 28.8636 107.281 31.9035 106.018 33.6191C104.755 35.3346 101.788 35.1139 99.3216 33.1877Z" fill="url(#paint12_radial_160_13)"/>
<path style="mix-blend-mode:overlay" opacity="0.2" d="M75.3125 33.459C73.508 30.6499 71.4229 29.3055 70.6409 30.4492C69.859 31.5929 70.6409 34.7833 72.4855 37.5924C74.3301 40.4015 76.3651 41.7559 77.147 40.6022C77.929 39.4484 77.1069 36.2681 75.3125 33.459Z" fill="url(#paint13_radial_160_13)"/>
</g>
<defs>
<linearGradient id="paint0_linear_160_13" x1="90.3793" y1="-1.14371" x2="22.8945" y2="74.2092" gradientUnits="userSpaceOnUse">
<stop stop-color="#FFBA24"/>
<stop offset="1" stop-color="#FF5500"/>
</linearGradient>
<radialGradient id="paint1_radial_160_13" cx="0" cy="0" r="1" gradientUnits="userSpaceOnUse" gradientTransform="translate(61.8991 20.1454) rotate(180) scale(53.9435 53.9853)">
<stop stop-color="#FFF4C3"/>
<stop offset="0.16" stop-color="#FFE036"/>
<stop offset="1" stop-color="#FA761C"/>
</radialGradient>
<radialGradient id="paint2_radial_160_13" cx="0" cy="0" r="1" gradientUnits="userSpaceOnUse" gradientTransform="translate(68.5026 18.851) rotate(126.125) scale(11.5412 16.8597)">
<stop stop-color="white"/>
<stop offset="0.1" stop-color="white" stop-opacity="0.85"/>
<stop offset="0.29" stop-color="white" stop-opacity="0.59"/>
<stop offset="0.47" stop-color="white" stop-opacity="0.38"/>
<stop offset="0.63" stop-color="white" stop-opacity="0.22"/>
<stop offset="0.78" stop-color="white" stop-opacity="0.1"/>
<stop offset="0.91" stop-color="white" stop-opacity="0.03"/>
<stop offset="1" stop-color="white" stop-opacity="0"/>
</radialGradient>
<radialGradient id="paint3_radial_160_13" cx="0" cy="0" r="1" gradientUnits="userSpaceOnUse" gradientTransform="translate(26.5902 44.4587) rotate(-136.744) scale(12.5455 5.33243)">
<stop stop-color="white"/>
<stop offset="0.1" stop-color="white" stop-opacity="0.85"/>
<stop offset="0.29" stop-color="white" stop-opacity="0.59"/>
<stop offset="0.47" stop-color="white" stop-opacity="0.38"/>
<stop offset="0.63" stop-color="white" stop-opacity="0.22"/>
<stop offset="0.78" stop-color="white" stop-opacity="0.1"/>
<stop offset="0.91" stop-color="white" stop-opacity="0.03"/>
<stop offset="1" stop-color="white" stop-opacity="0"/>
</radialGradient>
<radialGradient id="paint4_radial_160_13" cx="0" cy="0" r="1" gradientUnits="userSpaceOnUse" gradientTransform="translate(30.5513 48.6957) rotate(180) scale(37.1319 27.1273)">
<stop stop-color="white"/>
<stop offset="0.2" stop-color="#D5F3FF"/>
<stop offset="1" stop-color="#85BCF1"/>
</radialGradient>
<radialGradient id="paint5_radial_160_13" cx="0" cy="0" r="1" gradientUnits="userSpaceOnUse" gradientTransform="translate(38.9822 53.5137) scale(42.2145 42.2472)">
<stop stop-color="#FFE036"/>
<stop offset="0.08" stop-color="#FECB31" stop-opacity="0.81"/>
<stop offset="0.18" stop-color="#FDB52B" stop-opacity="0.6"/>
<stop offset="0.28" stop-color="#FCA227" stop-opacity="0.41"/>
<stop offset="0.38" stop-color="#FB9223" stop-opacity="0.26"/>
<stop offset="0.48" stop-color="#FB8620" stop-opacity="0.15"/>
<stop offset="0.58" stop-color="#FA7D1E" stop-opacity="0.07"/>
<stop offset="0.68" stop-color="#FA781C" stop-opacity="0.02"/>
<stop offset="0.77" stop-color="#FA761C" stop-opacity="0"/>
</radialGradient>
<radialGradient id="paint6_radial_160_13" cx="0" cy="0" r="1" gradientUnits="userSpaceOnUse" gradientTransform="translate(30.1255 43.8959) rotate(126.125) scale(6.3848 9.32709)">
<stop stop-color="white"/>
<stop offset="0.1" stop-color="white" stop-opacity="0.85"/>
<stop offset="0.29" stop-color="white" stop-opacity="0.59"/>
<stop offset="0.47" stop-color="white" stop-opacity="0.38"/>
<stop offset="0.63" stop-color="white" stop-opacity="0.22"/>
<stop offset="0.78" stop-color="white" stop-opacity="0.1"/>
<stop offset="0.91" stop-color="white" stop-opacity="0.03"/>
<stop offset="1" stop-color="white" stop-opacity="0"/>
</radialGradient>
<radialGradient id="paint7_radial_160_13" cx="0" cy="0" r="1" gradientUnits="userSpaceOnUse" gradientTransform="translate(43.6415 54.5772) rotate(126.125) scale(5.01357 7.32395)">
<stop stop-color="white"/>
<stop offset="0.1" stop-color="white" stop-opacity="0.85"/>
<stop offset="0.29" stop-color="white" stop-opacity="0.59"/>
<stop offset="0.47" stop-color="white" stop-opacity="0.38"/>
<stop offset="0.63" stop-color="white" stop-opacity="0.22"/>
<stop offset="0.78" stop-color="white" stop-opacity="0.1"/>
<stop offset="0.91" stop-color="white" stop-opacity="0.03"/>
<stop offset="1" stop-color="white" stop-opacity="0"/>
</radialGradient>
<radialGradient id="paint8_radial_160_13" cx="0" cy="0" r="1" gradientUnits="userSpaceOnUse" gradientTransform="translate(5.65947 68.445) rotate(-25.5547) scale(2.57017 7.49482)">
<stop stop-color="white"/>
<stop offset="0.1" stop-color="white" stop-opacity="0.85"/>
<stop offset="0.29" stop-color="white" stop-opacity="0.59"/>
<stop offset="0.47" stop-color="white" stop-opacity="0.38"/>
<stop offset="0.63" stop-color="white" stop-opacity="0.22"/>
<stop offset="0.78" stop-color="white" stop-opacity="0.1"/>
<stop offset="0.91" stop-color="white" stop-opacity="0.03"/>
<stop offset="1" stop-color="white" stop-opacity="0"/>
</radialGradient>
<radialGradient id="paint9_radial_160_13" cx="0" cy="0" r="1" gradientUnits="userSpaceOnUse" gradientTransform="translate(93.0259 20.0753) rotate(180) scale(28.7511 21.0046)">
<stop stop-color="white"/>
<stop offset="0.2" stop-color="#D5F3FF"/>
<stop offset="1" stop-color="#85BCF1"/>
</radialGradient>
<radialGradient id="paint10_radial_160_13" cx="0" cy="0" r="1" gradientUnits="userSpaceOnUse" gradientTransform="translate(74.2394 29.9474) scale(38.4251 38.4548)">
<stop stop-color="#FFE036"/>
<stop offset="0.08" stop-color="#FECB31" stop-opacity="0.81"/>
<stop offset="0.18" stop-color="#FDB52B" stop-opacity="0.6"/>
<stop offset="0.28" stop-color="#FCA227" stop-opacity="0.41"/>
<stop offset="0.38" stop-color="#FB9223" stop-opacity="0.26"/>
<stop offset="0.48" stop-color="#FB8620" stop-opacity="0.15"/>
<stop offset="0.58" stop-color="#FA7D1E" stop-opacity="0.07"/>
<stop offset="0.68" stop-color="#FA781C" stop-opacity="0.02"/>
<stop offset="0.77" stop-color="#FA761C" stop-opacity="0"/>
</radialGradient>
<radialGradient id="paint11_radial_160_13" cx="0" cy="0" r="1" gradientUnits="userSpaceOnUse" gradientTransform="translate(93.182 14.9103) rotate(126.125) scale(4.94215 7.21963)">
<stop stop-color="white"/>
<stop offset="0.1" stop-color="white" stop-opacity="0.85"/>
<stop offset="0.29" stop-color="white" stop-opacity="0.59"/>
<stop offset="0.47" stop-color="white" stop-opacity="0.38"/>
<stop offset="0.63" stop-color="white" stop-opacity="0.22"/>
<stop offset="0.78" stop-color="white" stop-opacity="0.1"/>
<stop offset="0.91" stop-color="white" stop-opacity="0.03"/>
<stop offset="1" stop-color="white" stop-opacity="0"/>
</radialGradient>
<radialGradient id="paint12_radial_160_13" cx="0" cy="0" r="1" gradientUnits="userSpaceOnUse" gradientTransform="translate(103.643 23.1929) rotate(126.125) scale(3.88516 5.67554)">
<stop stop-color="white"/>
<stop offset="0.1" stop-color="white" stop-opacity="0.85"/>
<stop offset="0.29" stop-color="white" stop-opacity="0.59"/>
<stop offset="0.47" stop-color="white" stop-opacity="0.38"/>
<stop offset="0.63" stop-color="white" stop-opacity="0.22"/>
<stop offset="0.78" stop-color="white" stop-opacity="0.1"/>
<stop offset="0.91" stop-color="white" stop-opacity="0.03"/>
<stop offset="1" stop-color="white" stop-opacity="0"/>
</radialGradient>
<radialGradient id="paint13_radial_160_13" cx="0" cy="0" r="1" gradientUnits="userSpaceOnUse" gradientTransform="translate(73.7312 35.7053) rotate(-25.5547) scale(1.99013 5.80338)">
<stop stop-color="white"/>
<stop offset="0.1" stop-color="white" stop-opacity="0.85"/>
<stop offset="0.29" stop-color="white" stop-opacity="0.59"/>
<stop offset="0.47" stop-color="white" stop-opacity="0.38"/>
<stop offset="0.63" stop-color="white" stop-opacity="0.22"/>
<stop offset="0.78" stop-color="white" stop-opacity="0.1"/>
<stop offset="0.91" stop-color="white" stop-opacity="0.03"/>
<stop offset="1" stop-color="white" stop-opacity="0"/>
</radialGradient>
<clipPath id="clip0_160_13">
<rect width="106.77" height="75.71" fill="white"/>
</clipPath>
</defs>
</svg>
