<svg width="163" height="88" viewBox="0 0 163 88" fill="none" xmlns="http://www.w3.org/2000/svg">
<g clip-path="url(#clip0_120_37)">
<path d="M62.4145 21.2689C62.0155 15.4916 59.4154 10.0798 55.1395 6.12717C50.8636 2.17457 45.2309 -0.0239258 39.3801 -0.0239258C33.5292 -0.0239258 27.8966 2.17457 23.6207 6.12717C19.3448 10.0798 16.7446 15.4916 16.3457 21.2689C11.8231 21.4368 7.54938 23.3616 4.45065 26.6264C1.35192 29.8911 -0.32229 34.2328 -0.209223 38.7107C-0.0961569 43.1886 1.79508 47.4421 5.05471 50.5496C8.31434 53.6571 12.6798 55.3683 17.2053 55.3124H61.528C66.0584 55.3794 70.4326 53.6751 73.701 50.5694C76.9694 47.4637 78.8681 43.2074 78.9848 38.7246C79.1016 34.2417 77.4269 29.8943 74.3245 26.6261C71.2221 23.3579 66.9423 21.4329 62.4145 21.2689Z" fill="url(#paint0_radial_120_37)"/>
<path style="mix-blend-mode:overlay" d="M39.3801 23.3957C32.9063 18.1981 30.3679 10.2754 33.7256 5.70261C37.0834 1.1298 45.0615 1.7147 51.5487 6.84582C58.0359 11.9769 60.5476 19.9794 57.1898 24.5389C53.832 29.0984 45.8539 28.5933 39.3801 23.3957Z" fill="url(#paint1_radial_120_37)"/>
<path style="mix-blend-mode:overlay" opacity="0.4" d="M62.5354 38.7757C57.4451 34.6815 55.4572 28.4603 58.0897 24.8712C60.7222 21.2821 67.008 21.6809 72.0984 25.7618C77.1888 29.8428 79.2438 36.0772 76.5575 39.6664C73.8713 43.2555 67.6258 42.8567 62.5354 38.7757Z" fill="url(#paint2_radial_120_37)"/>
<path style="mix-blend-mode:overlay" opacity="0.2" d="M12.3029 39.3474C8.54218 33.5383 4.17707 30.7468 2.5519 33.0997C0.926739 35.4525 2.68622 42.0592 6.3932 47.8549C10.1002 53.6507 14.519 56.4555 16.1173 54.1027C17.7156 51.7498 16.1173 45.1963 12.3029 39.3474Z" fill="url(#paint3_radial_120_37)"/>
<path d="M146.654 21.2689C146.256 15.4916 143.655 10.0798 139.379 6.12717C135.104 2.17457 129.471 -0.0239258 123.62 -0.0239258C117.769 -0.0239258 112.137 2.17457 107.861 6.12717C103.585 10.0798 100.985 15.4916 100.586 21.2689C96.0631 21.4368 91.7894 23.3616 88.6906 26.6264C85.5919 29.8911 83.9177 34.2328 84.0308 38.7107C84.1438 43.1886 86.0351 47.4421 89.2947 50.5496C92.5543 53.6571 96.9198 55.3683 101.445 55.3124H145.768C150.298 55.3794 154.673 53.6751 157.941 50.5694C161.209 47.4637 163.108 43.2074 163.225 38.7246C163.342 34.2417 161.667 29.8943 158.564 26.6261C155.462 23.3579 151.182 21.4329 146.654 21.2689Z" fill="url(#paint4_radial_120_37)"/>
<path style="mix-blend-mode:overlay" d="M123.566 23.3957C117.079 18.1981 114.554 10.2754 117.912 5.70261C121.27 1.1298 129.248 1.7147 135.721 6.84582C142.195 11.9769 144.787 19.9395 141.43 24.5389C138.072 29.1383 130.094 28.5933 123.566 23.3957Z" fill="url(#paint5_radial_120_37)"/>
<path style="mix-blend-mode:overlay" opacity="0.4" d="M146.775 38.7757C141.685 34.6815 139.697 28.4603 142.329 24.8712C144.962 21.2821 151.234 21.6809 156.338 25.7618C161.442 29.8428 163.403 36.0772 160.77 39.6664C158.138 43.2555 151.866 42.8567 146.775 38.7757Z" fill="url(#paint6_radial_120_37)"/>
<path style="mix-blend-mode:overlay" opacity="0.2" d="M96.543 39.3474C92.7823 33.5383 88.4843 30.7468 86.7786 33.0997C85.0728 35.4525 86.8726 42.0592 90.6333 47.8682C94.394 53.6773 98.692 56.4555 100.384 54.1027C102.077 51.7498 100.29 45.1963 96.543 39.3474Z" fill="url(#paint7_radial_120_37)"/>
<path d="M109.316 46.8843C108.85 39.8949 105.716 33.3422 100.55 28.555C95.3834 23.7677 88.5708 21.104 81.4934 21.104C74.416 21.104 67.6034 23.7677 62.4369 28.555C57.2704 33.3422 54.1366 39.8949 53.6709 46.8843C48.1742 47.0394 42.9639 49.3446 39.1814 53.2948C35.3989 57.2451 33.3528 62.5182 33.4915 67.9588C33.6301 73.3994 35.9421 78.5637 39.921 82.3202C43.8998 86.0768 49.221 88.1191 54.7185 87.9997H108.282C113.773 88.1068 119.083 86.058 123.052 82.3011C127.021 78.5443 129.326 73.385 129.463 67.9512C129.599 62.5174 127.557 57.251 123.781 53.3033C120.006 49.3557 114.805 47.0478 109.316 46.8843Z" fill="url(#paint8_radial_120_37)"/>
<path style="mix-blend-mode:overlay" d="M81.5 49.4503C73.6697 43.1627 70.6208 33.5917 74.677 28.0751C78.7332 22.5585 88.3633 23.1832 96.1668 29.4044C103.97 35.6255 107.033 45.2497 102.99 50.7663C98.9471 56.2829 89.3169 55.7246 81.5 49.4503Z" fill="url(#paint9_radial_120_37)"/>
<path style="mix-blend-mode:overlay" opacity="0.4" d="M109.464 68.0072C103.312 63.0755 100.921 55.5516 104.091 51.2181C107.261 46.8845 114.836 47.3631 121.001 52.3081C127.166 57.2531 129.543 64.7504 126.373 69.0839C123.204 73.4175 115.615 72.9389 109.464 68.0072Z" fill="url(#paint10_radial_120_37)"/>
<path style="mix-blend-mode:overlay" opacity="0.2" d="M48.7952 68.6983C44.3227 61.6929 38.9502 58.3298 37.0161 61.1479C35.082 63.966 37.1236 71.9684 41.6633 78.9739C46.203 85.9793 51.4814 89.3557 53.4424 86.511C55.4033 83.6663 53.3349 75.7702 48.7952 68.6983Z" fill="url(#paint11_radial_120_37)"/>
</g>
<defs>
<radialGradient id="paint0_radial_120_37" cx="0" cy="0" r="1" gradientUnits="userSpaceOnUse" gradientTransform="translate(49.3191 11.6685) rotate(180) scale(60.0774 43.4057)">
<stop stop-color="white"/>
<stop offset="0.2" stop-color="#B4ECFF"/>
<stop offset="1" stop-color="#69ACF1"/>
</radialGradient>
<radialGradient id="paint1_radial_120_37" cx="0" cy="0" r="1" gradientUnits="userSpaceOnUse" gradientTransform="translate(47.6338 3.82976) rotate(126.428) scale(10.2597 15.0376)">
<stop stop-color="white"/>
<stop offset="0.1" stop-color="white" stop-opacity="0.85"/>
<stop offset="0.29" stop-color="white" stop-opacity="0.59"/>
<stop offset="0.47" stop-color="white" stop-opacity="0.38"/>
<stop offset="0.63" stop-color="white" stop-opacity="0.22"/>
<stop offset="0.78" stop-color="white" stop-opacity="0.1"/>
<stop offset="0.91" stop-color="white" stop-opacity="0.03"/>
<stop offset="1" stop-color="white" stop-opacity="0"/>
</radialGradient>
<radialGradient id="paint2_radial_120_37" cx="0" cy="0" r="1" gradientUnits="userSpaceOnUse" gradientTransform="translate(69.5075 20.9468) rotate(126.428) scale(8.05577 11.8073)">
<stop stop-color="white"/>
<stop offset="0.1" stop-color="white" stop-opacity="0.85"/>
<stop offset="0.29" stop-color="white" stop-opacity="0.59"/>
<stop offset="0.47" stop-color="white" stop-opacity="0.38"/>
<stop offset="0.63" stop-color="white" stop-opacity="0.22"/>
<stop offset="0.78" stop-color="white" stop-opacity="0.1"/>
<stop offset="0.91" stop-color="white" stop-opacity="0.03"/>
<stop offset="1" stop-color="white" stop-opacity="0"/>
</radialGradient>
<radialGradient id="paint3_radial_120_37" cx="0" cy="0" r="1" gradientUnits="userSpaceOnUse" gradientTransform="translate(9.21642 43.4991) rotate(-25.3079) scale(4.14511 12.0031)">
<stop stop-color="white"/>
<stop offset="0.1" stop-color="white" stop-opacity="0.85"/>
<stop offset="0.29" stop-color="white" stop-opacity="0.59"/>
<stop offset="0.47" stop-color="white" stop-opacity="0.38"/>
<stop offset="0.63" stop-color="white" stop-opacity="0.22"/>
<stop offset="0.78" stop-color="white" stop-opacity="0.1"/>
<stop offset="0.91" stop-color="white" stop-opacity="0.03"/>
<stop offset="1" stop-color="white" stop-opacity="0"/>
</radialGradient>
<radialGradient id="paint4_radial_120_37" cx="0" cy="0" r="1" gradientUnits="userSpaceOnUse" gradientTransform="translate(133.546 11.6685) rotate(180) scale(60.0774 43.4057)">
<stop stop-color="white"/>
<stop offset="0.2" stop-color="#B4ECFF"/>
<stop offset="1" stop-color="#69ACF1"/>
</radialGradient>
<radialGradient id="paint5_radial_120_37" cx="0" cy="0" r="1" gradientUnits="userSpaceOnUse" gradientTransform="translate(131.944 3.87655) rotate(126.428) scale(10.2597 15.0376)">
<stop stop-color="white"/>
<stop offset="0.1" stop-color="white" stop-opacity="0.85"/>
<stop offset="0.29" stop-color="white" stop-opacity="0.59"/>
<stop offset="0.47" stop-color="white" stop-opacity="0.38"/>
<stop offset="0.63" stop-color="white" stop-opacity="0.22"/>
<stop offset="0.78" stop-color="white" stop-opacity="0.1"/>
<stop offset="0.91" stop-color="white" stop-opacity="0.03"/>
<stop offset="1" stop-color="white" stop-opacity="0"/>
</radialGradient>
<radialGradient id="paint6_radial_120_37" cx="0" cy="0" r="1" gradientUnits="userSpaceOnUse" gradientTransform="translate(153.818 20.9936) rotate(126.428) scale(8.05577 11.8073)">
<stop stop-color="white"/>
<stop offset="0.1" stop-color="white" stop-opacity="0.85"/>
<stop offset="0.29" stop-color="white" stop-opacity="0.59"/>
<stop offset="0.47" stop-color="white" stop-opacity="0.38"/>
<stop offset="0.63" stop-color="white" stop-opacity="0.22"/>
<stop offset="0.78" stop-color="white" stop-opacity="0.1"/>
<stop offset="0.91" stop-color="white" stop-opacity="0.03"/>
<stop offset="1" stop-color="white" stop-opacity="0"/>
</radialGradient>
<radialGradient id="paint7_radial_120_37" cx="0" cy="0" r="1" gradientUnits="userSpaceOnUse" gradientTransform="translate(93.3598 43.8186) rotate(-25.3079) scale(4.14511 12.0031)">
<stop stop-color="white"/>
<stop offset="0.1" stop-color="white" stop-opacity="0.85"/>
<stop offset="0.29" stop-color="white" stop-opacity="0.59"/>
<stop offset="0.47" stop-color="white" stop-opacity="0.38"/>
<stop offset="0.63" stop-color="white" stop-opacity="0.22"/>
<stop offset="0.78" stop-color="white" stop-opacity="0.1"/>
<stop offset="0.91" stop-color="white" stop-opacity="0.03"/>
<stop offset="1" stop-color="white" stop-opacity="0"/>
</radialGradient>
<radialGradient id="paint8_radial_120_37" cx="0" cy="0" r="1" gradientUnits="userSpaceOnUse" gradientTransform="translate(93.4941 35.2836) rotate(180) scale(72.5549 52.4206)">
<stop stop-color="white"/>
<stop offset="0.2" stop-color="#D5F3FF"/>
<stop offset="1" stop-color="#85BCF1"/>
</radialGradient>
<radialGradient id="paint9_radial_120_37" cx="0" cy="0" r="1" gradientUnits="userSpaceOnUse" gradientTransform="translate(91.041 28.114) rotate(126.428) scale(12.3876 18.1566)">
<stop stop-color="white"/>
<stop offset="0.1" stop-color="white" stop-opacity="0.85"/>
<stop offset="0.29" stop-color="white" stop-opacity="0.59"/>
<stop offset="0.47" stop-color="white" stop-opacity="0.38"/>
<stop offset="0.63" stop-color="white" stop-opacity="0.22"/>
<stop offset="0.78" stop-color="white" stop-opacity="0.1"/>
<stop offset="0.91" stop-color="white" stop-opacity="0.03"/>
<stop offset="1" stop-color="white" stop-opacity="0"/>
</radialGradient>
<radialGradient id="paint10_radial_120_37" cx="0" cy="0" r="1" gradientUnits="userSpaceOnUse" gradientTransform="translate(117.464 48.7744) rotate(126.428) scale(9.72772 14.2579)">
<stop stop-color="white"/>
<stop offset="0.1" stop-color="white" stop-opacity="0.85"/>
<stop offset="0.29" stop-color="white" stop-opacity="0.59"/>
<stop offset="0.47" stop-color="white" stop-opacity="0.38"/>
<stop offset="0.63" stop-color="white" stop-opacity="0.22"/>
<stop offset="0.78" stop-color="white" stop-opacity="0.1"/>
<stop offset="0.91" stop-color="white" stop-opacity="0.03"/>
<stop offset="1" stop-color="white" stop-opacity="0"/>
</radialGradient>
<radialGradient id="paint11_radial_120_37" cx="0" cy="0" r="1" gradientUnits="userSpaceOnUse" gradientTransform="translate(44.9741 73.7877) rotate(-25.3079) scale(5.01425 14.5198)">
<stop stop-color="white"/>
<stop offset="0.1" stop-color="white" stop-opacity="0.85"/>
<stop offset="0.29" stop-color="white" stop-opacity="0.59"/>
<stop offset="0.47" stop-color="white" stop-opacity="0.38"/>
<stop offset="0.63" stop-color="white" stop-opacity="0.22"/>
<stop offset="0.78" stop-color="white" stop-opacity="0.1"/>
<stop offset="0.91" stop-color="white" stop-opacity="0.03"/>
<stop offset="1" stop-color="white" stop-opacity="0"/>
</radialGradient>
<clipPath id="clip0_120_37">
<rect width="163" height="88" fill="white"/>
</clipPath>
</defs>
</svg>
