<svg xmlns="http://www.w3.org/2000/svg" viewBox="0 0 161.99 179.15"><defs><style>.cls-1{isolation:isolate;}.cls-10,.cls-11,.cls-13,.cls-2,.cls-3,.cls-8{fill:#034263;}.cls-13,.cls-2,.cls-21,.cls-3{mix-blend-mode:overlay;}.cls-2{opacity:0.18;}.cls-3{opacity:0.42;}.cls-14,.cls-17,.cls-22,.cls-23,.cls-24,.cls-4{mix-blend-mode:lighten;}.cls-5{fill:#023a58;}.cls-21,.cls-6{fill:#023f60;}.cls-7{opacity:0.76;}.cls-24,.cls-8{opacity:0.75;}.cls-9{fill:#01121b;mix-blend-mode:color-burn;opacity:0.15;}.cls-10{opacity:0.51;}.cls-11{opacity:0.41;}.cls-12{opacity:0.67;}.cls-13{opacity:0.31;}.cls-14{opacity:0.61;}.cls-15{fill:#023d5c;}.cls-16{opacity:0.68;}.cls-17{opacity:0.48;}.cls-18{opacity:0.93;}.cls-19{fill:#023753;}.cls-20{fill:#02314b;opacity:0.36;}.cls-20,.cls-28,.cls-31{mix-blend-mode:multiply;}.cls-21{opacity:0.73;}.cls-22,.cls-30{opacity:0.5;}.cls-23{opacity:0.47;}.cls-25{fill:#3d5760;}.cls-26,.cls-27,.cls-28,.cls-31{fill:#8596a0;}.cls-27,.cls-33{mix-blend-mode:screen;}.cls-28{opacity:0.2;}.cls-29{fill:#273a40;}.cls-32{fill:#5d6a70;}</style></defs><g class="cls-1"><g id="Layer_2" data-name="Layer 2"><g id="tornado"><path class="cls-2" d="M58,177.06s2.08-.39-.34-.41-3.56.09-2.32-.22-1.29-.08-2.46.16,3.28.42,1.31.6S59.22,177.76,58,177.06Z"/><path class="cls-3" d="M55.49,176.81a16.58,16.58,0,0,1,2.45,0c.17.13-1.56.24-.57.33s-.65.28-1.4.25-1.47-.14-.14-.25S53.45,176.9,55.49,176.81Z"/><path class="cls-3" d="M54.08,176.65s1.3-.31.28-.2S53.2,176.72,54.08,176.65Z"/><g class="cls-4"><path class="cls-5" d="M55.49,176.14s-2.11-2.2-4.05-1.53S54.05,175.15,55.49,176.14Z"/><path class="cls-6" d="M52.83,175c-.73-.27-.72-.43-.51-.52a4.62,4.62,0,0,1,2.43,1A5.87,5.87,0,0,1,52.83,175Z"/></g><g class="cls-4"><path class="cls-5" d="M56,176.16a4.44,4.44,0,0,1,2.72-1C60.08,175.27,57,175.78,56,176.16Z"/><path class="cls-6" d="M57.59,175.56a2,2,0,0,1-1,.18,4.13,4.13,0,0,1,1.84-.6C58.44,175.22,58.19,175.35,57.59,175.56Z"/></g><g class="cls-4"><path class="cls-5" d="M56.83,174.89a3.07,3.07,0,0,1,2-1C59.91,173.88,57.5,174.53,56.83,174.89Z"/><path class="cls-6" d="M58,174.31a1.64,1.64,0,0,1-.73.22,3,3,0,0,1,1.36-.63C58.56,174,58.4,174.1,58,174.31Z"/></g><g class="cls-7"><path class="cls-8" d="M57.14,176.44s3.93.5,1.61.66-2.43.3-.88.37.64.38-1.75.43,1.65.08,2.56-.14-2.54-.41-.86-.5S61.52,176.83,57.14,176.44Z"/><path class="cls-9" d="M58.61,176.31s4.86.61,2,.8-3,.38-1.08.45.78.47-2.19.53,2.06.09,3.17-.17-3.13-.51-1-.62S64.05,176.77,58.61,176.31Z"/><path class="cls-8" d="M52.22,176.83s-5.1.3-2.65.57,1.19.22-.07.38-.84.44,3.21.4-1.16.3,2.28.33-3.16.14-1.57-.17c1.2-.24-3.36.09-4.6-.26s2.67-.4,1.1-.55S47.52,177.08,52.22,176.83Z"/><path class="cls-9" d="M50.79,176.83s-5.35.34-2.77.66,1.26.27-.07.46-.88.52,3.36.48-1.21.35,2.4.4-3.31.15-1.64-.22c1.25-.27-3.53.1-4.84-.31s2.79-.46,1.15-.65S45.86,177.11,50.79,176.83Z"/><path class="cls-10" d="M60.17,177.4s5.44.63-1.42.85C58.75,178.25,66.39,178,60.17,177.4Z"/><path class="cls-10" d="M53.35,176.72s-4.25-.17-1.22-.25,4.6-.14,2.29-.27,2.39-.29,4.78-.26-1.57-.14-4.47,0-1.37.22-.47.29,0,.08-1.84.12S49.37,176.69,53.35,176.72Z"/><path class="cls-11" d="M49,176.59c.16,0-5.87.4-2.57.64,2.66.19-10.1,1.22,2.79,1.44a35.24,35.24,0,0,1-5.61-.17c-3.36-.34,5.49-1.15,2.44-1.21C43.56,177.25,45.09,176.9,49,176.59Z"/><path class="cls-11" d="M63.33,176.37s5.79.21,2,.73c-3.56.5,13.74,1.52-7.52,2.05,0,0,11-.32,10.39-.82s-5.32-1.08-3.22-1.27S66.18,176.42,63.33,176.37Z"/></g><g class="cls-12"><path class="cls-13" d="M105.51,170.48s2.85-.54-.46-.55-4.85.11-3.16-.3-1.76-.12-3.35.21,4.47.57,1.78.82S107.24,171.43,105.51,170.48Z"/><path class="cls-3" d="M102.16,170.13a21.85,21.85,0,0,1,3.34,0c.22.18-2.13.33-.8.45s-.88.38-1.89.34-2-.2-.2-.35S99.37,170.26,102.16,170.13Z"/><path class="cls-3" d="M100.22,169.92s1.77-.42.39-.27S99,170,100.22,169.92Z"/><g class="cls-4"><path class="cls-5" d="M102.15,169.22s-2.88-3-5.54-2.09S100.19,167.86,102.15,169.22Z"/><path class="cls-6" d="M98.52,167.69c-1-.37-1-.59-.7-.72a6.36,6.36,0,0,1,3.33,1.38A8,8,0,0,1,98.52,167.69Z"/></g><g class="cls-4"><path class="cls-5" d="M102.89,169.24a6.19,6.19,0,0,1,3.72-1.38C108.42,168,104.17,168.74,102.89,169.24Z"/><path class="cls-6" d="M105,168.44a2.75,2.75,0,0,1-1.29.24,5.57,5.57,0,0,1,2.51-.83C106.16,168,105.84,168.15,105,168.44Z"/></g><g class="cls-4"><path class="cls-5" d="M104,167.52a4.18,4.18,0,0,1,2.7-1.37C108.18,166.15,104.89,167,104,167.52Z"/><path class="cls-6" d="M105.5,166.73a2.12,2.12,0,0,1-1,.29,3.87,3.87,0,0,1,1.85-.84C106.34,166.27,106.11,166.44,105.5,166.73Z"/></g><g class="cls-7"><path class="cls-8" d="M104.4,169.64s5.36.68,2.2.9-3.33.41-1.2.5.87.52-2.39.58,2.26.11,3.48-.19-3.45-.56-1.16-.68S110.39,170.16,104.4,169.64Z"/><path class="cls-9" d="M106.4,169.46s6.65.82,2.73,1.09-4.13.51-1.5.62,1.09.64-3,.71,2.81.13,4.32-.23-4.29-.69-1.44-.84S113.83,170.09,106.4,169.46Z"/><path class="cls-8" d="M97.69,170.17s-7,.41-3.62.77,1.64.31-.09.52-1.15.61,4.37.56-1.58.4,3.12.44-4.31.19-2.14-.23c1.63-.32-4.59.12-6.29-.35s3.64-.55,1.51-.76S91.27,170.51,97.69,170.17Z"/><path class="cls-9" d="M95.73,170.17s-7.3.47-3.78.9,1.72.36-.1.62-1.2.71,4.59.66-1.64.47,3.29.54-4.52.22-2.24-.29c1.7-.37-4.83.14-6.61-.42s3.81-.64,1.57-.9S89,170.55,95.73,170.17Z"/><path class="cls-10" d="M108.54,171s7.43.85-1.93,1.16C106.61,172.11,117,171.78,108.54,171Z"/><path class="cls-10" d="M99.23,170s-5.81-.23-1.66-.34,6.27-.19,3.12-.36,3.26-.4,6.52-.36-2.14-.18-6.09.06-1.88.29-.65.38.07.12-2.51.18S93.8,170,99.23,170Z"/><path class="cls-11" d="M93.26,169.84c.22,0-8,.54-3.5.87,3.63.26-13.79,1.67,3.8,2a47.84,47.84,0,0,1-7.65-.24c-4.59-.46,7.5-1.56,3.32-1.64C85.87,170.74,88,170.26,93.26,169.84Z"/><path class="cls-11" d="M112.85,169.53s7.9.29,2.76,1c-4.87.68,18.75,2.07-10.27,2.79,0,0,15-.44,14.19-1.11s-7.27-1.48-4.4-1.73S116.74,169.61,112.85,169.53Z"/></g></g><g class="cls-12"><path class="cls-13" d="M17.34,176.93s2-.37-.32-.39-3.4.09-2.22-.2-1.23-.09-2.35.14,3.14.41,1.25.58S18.55,177.6,17.34,176.93Z"/><path class="cls-3" d="M15,176.69a14.15,14.15,0,0,1,2.35,0c.15.12-1.5.23-.56.31s-.62.27-1.34.24-1.41-.13-.14-.24S13,176.78,15,176.69Z"/><path class="cls-3" d="M13.63,176.54s1.24-.29.27-.18S12.8,176.61,13.63,176.54Z"/><g class="cls-4"><path class="cls-5" d="M15,176.05s-2-2.11-3.89-1.46S13.61,175.1,15,176.05Z"/><path class="cls-6" d="M12.44,175c-.7-.26-.69-.42-.5-.51a4.44,4.44,0,0,1,2.34,1A5.62,5.62,0,0,1,12.44,175Z"/></g><g class="cls-4"><path class="cls-5" d="M15.5,176.07a4.34,4.34,0,0,1,2.61-1C19.38,175.22,16.4,175.71,15.5,176.07Z"/><path class="cls-6" d="M17,175.5a2.07,2.07,0,0,1-.91.18,3.83,3.83,0,0,1,1.77-.59C17.8,175.18,17.57,175.3,17,175.5Z"/></g><g class="cls-4"><path class="cls-5" d="M16.26,174.86a2.92,2.92,0,0,1,1.9-1C19.21,173.89,16.91,174.51,16.26,174.86Z"/><path class="cls-6" d="M17.34,174.3a1.64,1.64,0,0,1-.69.21,2.72,2.72,0,0,1,1.29-.6C17.92,174,17.76,174.1,17.34,174.3Z"/></g><g class="cls-7"><path class="cls-8" d="M16.57,176.34s3.75.48,1.54.64-2.34.29-.85.35.62.37-1.67.41,1.59.07,2.44-.14-2.42-.39-.81-.48S20.76,176.71,16.57,176.34Z"/><path class="cls-9" d="M18,176.22s4.66.58,1.91.77-2.9.35-1.05.42.77.45-2.08.51,2,.09,3-.16-3-.49-1-.59S23.18,176.66,18,176.22Z"/><path class="cls-8" d="M11.85,176.72s-4.88.29-2.54.54,1.15.21-.06.36-.81.43,3.07.39-1.11.28,2.19.32-3,.13-1.5-.17c1.14-.22-3.22.09-4.41-.25s2.55-.38,1.05-.53S7.35,177,11.85,176.72Z"/><path class="cls-9" d="M10.48,176.72s-5.12.32-2.66.63,1.21.25-.06.43-.84.5,3.22.47-1.16.33,2.3.37-3.17.16-1.57-.2c1.2-.26-3.38.1-4.63-.3s2.67-.44,1.1-.62S5.76,177,10.48,176.72Z"/><path class="cls-10" d="M19.47,177.27s5.21.59-1.36.81C18.11,178.08,25.42,177.85,19.47,177.27Z"/><path class="cls-10" d="M12.94,176.61s-4.08-.17-1.17-.24,4.4-.14,2.19-.26,2.29-.28,4.57-.24-1.49-.14-4.27,0-1.31.21-.45.27,0,.09-1.76.12S9.13,176.59,12.94,176.61Z"/><path class="cls-11" d="M8.75,176.49c.16,0-5.62.38-2.46.61,2.55.18-9.67,1.17,2.67,1.37a32.85,32.85,0,0,1-5.37-.16c-3.21-.32,5.26-1.1,2.33-1.15C3.56,177.11,5,176.78,8.75,176.49Z"/><path class="cls-11" d="M22.49,176.27s5.54.21,1.94.71c-3.42.47,13.15,1.45-7.21,2,0,0,10.55-.32,10-.79s-5.1-1-3.09-1.21S25.22,176.32,22.49,176.27Z"/></g></g><g class="cls-14"><path class="cls-15" d="M147.87,64.76s-7.75,6.65-6,7S143.12,69.76,147.87,64.76Z"/></g><g class="cls-14"><path class="cls-15" d="M149.6,51.2s-7.74,6.65-6,7S144.86,56.2,149.6,51.2Z"/></g><g class="cls-14"><path class="cls-15" d="M127.12,55.93s-7.75,6.65-6,7S122.37,60.93,127.12,55.93Z"/></g><g class="cls-14"><path class="cls-15" d="M151.6,77.05S146,81.5,147,81.8,148,80.44,151.6,77.05Z"/></g><g class="cls-16"><g class="cls-14"><path class="cls-15" d="M87.4,70.23s-7.74,6.65-6,7S82.66,75.23,87.4,70.23Z"/></g><g class="cls-14"><path class="cls-15" d="M122.49,45.16s-7.75,6.65-6,7S117.74,50.17,122.49,45.16Z"/></g><g class="cls-14"><path class="cls-15" d="M86.2,40.07c-1.58,1.38-7.09,6.33-5.62,6.61s1.32-1.87,5.7-6.61Z"/></g><g class="cls-14"><path class="cls-15" d="M32.22,45.57s-7.75,6.65-6,7S27.48,50.57,32.22,45.57Z"/></g><g class="cls-14"><path class="cls-15" d="M47.59,97.52s-7.74,6.65-6,7S42.85,102.52,47.59,97.52Z"/></g><g class="cls-14"><path class="cls-15" d="M39.31,132.69s-7.75,6.66-6,7S34.57,137.69,39.31,132.69Z"/></g><g class="cls-14"><path class="cls-15" d="M39.31,146.64s-7.75,6.65-6,7S34.57,151.64,39.31,146.64Z"/></g><g class="cls-14"><path class="cls-15" d="M83.86,124.21s-7.75,6.64-6,7S79.11,129.21,83.86,124.21Z"/></g><g class="cls-14"><path class="cls-15" d="M24.73,93.68s-7.75,6.65-6,7S20,98.68,24.73,93.68Z"/></g><g class="cls-14"><path class="cls-15" d="M33,77.71s-7.75,6.65-6,7S28.26,82.71,33,77.71Z"/></g><g class="cls-14"><path class="cls-15" d="M70.45,102.37s-7.74,6.65-6,7S65.71,107.38,70.45,102.37Z"/></g><g class="cls-14"><path class="cls-15" d="M56.26,113.69s-7.74,6.65-6,7S51.52,118.69,56.26,113.69Z"/></g><g class="cls-14"><path class="cls-15" d="M85.83,111.67s-7.75,6.65-6,7S81.08,116.67,85.83,111.67Z"/></g><g class="cls-14"><path class="cls-15" d="M19.6,116.93s-7.74,6.65-6,7S14.86,121.93,19.6,116.93Z"/></g><g class="cls-14"><path class="cls-15" d="M50,84s-7.75,6.65-6,7S45.21,89,50,84Z"/></g><g class="cls-14"><path class="cls-15" d="M45.62,75.08s-7.75,6.65-6,7S40.87,80.08,45.62,75.08Z"/></g><g class="cls-14"><path class="cls-15" d="M73,52.4s-7.74,6.64-6,7S68.28,57.4,73,52.4Z"/></g><g class="cls-14"><path class="cls-15" d="M7.38,73.67s-7.74,6.65-6,7S2.64,78.67,7.38,73.67Z"/></g><g class="cls-14"><path class="cls-15" d="M0,66.9v1.8a33.8,33.8,0,0,1,4.62-6.15S1.86,64.92,0,66.9Z"/></g><g class="cls-14"><path class="cls-15" d="M21.12,76.91s-7.75,6.65-6,7S16.38,81.91,21.12,76.91Z"/></g><g class="cls-14"><path class="cls-15" d="M84.78,65.13s-5.59,4.45-4.59,4.75S81.24,68.52,84.78,65.13Z"/></g><g class="cls-14"><path class="cls-15" d="M70.6,72S65,76.45,66,76.75,67,75.39,70.6,72Z"/></g><g class="cls-14"><path class="cls-15" d="M52.86,67.55s-5.6,4.45-4.6,4.75S49.31,71,52.86,67.55Z"/></g><g class="cls-14"><path class="cls-15" d="M31.78,56.63s-5.6,4.45-4.6,4.75S28.23,60,31.78,56.63Z"/></g><g class="cls-14"><path class="cls-15" d="M60.35,52.59s-5.6,4.45-4.59,4.75S56.8,56,60.35,52.59Z"/></g><g class="cls-14"><path class="cls-15" d="M35.91,60.08s-5.6,4.44-4.6,4.74S32.36,63.47,35.91,60.08Z"/></g><g class="cls-14"><path class="cls-15" d="M24.08,40.67s-5.59,4.45-4.59,4.75S20.53,44.06,24.08,40.67Z"/></g><g class="cls-14"><path class="cls-15" d="M6.34,55.83S.75,60.28,1.75,60.58,2.8,59.22,6.34,55.83Z"/></g><g class="cls-14"><path class="cls-15" d="M33.36,71.07s-5.6,4.45-4.6,4.75S29.81,74.46,33.36,71.07Z"/></g><g class="cls-14"><path class="cls-15" d="M112.77,58.05s-5.59,4.45-4.59,4.75S109.22,61.44,112.77,58.05Z"/></g><g class="cls-14"><path class="cls-15" d="M89.12,97.67s-5.59,4.45-4.59,4.75S85.58,101.07,89.12,97.67Z"/></g><g class="cls-14"><path class="cls-15" d="M99.38,109.6s-5.6,4.45-4.61,4.75S95.82,113,99.38,109.6Z"/></g><g class="cls-14"><path class="cls-15" d="M67.45,123.34s-5.6,4.45-4.61,4.75S63.89,126.74,67.45,123.34Z"/></g><g class="cls-14"><path class="cls-15" d="M38.27,110.41s-5.59,4.45-4.59,4.75S34.73,113.8,38.27,110.41Z"/></g><g class="cls-14"><path class="cls-15" d="M0,96.14v1.08a48,48,0,0,1,4-4.6A49.8,49.8,0,0,0,0,96.14Z"/></g></g><g class="cls-17"><g class="cls-18"><path class="cls-19" d="M77.83,132.59S66.38,144,69.18,144.44C71.83,144.87,71,141.12,77.83,132.59Z"/><path class="cls-20" d="M73.6,137.05a4.41,4.41,0,0,1-.43,1.45c-.94,2.07-3.12,5.66-4.4,5.6a.45.45,0,0,0,.41.34c2.65.43,1.78-3.32,8.65-11.85C77.83,132.59,75.77,134.64,73.6,137.05Z"/><path class="cls-21" d="M69.19,143.52c1.08-.06,2.91-4.29,2.91-4.29.16-.48-.17-.24-.66.32s-.72.89-1,1.31C69.49,142.13,68.66,143.56,69.19,143.52Z"/></g><g class="cls-18"><path class="cls-19" d="M115.47,84.49S104,95.89,106.82,96.35,108.59,93,115.47,84.49Z"/><path class="cls-20" d="M111.23,89a4,4,0,0,1-.43,1.45c-.93,2.08-3.11,5.67-4.4,5.61a.47.47,0,0,0,.42.34c2.65.43,1.77-3.33,8.65-11.86C115.47,84.49,113.4,86.55,111.23,89Z"/><path class="cls-21" d="M106.83,95.43c1.08-.07,2.91-4.29,2.91-4.29.16-.49-.17-.24-.66.32s-.72.89-1,1.31C107.13,94,106.3,95.46,106.83,95.43Z"/></g><g class="cls-18"><path class="cls-19" d="M91.71,115.59s-7.52,6.2-6.17,6.61S86.94,120.31,91.71,115.59Z"/><path class="cls-20" d="M88.89,118a3.6,3.6,0,0,1-.44.84c-.78,1.18-2.43,3.21-3.07,3.11a.2.2,0,0,0,.16.22c1.27.39,1.4-1.89,6.17-6.61C91.71,115.59,90.35,116.71,88.89,118Z"/><path class="cls-21" d="M85.68,121.66c.56,0,2.12-2.41,2.12-2.41.16-.28,0-.15-.38.16l-.72.72C86,120.84,85.4,121.64,85.68,121.66Z"/></g><g class="cls-18"><path class="cls-19" d="M139.77,124.69s-10.9,9.69-8.48,10.15S133.1,132,139.77,124.69Z"/><path class="cls-20" d="M135.72,128.49a3.93,3.93,0,0,1-.49,1.26c-1,1.78-3.17,4.86-4.28,4.78,0,.17.13.27.34.31,2.27.43,1.81-2.86,8.48-10.15C139.77,124.69,137.8,126.44,135.72,128.49Z"/><path class="cls-21" d="M131.37,134c.94,0,2.87-3.68,2.87-3.68.18-.42-.12-.21-.6.27s-.69.75-1,1.12C131.74,132.83,130.89,134.06,131.37,134Z"/></g><g class="cls-18"><path class="cls-19" d="M113.35,117s-10.9,9.69-8.49,10.15S106.67,124.32,113.35,117Z"/><path class="cls-20" d="M109.3,120.83a4.48,4.48,0,0,1-.49,1.26c-1,1.78-3.17,4.86-4.29,4.78a.37.37,0,0,0,.34.31c2.27.44,1.81-2.86,8.49-10.15C113.35,117,111.37,118.78,109.3,120.83Z"/><path class="cls-21" d="M104.94,126.38c1,0,2.88-3.68,2.88-3.68.18-.42-.13-.21-.61.26s-.69.77-1,1.13C105.31,125.17,104.47,126.4,104.94,126.38Z"/></g><g class="cls-18"><path class="cls-21" d="M156.3,158.33c1.08-.07,2.9-4.29,2.9-4.29.16-.49-.16-.25-.66.32s-.71.89-1,1.31C156.59,156.93,155.76,158.36,156.3,158.33Z"/></g><g class="cls-18"><path class="cls-19" d="M140.69,142s-11.44,11.4-8.64,11.86C134.69,154.24,133.82,150.48,140.69,142Z"/><path class="cls-20" d="M136.46,146.41a4.17,4.17,0,0,1-.43,1.45c-.94,2.08-3.12,5.66-4.41,5.6a.48.48,0,0,0,.43.35c2.64.43,1.77-3.33,8.64-11.86C140.69,142,138.63,144,136.46,146.41Z"/><path class="cls-21" d="M132.06,152.89c1.07-.07,2.91-4.29,2.91-4.29.15-.49-.18-.24-.67.32s-.72.89-1,1.31C132.35,151.49,131.52,152.92,132.06,152.89Z"/></g><g class="cls-18"><path class="cls-19" d="M120.27,100.24s-11.45,11.4-8.65,11.86C114.27,112.53,113.4,108.77,120.27,100.24Z"/><path class="cls-20" d="M116.05,104.7a4.49,4.49,0,0,1-.44,1.45c-.93,2.07-3.12,5.67-4.41,5.6a.46.46,0,0,0,.42.35c2.65.43,1.78-3.33,8.65-11.86C120.27,100.24,118.21,102.3,116.05,104.7Z"/><path class="cls-21" d="M111.63,111.18c1.09-.07,2.91-4.29,2.91-4.29.16-.49-.17-.24-.67.31s-.71.9-1,1.32C111.93,109.78,111.1,111.21,111.63,111.18Z"/></g><g class="cls-18"><path class="cls-19" d="M146.52,87.38s-11.46,11.4-8.66,11.85C140.51,99.67,139.64,95.91,146.52,87.38Z"/><path class="cls-20" d="M142.29,91.84a4.25,4.25,0,0,1-.44,1.45c-.93,2.07-3.12,5.66-4.4,5.6a.45.45,0,0,0,.41.34c2.65.44,1.78-3.32,8.66-11.85C146.52,87.38,144.45,89.44,142.29,91.84Z"/><path class="cls-21" d="M137.88,98.32c1.08-.07,2.9-4.3,2.9-4.3.16-.48-.16-.24-.66.33s-.71.89-1,1.31C138.17,96.92,137.34,98.35,137.88,98.32Z"/></g><g class="cls-18"><path class="cls-19" d="M103.94,150.32s-12.72,11-10,11.55C96.56,162.39,96.11,158.61,103.94,150.32Z"/><path class="cls-20" d="M99.22,154.63a5.08,5.08,0,0,1-.61,1.44c-1.16,2-3.74,5.55-5,5.45a.43.43,0,0,0,.39.35c2.59.52,2.14-3.26,10-11.55C103.94,150.32,101.64,152.3,99.22,154.63Z"/><path class="cls-21" d="M94.08,161c1.09,0,3.39-4.18,3.39-4.18.21-.48-.14-.25-.7.29s-.82.87-1.18,1.28C94.54,159.57,93.55,161,94.08,161Z"/></g><g class="cls-18"><path class="cls-21" d="M158.65,114.34c1.08,0,3.28-4.22,3.28-4.22.21-.48-.14-.24-.69.31s-.79.87-1.14,1.28C159.07,113,158.11,114.36,158.65,114.34Z"/></g><g class="cls-18"><path class="cls-19" d="M160.76,131.17s-7.52,6.2-6.17,6.61S156,135.89,160.76,131.17Z"/><path class="cls-20" d="M157.94,133.61a3,3,0,0,1-.44.84c-.78,1.19-2.44,3.21-3.07,3.11a.19.19,0,0,0,.16.22c1.26.4,1.39-1.89,6.17-6.61C160.76,131.17,159.4,132.29,157.94,133.61Z"/><path class="cls-21" d="M154.73,137.24c.56,0,2.12-2.41,2.12-2.41.16-.28,0-.15-.38.16l-.72.73C155.09,136.43,154.45,137.23,154.73,137.24Z"/></g><g class="cls-18"><path class="cls-19" d="M125.94,153.43s-7.51,6.2-6.17,6.62S121.17,158.16,125.94,153.43Z"/><path class="cls-20" d="M123.13,155.87a3.25,3.25,0,0,1-.44.84c-.79,1.19-2.44,3.21-3.08,3.11a.23.23,0,0,0,.16.23c1.27.39,1.4-1.89,6.17-6.62C125.94,153.43,124.59,154.55,123.13,155.87Z"/><path class="cls-21" d="M119.92,159.5c.55,0,2.12-2.4,2.12-2.4.16-.29-.05-.16-.39.15s-.5.49-.72.73C120.28,158.68,119.64,159.49,119.92,159.5Z"/></g><g class="cls-18"><path class="cls-19" d="M136.35,109.38s-7.51,6.19-6.17,6.61S131.58,114.1,136.35,109.38Z"/><path class="cls-20" d="M133.54,111.82a3.61,3.61,0,0,1-.44.84c-.79,1.19-2.44,3.21-3.07,3.11a.19.19,0,0,0,.15.22c1.26.39,1.4-1.89,6.17-6.61C136.35,109.38,135,110.5,133.54,111.82Z"/><path class="cls-21" d="M130.33,115.45c.55,0,2.12-2.41,2.12-2.41.15-.28,0-.15-.39.16s-.49.49-.71.73C130.69,114.63,130.05,115.44,130.33,115.45Z"/></g><g class="cls-18"><path class="cls-19" d="M83.1,147.05s-7.52,6.19-6.17,6.61S78.33,151.77,83.1,147.05Z"/><path class="cls-20" d="M80.29,149.49a4.05,4.05,0,0,1-.44.84c-.79,1.18-2.44,3.21-3.08,3.1a.2.2,0,0,0,.16.23c1.27.39,1.4-1.89,6.17-6.61C83.1,147.05,81.74,148.17,80.29,149.49Z"/><path class="cls-21" d="M77.07,153.12c.56,0,2.12-2.41,2.12-2.41.16-.28,0-.15-.38.16s-.49.49-.72.73C77.44,152.3,76.79,153.11,77.07,153.12Z"/></g><g class="cls-18"><path class="cls-19" d="M92.94,127.69s-11.45,11.4-8.64,11.85C86.94,140,86.07,136.22,92.94,127.69Z"/><path class="cls-20" d="M88.71,132.15a4.41,4.41,0,0,1-.43,1.45c-.94,2.08-3.12,5.67-4.41,5.6a.46.46,0,0,0,.43.34c2.64.44,1.77-3.32,8.64-11.85C92.94,127.69,90.88,129.75,88.71,132.15Z"/><path class="cls-21" d="M84.3,138.63c1.08-.07,2.91-4.3,2.91-4.3.16-.48-.17-.24-.66.33s-.72.89-1,1.31C84.59,137.23,83.77,138.66,84.3,138.63Z"/></g><g class="cls-18"><path class="cls-21" d="M88.68,121c.56,0,2.13-2.4,2.13-2.4.15-.28-.06-.16-.39.15l-.72.73C89.05,120.16,88.41,121,88.68,121Z"/></g><g class="cls-18"><path class="cls-19" d="M79.19,120.05s-7.51,6.2-6.17,6.62S74.43,124.78,79.19,120.05Z"/><path class="cls-20" d="M76.38,122.49a3.83,3.83,0,0,1-.44.85c-.79,1.18-2.44,3.21-3.08,3.1a.23.23,0,0,0,.16.23c1.27.39,1.41-1.89,6.17-6.62C79.19,120.05,77.83,121.17,76.38,122.49Z"/><path class="cls-21" d="M73.16,126.12c.56,0,2.12-2.41,2.12-2.41.16-.28,0-.15-.38.16s-.5.5-.71.73C73.52,125.31,72.89,126.11,73.16,126.12Z"/></g><g class="cls-18"><path class="cls-19" d="M86,107.71s-7.52,6.2-6.17,6.61S81.23,112.43,86,107.71Z"/><path class="cls-20" d="M83.18,110.15a3.24,3.24,0,0,1-.44.84c-.79,1.18-2.43,3.21-3.07,3.11a.2.2,0,0,0,.16.22c1.26.4,1.4-1.89,6.17-6.61C86,107.71,84.64,108.83,83.18,110.15Z"/><path class="cls-21" d="M80,113.78c.55,0,2.13-2.41,2.13-2.41.15-.28,0-.15-.39.16l-.72.72C80.34,113,79.69,113.77,80,113.78Z"/></g><g class="cls-18"><path class="cls-21" d="M155.71,88.84c.95,0,2.88-3.68,2.88-3.68.17-.42-.13-.22-.61.26s-.69.76-1,1.12C156.08,87.63,155.25,88.85,155.71,88.84Z"/></g><g class="cls-18"><path class="cls-19" d="M137.69,71.83S126.8,81.52,129.2,82,131,79.12,137.69,71.83Z"/><path class="cls-20" d="M133.64,75.62a3.76,3.76,0,0,1-.49,1.26c-1,1.79-3.17,4.87-4.28,4.79a.36.36,0,0,0,.33.31c2.28.43,1.81-2.86,8.49-10.15C137.69,71.83,135.72,73.58,133.64,75.62Z"/><path class="cls-21" d="M129.29,81.18c.94,0,2.87-3.68,2.87-3.68.18-.42-.13-.22-.6.26s-.7.76-1,1.12C129.66,80,128.81,81.19,129.29,81.18Z"/></g><g class="cls-18"><path class="cls-21" d="M156.4,107.68c1.08-.07,2.91-4.29,2.91-4.29.16-.48-.17-.24-.66.32s-.72.89-1,1.31C156.7,106.29,155.87,107.72,156.4,107.68Z"/></g><g class="cls-18"><path class="cls-19" d="M128.28,105.11s-12.72,11-10,11.55C120.91,117.18,120.46,113.41,128.28,105.11Z"/><path class="cls-20" d="M123.56,109.43a4.68,4.68,0,0,1-.6,1.43c-1.16,2-3.75,5.55-5,5.45a.41.41,0,0,0,.39.35c2.59.52,2.14-3.25,10-11.55C128.28,105.11,126,107.1,123.56,109.43Z"/><path class="cls-21" d="M118.43,115.75c1.08,0,3.38-4.19,3.38-4.19.22-.48-.14-.25-.7.3-.41.43-.81.87-1.17,1.27C118.88,114.37,117.89,115.77,118.43,115.75Z"/></g><g class="cls-18"><path class="cls-19" d="M150.29,108.23s-7.52,6.2-6.17,6.61S145.52,113,150.29,108.23Z"/><path class="cls-20" d="M147.48,110.67a4.23,4.23,0,0,1-.45.84c-.78,1.18-2.44,3.21-3.07,3.1a.21.21,0,0,0,.16.23c1.27.39,1.4-1.89,6.17-6.61C150.29,108.23,148.93,109.35,147.48,110.67Z"/><path class="cls-21" d="M144.26,114.29c.56,0,2.12-2.4,2.12-2.4.16-.28,0-.15-.38.16s-.5.49-.72.73C144.62,113.48,144,114.29,144.26,114.29Z"/></g><g class="cls-18"><path class="cls-19" d="M107.44,101.84s-7.51,6.2-6.17,6.61S102.67,106.57,107.44,101.84Z"/><path class="cls-20" d="M104.63,104.28a3.61,3.61,0,0,1-.44.84c-.79,1.19-2.43,3.21-3.07,3.11a.19.19,0,0,0,.15.22c1.27.4,1.4-1.88,6.17-6.61C107.44,101.84,106.09,103,104.63,104.28Z"/><path class="cls-21" d="M101.42,107.91c.55,0,2.12-2.4,2.12-2.4.15-.28-.05-.16-.38.15s-.5.49-.73.73C101.78,107.1,101.15,107.9,101.42,107.91Z"/></g><g class="cls-18"><path class="cls-19" d="M113.45,124.19s-7.51,6.2-6.17,6.61S108.68,128.92,113.45,124.19Z"/><path class="cls-20" d="M110.64,126.63a3.55,3.55,0,0,1-.45.84c-.78,1.19-2.43,3.21-3.07,3.11a.21.21,0,0,0,.16.22c1.27.4,1.4-1.88,6.17-6.61C113.45,124.19,112.1,125.31,110.64,126.63Z"/><path class="cls-21" d="M107.43,130.26c.55,0,2.12-2.41,2.12-2.41.15-.28,0-.15-.39.16s-.5.49-.72.73C107.79,129.44,107.15,130.25,107.43,130.26Z"/></g><g class="cls-18"><path class="cls-19" d="M150.69,122.91s-7.52,6.2-6.18,6.61S145.92,127.64,150.69,122.91Z"/><path class="cls-20" d="M147.87,125.35a3.25,3.25,0,0,1-.44.84c-.79,1.19-2.43,3.21-3.07,3.11a.19.19,0,0,0,.15.22c1.27.4,1.41-1.88,6.18-6.61C150.69,122.91,149.33,124,147.87,125.35Z"/><path class="cls-21" d="M144.66,129c.56,0,2.12-2.4,2.12-2.4.16-.29,0-.16-.38.15s-.5.49-.72.73C145,128.16,144.39,129,144.66,129Z"/></g></g><g class="cls-22"><g class="cls-18"><path class="cls-19" d="M0,60.15v2.27c2.78.25,2.47-4.26,11.26-13.87C11.26,48.55,2.64,56.22,0,60.15Z"/><path class="cls-20" d="M5.75,53.72a5.36,5.36,0,0,1-.66,1.71C4,57.51,1.61,60.88,0,61.75v.67c2.78.25,2.47-4.26,11.26-13.87C11.26,48.55,8.58,50.93,5.75,53.72Z"/><path class="cls-21" d="M2.92,56.63q-.75.79-1.38,1.53A19.3,19.3,0,0,0,0,60.26v1c1.34-.45,3.74-5,3.74-5C4,55.7,3.56,56,2.92,56.63Z"/></g><g class="cls-18"><path class="cls-19" d="M13.85,40.07c-1.58,1.46-3,3-2.42,3.2.85.27,1.14-.83,3.05-3.2Z"/><path class="cls-20" d="M14.18,40.07l-.14.21c-.7,1.07-2.18,2.88-2.76,2.79a.18.18,0,0,0,.15.2c.85.27,1.14-.83,3.05-3.2Z"/><path class="cls-21" d="M11.56,42.78c.49,0,1.9-2.16,1.9-2.16.13-.25-.05-.13-.35.15s-.45.44-.64.65C11.88,42.05,11.31,42.77,11.56,42.78Z"/></g><g class="cls-18"><path class="cls-19" d="M21.13,52.59s-6.73,5.55-5.53,5.92S16.86,56.82,21.13,52.59Z"/><path class="cls-20" d="M18.6,54.77a3,3,0,0,1-.39.76c-.7,1.06-2.19,2.87-2.76,2.78a.19.19,0,0,0,.15.2c1.14.35,1.26-1.69,5.53-5.92C21.13,52.59,19.91,53.59,18.6,54.77Z"/><path class="cls-21" d="M15.73,58c.49,0,1.9-2.15,1.9-2.15.14-.26,0-.14-.35.14l-.64.65C16.05,57.29,15.48,58,15.73,58Z"/></g><g class="cls-18"><path class="cls-19" d="M36.25,90.31S25.36,100,27.77,100.46,29.58,97.6,36.25,90.31Z"/><path class="cls-20" d="M32.2,94.11a3.81,3.81,0,0,1-.49,1.25c-1,1.79-3.16,4.87-4.28,4.79a.37.37,0,0,0,.34.31c2.27.43,1.81-2.86,8.48-10.15C36.25,90.31,34.28,92.06,32.2,94.11Z"/><path class="cls-21" d="M27.85,99.66c.94,0,2.88-3.68,2.88-3.68.17-.42-.13-.22-.62.27l-1,1.11C28.22,98.45,27.38,99.68,27.85,99.66Z"/></g><g class="cls-18"><path class="cls-19" d="M9.82,82.65S-1.07,92.33,1.34,92.8,3.15,89.94,9.82,82.65Z"/><path class="cls-20" d="M5.78,86.44a4.18,4.18,0,0,1-.5,1.26c-1,1.79-3.16,4.87-4.28,4.79a.38.38,0,0,0,.34.31c2.27.43,1.81-2.86,8.48-10.15C9.82,82.65,7.86,84.4,5.78,86.44Z"/><path class="cls-21" d="M1.42,92c1,0,2.88-3.68,2.88-3.68.18-.42-.13-.22-.61.26s-.69.76-1,1.12C1.79,90.78,1,92,1.42,92Z"/></g><g class="cls-18"><path class="cls-19" d="M61.42,113S50,124.41,52.76,124.86,54.54,121.54,61.42,113Z"/><path class="cls-20" d="M57.19,117.47a4.25,4.25,0,0,1-.44,1.45c-.93,2.07-3.11,5.66-4.4,5.6a.45.45,0,0,0,.41.34c2.65.43,1.78-3.32,8.66-11.85C61.42,113,59.35,115.07,57.19,117.47Z"/><path class="cls-21" d="M52.78,123.94c1.07-.06,2.91-4.28,2.91-4.28.15-.49-.17-.25-.67.32s-.72.88-1,1.31C53.07,122.55,52.24,124,52.78,123.94Z"/></g><g class="cls-18"><path class="cls-19" d="M37.18,107.57S25.72,119,28.53,119.42C31.18,119.85,30.3,116.1,37.18,107.57Z"/><path class="cls-20" d="M33,112a4.25,4.25,0,0,1-.44,1.45c-.94,2.07-3.12,5.66-4.41,5.6a.48.48,0,0,0,.43.34c2.65.43,1.77-3.32,8.65-11.85C37.18,107.57,35.11,109.63,33,112Z"/><path class="cls-21" d="M28.54,118.51c1.08-.08,2.9-4.29,2.9-4.29.16-.49-.16-.25-.66.31s-.72.89-1,1.32C28.83,117.11,28,118.54,28.54,118.51Z"/></g><g class="cls-18"><path class="cls-19" d="M16.75,65.86S5.3,77.25,8.1,77.71,9.88,74.39,16.75,65.86Z"/><path class="cls-20" d="M12.52,70.32a4.48,4.48,0,0,1-.43,1.45c-.94,2.07-3.12,5.66-4.41,5.6a.47.47,0,0,0,.42.34c2.65.43,1.78-3.32,8.65-11.85C16.75,65.86,14.69,67.91,12.52,70.32Z"/><path class="cls-21" d="M8.11,76.79C9.2,76.73,11,72.5,11,72.5c.16-.48-.17-.24-.66.32s-.72.89-1,1.31C8.41,75.4,7.58,76.83,8.11,76.79Z"/></g><g class="cls-18"><path class="cls-19" d="M43,53S31.54,64.39,34.35,64.85C37,65.28,36.12,61.53,43,53Z"/><path class="cls-20" d="M38.76,57.45a4.21,4.21,0,0,1-.43,1.46c-.93,2.07-3.11,5.66-4.4,5.6a.46.46,0,0,0,.42.34C37,65.28,36.12,61.53,43,53,43,53,40.93,55.05,38.76,57.45Z"/><path class="cls-21" d="M34.36,63.93c1.08-.06,2.9-4.29,2.9-4.29.17-.48-.16-.24-.65.32s-.72.89-1,1.31C34.65,62.54,33.82,64,34.36,63.93Z"/></g><g class="cls-18"><path class="cls-19" d="M64.74,69.25S52.27,80.34,55,80.87,57.11,77.59,64.74,69.25Z"/><path class="cls-20" d="M60.11,73.6A4.51,4.51,0,0,1,59.54,75c-1.12,2-3.62,5.58-4.9,5.49a.45.45,0,0,0,.39.35c2.61.5,2.08-3.28,9.71-11.62C64.74,69.25,62.49,71.25,60.11,73.6Z"/><path class="cls-21" d="M55.13,80c1.08,0,3.28-4.21,3.28-4.21.21-.48-.14-.25-.69.3s-.8.87-1.15,1.29C55.54,78.57,54.59,80,55.13,80Z"/></g><g class="cls-18"><path class="cls-19" d="M57.23,96.79s-7.51,6.19-6.17,6.61S52.47,101.51,57.23,96.79Z"/><path class="cls-20" d="M54.42,99.22a3.25,3.25,0,0,1-.44.84c-.79,1.2-2.43,3.22-3.08,3.11a.23.23,0,0,0,.16.23c1.27.39,1.41-1.89,6.17-6.61C57.23,96.79,55.88,97.9,54.42,99.22Z"/><path class="cls-21" d="M51.21,102.85c.55,0,2.12-2.4,2.12-2.4.16-.28,0-.15-.38.15s-.5.5-.72.73C51.57,102,50.94,102.85,51.21,102.85Z"/></g><g class="cls-18"><path class="cls-19" d="M117.24,71.71s-7.51,6.2-6.17,6.62S112.47,76.44,117.24,71.71Z"/><path class="cls-20" d="M114.43,74.15A3.2,3.2,0,0,1,114,75c-.78,1.19-2.44,3.22-3.07,3.11a.23.23,0,0,0,.16.23c1.26.39,1.4-1.89,6.17-6.62C117.24,71.71,115.88,72.83,114.43,74.15Z"/><path class="cls-21" d="M111.21,77.78c.56,0,2.13-2.4,2.13-2.4.15-.28,0-.16-.39.15l-.72.73C111.58,77,110.94,77.77,111.21,77.78Z"/></g><g class="cls-18"><path class="cls-19" d="M101.72,76.86s-7.51,6.19-6.17,6.61S97,81.58,101.72,76.86Z"/><path class="cls-20" d="M98.9,79.29a3.11,3.11,0,0,1-.44.85c-.79,1.18-2.43,3.21-3.07,3.1a.21.21,0,0,0,.16.23c1.27.39,1.4-1.89,6.17-6.61C101.72,76.86,100.36,78,98.9,79.29Z"/><path class="cls-21" d="M95.69,82.92c.56,0,2.12-2.4,2.12-2.4.15-.28,0-.16-.38.16s-.49.49-.72.72C96.06,82.11,95.42,82.91,95.69,82.92Z"/></g><g class="cls-18"><path class="cls-19" d="M66.49,46.43S59,52.62,60.31,53,61.71,51.15,66.49,46.43Z"/><path class="cls-20" d="M63.67,48.86a3.61,3.61,0,0,1-.44.84c-.79,1.19-2.44,3.21-3.08,3.11a.23.23,0,0,0,.16.23c1.27.39,1.4-1.89,6.18-6.61C66.49,46.43,65.12,47.54,63.67,48.86Z"/><path class="cls-21" d="M60.45,52.49c.56,0,2.13-2.41,2.13-2.41.15-.28,0-.15-.39.16s-.5.5-.71.73C60.82,51.68,60.19,52.48,60.45,52.49Z"/></g><g class="cls-18"><path class="cls-19" d="M32.84,75s-7.53,6.19-6.18,6.61S28.07,79.72,32.84,75Z"/><path class="cls-20" d="M30,77.43a3.44,3.44,0,0,1-.44.85c-.79,1.18-2.44,3.21-3.08,3.1a.22.22,0,0,0,.16.23c1.27.39,1.41-1.89,6.18-6.61C32.84,75,31.47,76.12,30,77.43Z"/><path class="cls-21" d="M26.81,81.06c.55,0,2.12-2.4,2.12-2.4.15-.28-.05-.15-.38.15l-.72.73C27.17,80.25,26.53,81.06,26.81,81.06Z"/></g><g class="cls-18"><path class="cls-19" d="M108.53,64.52s-7.52,6.19-6.17,6.6S103.76,69.24,108.53,64.52Z"/><path class="cls-20" d="M105.71,67a3.44,3.44,0,0,1-.44.85c-.79,1.18-2.43,3.2-3.08,3.1a.21.21,0,0,0,.17.22c1.26.4,1.4-1.88,6.17-6.6C108.53,64.52,107.17,65.63,105.71,67Z"/><path class="cls-21" d="M102.5,70.58c.55,0,2.12-2.41,2.12-2.41.15-.28,0-.15-.38.16s-.5.49-.72.73C102.86,69.76,102.23,70.57,102.5,70.58Z"/></g><g class="cls-18"><path class="cls-19" d="M68.35,81.14s-5.66,4.66-4.65,5S64.76,84.69,68.35,81.14Z"/><path class="cls-20" d="M66.23,83a2.27,2.27,0,0,1-.33.64c-.59.89-1.83,2.42-2.32,2.34a.17.17,0,0,0,.12.17c1,.3,1.06-1.43,4.65-5C68.35,81.14,67.33,82,66.23,83Z"/><path class="cls-21" d="M63.81,85.71c.42,0,1.6-1.81,1.6-1.81.12-.22,0-.12-.29.11l-.54.55C64.08,85.09,63.61,85.7,63.81,85.71Z"/></g><g class="cls-18"><path class="cls-19" d="M20.47,96.19S9,107.59,11.82,108.05C14.46,108.48,13.59,104.72,20.47,96.19Z"/><path class="cls-20" d="M16.24,100.66a4.31,4.31,0,0,1-.44,1.45c-.93,2.07-3.11,5.66-4.4,5.59a.46.46,0,0,0,.42.35c2.64.43,1.77-3.33,8.65-11.86C20.47,96.19,18.41,98.25,16.24,100.66Z"/><path class="cls-21" d="M11.83,107.13c1.08-.07,2.91-4.29,2.91-4.29.16-.49-.17-.24-.67.32s-.72.89-1,1.31C12.12,105.74,11.29,107.16,11.83,107.13Z"/></g><g class="cls-18"><path class="cls-19" d="M44,89.62s-7.51,6.2-6.17,6.61S39.19,94.35,44,89.62Z"/><path class="cls-20" d="M41.14,92.06a3,3,0,0,1-.44.84c-.79,1.19-2.44,3.21-3.07,3.11a.19.19,0,0,0,.15.22c1.28.4,1.41-1.88,6.17-6.61C44,89.62,42.6,90.74,41.14,92.06Z"/><path class="cls-21" d="M37.93,95.69c.55,0,2.12-2.41,2.12-2.41.16-.27,0-.15-.38.16s-.5.49-.72.73C38.29,94.87,37.65,95.68,37.93,95.69Z"/></g><g class="cls-18"><path class="cls-19" d="M45.83,124.34s-5.67,4.66-4.65,5S42.24,127.89,45.83,124.34Z"/><path class="cls-20" d="M43.71,126.17a2.58,2.58,0,0,1-.33.64c-.6.89-1.84,2.42-2.32,2.34a.14.14,0,0,0,.12.16c1,.3,1.06-1.42,4.65-5C45.83,124.34,44.81,125.18,43.71,126.17Z"/><path class="cls-21" d="M41.28,128.91c.42,0,1.6-1.81,1.6-1.81.12-.22,0-.12-.29.11s-.37.37-.53.55C41.56,128.29,41.08,128.9,41.28,128.91Z"/></g><g class="cls-18"><path class="cls-19" d="M103.25,54.74s-10.41,9.26-8.1,9.7C97.31,64.86,96.87,61.71,103.25,54.74Z"/><path class="cls-20" d="M99.39,58.37a4,4,0,0,1-.48,1.2c-.94,1.71-3,4.66-4.09,4.58a.35.35,0,0,0,.33.29c2.16.42,1.72-2.73,8.1-9.7C103.25,54.74,101.36,56.41,99.39,58.37Z"/><path class="cls-21" d="M95.22,63.68c.9,0,2.74-3.52,2.74-3.52.18-.4-.11-.2-.57.26s-.67.72-1,1.07C95.57,62.52,94.77,63.69,95.22,63.68Z"/></g><g class="cls-18"><path class="cls-19" d="M101,40.43S88.58,51.52,91.33,52.05,93.41,48.78,101,40.43Z"/><path class="cls-20" d="M96.42,44.78a4.8,4.8,0,0,1-.57,1.44c-1.12,2-3.62,5.57-4.9,5.48a.42.42,0,0,0,.38.35c2.61.5,2.08-3.27,9.71-11.62C101,40.43,98.79,42.44,96.42,44.78Z"/><path class="cls-21" d="M91.43,51.13c1.08,0,3.29-4.21,3.29-4.21.2-.48-.15-.24-.7.31l-1.15,1.28C91.85,49.75,90.89,51.15,91.43,51.13Z"/></g><g class="cls-18"><path class="cls-19" d="M127.8,51.49s-5.66,4.67-4.65,5S124.21,55.05,127.8,51.49Z"/><path class="cls-20" d="M125.68,53.33a2.77,2.77,0,0,1-.33.64c-.6.88-1.83,2.41-2.32,2.33a.16.16,0,0,0,.12.17c1,.3,1.06-1.42,4.65-5C127.8,51.49,126.77,52.34,125.68,53.33Z"/><path class="cls-21" d="M123.25,56.06c.43,0,1.6-1.81,1.6-1.81.13-.21,0-.12-.28.12s-.38.37-.55.54C123.53,55.45,123.05,56.06,123.25,56.06Z"/></g><g class="cls-18"><path class="cls-19" d="M77.35,60s-5.66,4.66-4.66,5S73.75,63.56,77.35,60Z"/><path class="cls-20" d="M75.23,61.84a2.76,2.76,0,0,1-.33.63c-.6.9-1.84,2.42-2.32,2.34a.17.17,0,0,0,.11.18c1,.29,1.06-1.43,4.66-5C77.35,60,76.33,60.85,75.23,61.84Z"/><path class="cls-21" d="M72.81,64.58c.41,0,1.59-1.82,1.59-1.82.12-.21,0-.11-.28.12s-.38.37-.55.55C73.08,64,72.6,64.57,72.81,64.58Z"/></g><g class="cls-18"><path class="cls-19" d="M37.31,50s-5.66,4.67-4.65,5S33.71,53.56,37.31,50Z"/><path class="cls-20" d="M35.19,51.84a3,3,0,0,1-.33.63c-.6.89-1.84,2.42-2.32,2.34a.15.15,0,0,0,.12.17c1,.3,1.05-1.42,4.65-5C37.31,50,36.28,50.85,35.19,51.84Z"/><path class="cls-21" d="M32.77,54.57c.42,0,1.59-1.81,1.59-1.81.13-.21,0-.11-.29.12l-.54.55C33,54,32.56,54.57,32.77,54.57Z"/></g></g><g class="cls-23"><g class="cls-18"><path class="cls-19" d="M22.42,119.05s-7.51,6.2-6.17,6.61S17.66,123.77,22.42,119.05Z"/><path class="cls-20" d="M19.61,121.49a3.75,3.75,0,0,1-.45.84c-.78,1.18-2.43,3.21-3.07,3.11a.21.21,0,0,0,.16.22c1.27.4,1.41-1.89,6.17-6.61C22.42,119.05,21.06,120.17,19.61,121.49Z"/><path class="cls-21" d="M16.39,125.12c.56,0,2.13-2.41,2.13-2.41.15-.28-.05-.15-.38.16l-.73.73C16.76,124.3,16.12,125.11,16.39,125.12Z"/></g><g class="cls-18"><path class="cls-19" d="M22.82,133.74s-7.51,6.19-6.17,6.61S18.05,138.46,22.82,133.74Z"/><path class="cls-20" d="M20,136.17a3.25,3.25,0,0,1-.44.84c-.79,1.19-2.44,3.22-3.08,3.11a.23.23,0,0,0,.16.23c1.27.39,1.4-1.89,6.17-6.61C22.82,133.74,21.47,134.85,20,136.17Z"/><path class="cls-21" d="M16.79,139.8c.56,0,2.13-2.41,2.13-2.41.16-.27-.05-.15-.39.16l-.72.73C17.16,139,16.52,139.79,16.79,139.8Z"/></g><g class="cls-18"><path class="cls-19" d="M153.15,178.61A39.5,39.5,0,0,1,158,172.8s-4.9,4-6.07,5.81Z"/><path class="cls-20" d="M153.15,178.61A39.5,39.5,0,0,1,158,172.8s-1.35,1.12-2.81,2.44a3.6,3.6,0,0,1-.44.84,15.43,15.43,0,0,1-2.09,2.53Z"/><path class="cls-21" d="M152.39,178.61a14.05,14.05,0,0,0,1.68-2.15c.15-.28,0-.15-.38.16l-.72.72a8.22,8.22,0,0,0-1,1.27Z"/></g><g class="cls-18"><path class="cls-19" d="M13.72,133.51S2.83,143.2,5.24,143.66,7.05,140.8,13.72,133.51Z"/><path class="cls-20" d="M9.68,137.3a4.37,4.37,0,0,1-.49,1.26c-1,1.79-3.17,4.87-4.29,4.79a.38.38,0,0,0,.34.31c2.27.44,1.81-2.86,8.48-10.15C13.72,133.51,11.75,135.25,9.68,137.3Z"/><path class="cls-21" d="M5.31,142.86c1,0,2.89-3.68,2.89-3.68.17-.42-.13-.22-.61.26s-.69.76-1,1.13C5.69,141.65,4.85,142.87,5.31,142.86Z"/></g><g class="cls-18"><path class="cls-19" d="M42.21,112.44s-12.47,11.1-9.7,11.63C35.11,124.56,34.58,120.79,42.21,112.44Z"/><path class="cls-20" d="M37.58,116.79a4.37,4.37,0,0,1-.56,1.44c-1.12,2-3.62,5.58-4.9,5.48a.43.43,0,0,0,.39.36c2.6.49,2.07-3.28,9.7-11.63C42.21,112.44,40,114.45,37.58,116.79Z"/><path class="cls-21" d="M32.59,123.15c1.09,0,3.3-4.21,3.3-4.21.2-.49-.15-.25-.7.3-.4.44-.79.87-1.14,1.28C33,121.76,32.06,123.17,32.59,123.15Z"/></g><g class="cls-18"><path class="cls-19" d="M10.31,118.2s-7.52,6.19-6.17,6.61S5.54,122.92,10.31,118.2Z"/><path class="cls-20" d="M7.49,120.63a3.25,3.25,0,0,1-.44.84c-.79,1.19-2.44,3.22-3.08,3.11a.22.22,0,0,0,.17.23c1.26.39,1.4-1.89,6.17-6.61C10.31,118.2,9,119.31,7.49,120.63Z"/><path class="cls-21" d="M4.28,124.26c.56,0,2.12-2.4,2.12-2.4.15-.28-.05-.16-.39.16l-.72.72C4.64,123.45,4,124.26,4.28,124.26Z"/></g><g class="cls-18"><path class="cls-19" d="M144.62,55S133.17,66.43,136,66.89C138.62,67.32,137.74,63.57,144.62,55Z"/><path class="cls-20" d="M140.39,59.5A4.48,4.48,0,0,1,140,61c-.94,2.07-3.12,5.66-4.41,5.6a.47.47,0,0,0,.42.34c2.65.43,1.77-3.32,8.65-11.85C144.62,55,142.55,57.1,140.39,59.5Z"/><path class="cls-21" d="M136,66c1.08-.07,2.91-4.29,2.91-4.29.16-.48-.17-.24-.67.32s-.71.89-1,1.31C136.28,64.58,135.45,66,136,66Z"/></g><g class="cls-18"><path class="cls-19" d="M160.7,64.18s-7.52,6.19-6.17,6.61S155.93,68.9,160.7,64.18Z"/><path class="cls-20" d="M157.89,66.61a3.37,3.37,0,0,1-.45.84c-.78,1.19-2.43,3.22-3.07,3.11a.21.21,0,0,0,.16.23c1.26.39,1.4-1.89,6.17-6.61C160.7,64.18,159.34,65.3,157.89,66.61Z"/><path class="cls-21" d="M154.67,70.24c.56,0,2.13-2.4,2.13-2.4.15-.28-.06-.16-.4.15l-.71.73C155,69.43,154.39,70.23,154.67,70.24Z"/></g><g class="cls-18"><path class="cls-19" d="M143.48,41.83S136,48,137.31,48.44,138.71,46.56,143.48,41.83Z"/><path class="cls-20" d="M140.67,44.27a3.55,3.55,0,0,1-.45.84c-.78,1.19-2.43,3.21-3.07,3.11a.2.2,0,0,0,.16.22c1.27.39,1.4-1.88,6.17-6.61C143.48,41.83,142.13,43,140.67,44.27Z"/><path class="cls-21" d="M137.45,47.9c.56,0,2.13-2.41,2.13-2.41.15-.28-.05-.15-.39.16l-.72.73C137.81,47.08,137.18,47.89,137.45,47.9Z"/></g><g class="cls-14"><path class="cls-15" d="M147.87,24.69s-7.75,6.65-6,7S143.12,29.69,147.87,24.69Z"/></g><g class="cls-14"><path class="cls-15" d="M149.6,11.13s-7.74,6.65-6,7S144.86,16.13,149.6,11.13Z"/></g><g class="cls-14"><path class="cls-15" d="M127.12,15.86s-7.75,6.65-6,7S122.37,20.86,127.12,15.86Z"/></g><g class="cls-14"><path class="cls-15" d="M151.6,37s-5.6,4.45-4.6,4.75S148,40.38,151.6,37Z"/></g><g class="cls-14"><path class="cls-15" d="M87.4,30.16s-7.74,6.65-6,7S82.66,35.17,87.4,30.16Z"/></g><g class="cls-14"><path class="cls-15" d="M122.49,5.1s-7.75,6.65-6,7S117.74,10.1,122.49,5.1Z"/></g><g class="cls-14"><path class="cls-15" d="M86.2,0c-1.58,1.38-7.09,6.33-5.62,6.61S81.9,4.75,86.28,0Z"/></g><g class="cls-14"><path class="cls-15" d="M32.22,5.5s-7.75,6.65-6,7S27.48,10.51,32.22,5.5Z"/></g><g class="cls-14"><path class="cls-15" d="M33,37.65s-7.75,6.65-6,7S28.26,42.65,33,37.65Z"/></g><g class="cls-14"><path class="cls-15" d="M50,43.91s-7.75,6.65-6,7S45.21,48.91,50,43.91Z"/></g><g class="cls-14"><path class="cls-15" d="M45.62,35s-7.75,6.64-6,7S40.87,40,45.62,35Z"/></g><g class="cls-14"><path class="cls-15" d="M73,12.33s-7.74,6.65-6,7S68.28,17.33,73,12.33Z"/></g><g class="cls-14"><path class="cls-15" d="M7.38,33.6s-7.74,6.65-6,7S2.64,38.6,7.38,33.6Z"/></g><g class="cls-14"><path class="cls-15" d="M0,26.83v1.8a33.8,33.8,0,0,1,4.62-6.15S1.86,24.85,0,26.83Z"/></g><g class="cls-14"><path class="cls-15" d="M21.12,36.84s-7.75,6.65-6,7S16.38,41.84,21.12,36.84Z"/></g><g class="cls-14"><path class="cls-15" d="M84.78,25.06s-5.59,4.45-4.59,4.75S81.24,28.45,84.78,25.06Z"/></g><g class="cls-14"><path class="cls-15" d="M70.6,31.93S65,36.38,66,36.68,67,35.33,70.6,31.93Z"/></g><g class="cls-14"><path class="cls-15" d="M52.86,27.48s-5.6,4.46-4.6,4.76S49.31,30.88,52.86,27.48Z"/></g><g class="cls-14"><path class="cls-15" d="M31.78,16.56s-5.6,4.45-4.6,4.75S28.23,20,31.78,16.56Z"/></g><g class="cls-14"><path class="cls-15" d="M60.35,12.53s-5.6,4.45-4.59,4.75S56.8,15.92,60.35,12.53Z"/></g><g class="cls-14"><path class="cls-15" d="M35.91,20s-5.6,4.45-4.6,4.74S32.36,23.4,35.91,20Z"/></g><g class="cls-14"><path class="cls-15" d="M24.08.6s-5.59,4.45-4.59,4.75S20.53,4,24.08.6Z"/></g><g class="cls-14"><path class="cls-15" d="M6.34,15.76S.75,20.21,1.75,20.51,2.8,19.16,6.34,15.76Z"/></g><g class="cls-14"><path class="cls-15" d="M33.36,31s-5.6,4.45-4.6,4.75S29.81,34.39,33.36,31Z"/></g><g class="cls-14"><path class="cls-15" d="M112.77,18s-5.59,4.45-4.59,4.75S109.22,21.38,112.77,18Z"/></g><path class="cls-19" d="M115.47,44.43S104,55.82,106.82,56.28,108.59,53,115.47,44.43Z"/><path class="cls-20" d="M111.23,48.89a4,4,0,0,1-.43,1.45c-.93,2.07-3.11,5.66-4.4,5.6a.47.47,0,0,0,.42.34c2.65.43,1.77-3.33,8.65-11.85C115.47,44.43,113.4,46.48,111.23,48.89Z"/><path class="cls-19" d="M146.52,47.31s-11.46,11.4-8.66,11.86C140.51,59.6,139.64,55.84,146.52,47.31Z"/><path class="cls-20" d="M142.29,51.77a4.19,4.19,0,0,1-.44,1.45c-.93,2.08-3.12,5.67-4.4,5.6a.46.46,0,0,0,.41.35c2.65.43,1.78-3.33,8.66-11.86C146.52,47.31,144.45,49.37,142.29,51.77Z"/><g class="cls-18"><path class="cls-21" d="M155.71,48.77c.95,0,2.88-3.68,2.88-3.68.17-.42-.13-.21-.61.26s-.69.76-1,1.13C156.08,47.56,155.25,48.79,155.71,48.77Z"/></g><g class="cls-18"><path class="cls-19" d="M137.69,31.76s-10.89,9.69-8.49,10.15S131,39.05,137.69,31.76Z"/><path class="cls-20" d="M133.64,35.56a3.81,3.81,0,0,1-.49,1.25c-1,1.79-3.17,4.87-4.28,4.79a.36.36,0,0,0,.33.31c2.28.43,1.81-2.86,8.49-10.15C137.69,31.76,135.72,33.51,133.64,35.56Z"/><path class="cls-21" d="M129.29,41.11c.94,0,2.87-3.68,2.87-3.68.18-.42-.13-.21-.6.26s-.7.76-1,1.13C129.66,39.9,128.81,41.13,129.29,41.11Z"/></g><g class="cls-18"><path class="cls-19" d="M0,20.08v2.27c2.78.25,2.47-4.26,11.26-13.87C11.26,8.48,2.64,16.16,0,20.08Z"/><path class="cls-20" d="M5.75,13.65a5.39,5.39,0,0,1-.66,1.72C4,17.45,1.61,20.81,0,21.68v.67c2.78.25,2.47-4.26,11.26-13.87C11.26,8.48,8.58,10.87,5.75,13.65Z"/><path class="cls-21" d="M2.92,16.57c-.5.52-1,1-1.38,1.52A20.32,20.32,0,0,0,0,20.19v1c1.34-.45,3.74-5,3.74-5C4,15.63,3.56,15.91,2.92,16.57Z"/></g><g class="cls-18"><path class="cls-19" d="M13.85,0c-1.58,1.46-3,3-2.42,3.2.85.27,1.14-.83,3.05-3.2Z"/><path class="cls-20" d="M14.18,0,14,.22c-.7,1.06-2.18,2.87-2.76,2.78a.18.18,0,0,0,.15.2c.85.27,1.14-.83,3.05-3.2Z"/><path class="cls-21" d="M11.56,2.71c.49,0,1.9-2.15,1.9-2.15.13-.25-.05-.14-.35.14s-.45.44-.64.65C11.88,2,11.31,2.71,11.56,2.71Z"/></g><g class="cls-18"><path class="cls-19" d="M21.13,12.52s-6.73,5.55-5.53,5.93S16.86,16.75,21.13,12.52Z"/><path class="cls-20" d="M18.6,14.7a3,3,0,0,1-.39.76c-.7,1.06-2.19,2.88-2.76,2.78a.21.21,0,0,0,.15.21c1.14.35,1.26-1.7,5.53-5.93C21.13,12.52,19.91,13.52,18.6,14.7Z"/><path class="cls-21" d="M15.73,18c.49,0,1.9-2.16,1.9-2.16.14-.25,0-.14-.35.14l-.64.65C16.05,17.22,15.48,18,15.73,18Z"/></g><g class="cls-18"><path class="cls-19" d="M9.82,42.58S-1.07,52.27,1.34,52.73,3.15,49.87,9.82,42.58Z"/><path class="cls-20" d="M5.78,46.38a4.15,4.15,0,0,1-.5,1.25c-1,1.79-3.16,4.87-4.28,4.79a.38.38,0,0,0,.34.31c2.27.43,1.81-2.86,8.48-10.15C9.82,42.58,7.86,44.33,5.78,46.38Z"/><path class="cls-21" d="M1.42,51.93c1,0,2.88-3.68,2.88-3.68.18-.42-.13-.21-.61.26s-.69.76-1,1.13C1.79,50.72,1,52,1.42,51.93Z"/></g><g class="cls-18"><path class="cls-19" d="M16.75,25.79S5.3,37.18,8.1,37.64,9.88,34.32,16.75,25.79Z"/><path class="cls-20" d="M12.52,30.25a4.41,4.41,0,0,1-.43,1.45c-.94,2.07-3.12,5.66-4.41,5.6a.44.44,0,0,0,.42.34c2.65.43,1.78-3.32,8.65-11.85C16.75,25.79,14.69,27.85,12.52,30.25Z"/><path class="cls-21" d="M8.11,36.73c1.09-.07,2.91-4.3,2.91-4.3.16-.48-.17-.24-.66.33s-.72.89-1,1.3C8.41,35.33,7.58,36.76,8.11,36.73Z"/></g><g class="cls-18"><path class="cls-19" d="M43,12.93s-11.46,11.4-8.65,11.85C37,25.22,36.12,21.46,43,12.93Z"/><path class="cls-20" d="M38.76,17.39a4.17,4.17,0,0,1-.43,1.45c-.93,2.07-3.11,5.66-4.4,5.6a.46.46,0,0,0,.42.34c2.64.44,1.77-3.32,8.65-11.85C43,12.93,40.93,15,38.76,17.39Z"/><path class="cls-21" d="M34.36,23.87c1.08-.07,2.9-4.29,2.9-4.29.17-.49-.16-.25-.65.32s-.72.89-1,1.3C34.65,22.47,33.82,23.9,34.36,23.87Z"/></g><g class="cls-18"><path class="cls-19" d="M64.74,29.18S52.27,40.27,55,40.8,57.11,37.52,64.74,29.18Z"/><path class="cls-20" d="M60.11,33.53A4.54,4.54,0,0,1,59.54,35c-1.12,2-3.62,5.57-4.9,5.48a.45.45,0,0,0,.39.35c2.61.5,2.08-3.28,9.71-11.62C64.74,29.18,62.49,31.18,60.11,33.53Z"/><path class="cls-21" d="M55.13,39.89c1.08,0,3.28-4.22,3.28-4.22.21-.48-.14-.24-.69.31s-.8.87-1.15,1.28C55.54,38.5,54.59,39.91,55.13,39.89Z"/></g><g class="cls-18"><path class="cls-19" d="M117.24,31.65s-7.51,6.19-6.17,6.61S112.47,36.37,117.24,31.65Z"/><path class="cls-20" d="M114.43,34.09a3.55,3.55,0,0,1-.45.84c-.78,1.19-2.44,3.21-3.07,3.11a.21.21,0,0,0,.16.22c1.26.39,1.4-1.89,6.17-6.61C117.24,31.65,115.88,32.77,114.43,34.09Z"/><path class="cls-21" d="M111.21,37.71c.56,0,2.13-2.4,2.13-2.4.15-.28,0-.15-.39.16s-.5.49-.72.73C111.58,36.9,110.94,37.71,111.21,37.71Z"/></g><g class="cls-18"><path class="cls-19" d="M101.72,36.79S94.21,43,95.55,43.4,97,41.51,101.72,36.79Z"/><path class="cls-20" d="M98.9,39.23a3.24,3.24,0,0,1-.44.84c-.79,1.18-2.43,3.21-3.07,3.11a.2.2,0,0,0,.16.22c1.27.39,1.4-1.89,6.17-6.61C101.72,36.79,100.36,37.91,98.9,39.23Z"/><path class="cls-21" d="M95.69,42.86c.56,0,2.12-2.41,2.12-2.41.15-.28,0-.15-.38.16l-.72.72C96.06,42,95.42,42.85,95.69,42.86Z"/></g><g class="cls-18"><path class="cls-19" d="M66.49,6.36S59,12.55,60.31,13,61.71,11.08,66.49,6.36Z"/><path class="cls-20" d="M63.67,8.79a3.83,3.83,0,0,1-.44.85c-.79,1.18-2.44,3.21-3.08,3.1a.23.23,0,0,0,.16.23c1.27.39,1.4-1.89,6.18-6.61C66.49,6.36,65.12,7.48,63.67,8.79Z"/><path class="cls-21" d="M60.45,12.42c.56,0,2.13-2.4,2.13-2.4.15-.28,0-.16-.39.15s-.5.5-.71.73C60.82,11.61,60.19,12.42,60.45,12.42Z"/></g><g class="cls-18"><path class="cls-19" d="M32.84,34.93s-7.53,6.2-6.18,6.61S28.07,39.65,32.84,34.93Z"/><path class="cls-20" d="M30,37.37a3.25,3.25,0,0,1-.44.84c-.79,1.19-2.44,3.21-3.08,3.11a.21.21,0,0,0,.16.22c1.27.39,1.41-1.89,6.18-6.61C32.84,34.93,31.47,36.05,30,37.37Z"/><path class="cls-21" d="M26.81,41c.55,0,2.12-2.41,2.12-2.41.15-.28-.05-.15-.38.16s-.5.49-.72.73C27.17,40.18,26.53,41,26.81,41Z"/></g><g class="cls-18"><path class="cls-19" d="M108.53,24.45s-7.52,6.19-6.17,6.61S103.76,29.17,108.53,24.45Z"/><path class="cls-20" d="M105.71,26.89a3.6,3.6,0,0,1-.44.84c-.79,1.18-2.43,3.2-3.08,3.1a.22.22,0,0,0,.17.23c1.26.39,1.4-1.89,6.17-6.61C108.53,24.45,107.17,25.56,105.71,26.89Z"/><path class="cls-21" d="M102.5,30.51c.55,0,2.12-2.4,2.12-2.4.15-.28,0-.16-.38.16s-.5.48-.72.72C102.86,29.7,102.23,30.5,102.5,30.51Z"/></g><g class="cls-18"><path class="cls-19" d="M68.35,41.07s-5.66,4.67-4.65,5S64.76,44.63,68.35,41.07Z"/><path class="cls-20" d="M66.23,42.91a2.39,2.39,0,0,1-.33.63c-.59.89-1.83,2.42-2.32,2.34a.16.16,0,0,0,.12.17c1,.3,1.06-1.42,4.65-5C68.35,41.07,67.33,41.91,66.23,42.91Z"/><path class="cls-21" d="M63.81,45.64c.42,0,1.6-1.81,1.6-1.81.12-.21,0-.12-.29.12l-.54.54C64.08,45,63.61,45.63,63.81,45.64Z"/></g><g class="cls-18"><path class="cls-19" d="M103.25,14.68s-10.41,9.25-8.1,9.7C97.31,24.79,96.87,21.64,103.25,14.68Z"/><path class="cls-20" d="M99.39,18.3a4,4,0,0,1-.48,1.2c-.94,1.71-3,4.66-4.09,4.58a.36.36,0,0,0,.33.3c2.16.41,1.72-2.74,8.1-9.7C103.25,14.68,101.36,16.35,99.39,18.3Z"/><path class="cls-21" d="M95.22,23.61c.9,0,2.74-3.52,2.74-3.52.18-.4-.11-.2-.57.26s-.67.72-1,1.07C95.57,22.45,94.77,23.63,95.22,23.61Z"/></g><g class="cls-18"><path class="cls-19" d="M101,.36S88.58,11.46,91.33,12,93.41,8.71,101,.36Z"/><path class="cls-20" d="M96.42,4.71a4.7,4.7,0,0,1-.57,1.44c-1.12,2-3.62,5.58-4.9,5.48a.41.41,0,0,0,.38.35c2.61.5,2.08-3.27,9.71-11.62C101,.36,98.79,2.37,96.42,4.71Z"/><path class="cls-21" d="M91.43,11.07c1.08,0,3.29-4.21,3.29-4.21.2-.49-.15-.25-.7.3L92.87,8.44C91.85,9.68,90.89,11.09,91.43,11.07Z"/></g><g class="cls-18"><path class="cls-19" d="M127.8,11.43s-5.66,4.66-4.65,5S124.21,15,127.8,11.43Z"/><path class="cls-20" d="M125.68,13.26a2.77,2.77,0,0,1-.33.64c-.6.89-1.83,2.41-2.32,2.34a.17.17,0,0,0,.12.17c1,.29,1.06-1.43,4.65-5C127.8,11.43,126.77,12.27,125.68,13.26Z"/><path class="cls-21" d="M123.25,16c.43,0,1.6-1.82,1.6-1.82.13-.21,0-.11-.28.12l-.55.55C123.53,15.38,123.05,16,123.25,16Z"/></g><g class="cls-18"><path class="cls-19" d="M77.35,19.94s-5.66,4.66-4.66,5S73.75,23.5,77.35,19.94Z"/><path class="cls-20" d="M75.23,21.77a3,3,0,0,1-.33.64c-.6.89-1.84,2.41-2.32,2.34a.16.16,0,0,0,.11.17c1,.3,1.06-1.42,4.66-5C77.35,19.94,76.33,20.78,75.23,21.77Z"/><path class="cls-21" d="M72.81,24.51c.41,0,1.59-1.82,1.59-1.82.12-.21,0-.11-.28.12s-.38.37-.55.55C73.08,23.89,72.6,24.5,72.81,24.51Z"/></g><g class="cls-18"><path class="cls-19" d="M37.31,9.94s-5.66,4.66-4.65,5S33.71,13.49,37.31,9.94Z"/><path class="cls-20" d="M35.19,11.77a3,3,0,0,1-.33.64c-.6.89-1.84,2.41-2.32,2.33a.16.16,0,0,0,.12.18c1,.29,1.05-1.43,4.65-5C37.31,9.94,36.28,10.78,35.19,11.77Z"/><path class="cls-21" d="M32.77,14.51c.42,0,1.59-1.82,1.59-1.82.13-.21,0-.11-.29.12l-.54.55C33,13.89,32.56,14.5,32.77,14.51Z"/></g><g class="cls-18"><path class="cls-19" d="M144.62,15S133.17,26.37,136,26.82C138.62,27.25,137.74,23.5,144.62,15Z"/><path class="cls-20" d="M140.39,19.43a4.41,4.41,0,0,1-.43,1.45c-.94,2.07-3.12,5.66-4.41,5.6a.47.47,0,0,0,.42.34c2.65.43,1.77-3.32,8.65-11.85C144.62,15,142.55,17,140.39,19.43Z"/><path class="cls-21" d="M136,25.9c1.08-.06,2.91-4.29,2.91-4.29.16-.48-.17-.24-.67.33s-.71.88-1,1.3C136.28,24.51,135.45,25.94,136,25.9Z"/></g><g class="cls-18"><path class="cls-19" d="M160.7,24.11s-7.52,6.19-6.17,6.61S155.93,28.83,160.7,24.11Z"/><path class="cls-20" d="M157.89,26.55a3.75,3.75,0,0,1-.45.84c-.78,1.18-2.43,3.21-3.07,3.11a.2.2,0,0,0,.16.22c1.26.39,1.4-1.89,6.17-6.61C160.7,24.11,159.34,25.23,157.89,26.55Z"/><path class="cls-21" d="M154.67,30.17c.56,0,2.13-2.4,2.13-2.4.15-.28-.06-.15-.4.16l-.71.72C155,29.36,154.39,30.17,154.67,30.17Z"/></g><g class="cls-18"><path class="cls-19" d="M143.48,1.76S136,8,137.31,8.38,138.71,6.49,143.48,1.76Z"/><path class="cls-20" d="M140.67,4.2a3.37,3.37,0,0,1-.45.84c-.78,1.19-2.43,3.21-3.07,3.11a.21.21,0,0,0,.16.23c1.27.39,1.4-1.89,6.17-6.62C143.48,1.76,142.13,2.88,140.67,4.2Z"/><path class="cls-21" d="M137.45,7.83c.56,0,2.13-2.41,2.13-2.41.15-.28-.05-.15-.39.16l-.72.73C137.81,7,137.18,7.82,137.45,7.83Z"/></g></g><g class="cls-24"><g class="cls-18"><path class="cls-19" d="M54.46,138.42s-7.52,6.19-6.17,6.61S49.69,143.14,54.46,138.42Z"/><path class="cls-20" d="M51.64,140.85a3.83,3.83,0,0,1-.44.85c-.79,1.18-2.44,3.21-3.08,3.1a.22.22,0,0,0,.17.23c1.26.39,1.4-1.89,6.17-6.61C54.46,138.42,53.1,139.53,51.64,140.85Z"/><path class="cls-21" d="M48.43,144.48c.55,0,2.12-2.4,2.12-2.4.16-.28,0-.16-.39.15s-.49.49-.71.73C48.79,143.66,48.15,144.47,48.43,144.48Z"/></g><g class="cls-18"><path class="cls-19" d="M89.11,169.4s-7.52,6.19-6.17,6.61S84.34,174.11,89.11,169.4Z"/><path class="cls-20" d="M86.29,171.83a3.25,3.25,0,0,1-.44.84c-.79,1.19-2.44,3.22-3.08,3.11a.22.22,0,0,0,.17.23c1.26.39,1.4-1.9,6.17-6.61C89.11,169.4,87.75,170.51,86.29,171.83Z"/><path class="cls-21" d="M83.08,175.46c.55,0,2.12-2.41,2.12-2.41.15-.28,0-.15-.38.16s-.5.5-.72.73C83.44,174.65,82.81,175.45,83.08,175.46Z"/></g><g class="cls-18"><path class="cls-19" d="M126.34,168.12s-7.51,6.19-6.17,6.61S121.57,172.84,126.34,168.12Z"/><path class="cls-20" d="M123.53,170.56a3.6,3.6,0,0,1-.44.84c-.79,1.18-2.44,3.21-3.08,3.1a.21.21,0,0,0,.16.23c1.27.39,1.4-1.89,6.17-6.61C126.34,168.12,125,169.24,123.53,170.56Z"/><path class="cls-21" d="M120.32,174.18c.55,0,2.12-2.4,2.12-2.4.15-.28,0-.15-.38.15l-.73.73C120.68,173.37,120,174.17,120.32,174.18Z"/></g><g class="cls-18"><path class="cls-19" d="M38.89,156.21s-11.45,11.39-8.65,11.85S32,164.74,38.89,156.21Z"/><path class="cls-20" d="M34.66,160.67a4.31,4.31,0,0,1-.44,1.45c-.93,2.07-3.12,5.66-4.4,5.6a.47.47,0,0,0,.42.34c2.65.43,1.77-3.32,8.65-11.85C38.89,156.21,36.82,158.27,34.66,160.67Z"/><path class="cls-21" d="M30.24,167.14c1.09-.06,2.91-4.29,2.91-4.29.16-.48-.16-.24-.66.32s-.71.9-1,1.31C30.55,165.75,29.71,167.18,30.24,167.14Z"/></g><g class="cls-18"><path class="cls-19" d="M14.65,150.77S3.19,162.16,6,162.62C8.64,163.05,7.77,159.3,14.65,150.77Z"/><path class="cls-20" d="M10.42,155.22a4.46,4.46,0,0,1-.44,1.46c-.93,2.07-3.12,5.66-4.4,5.6a.46.46,0,0,0,.42.34c2.64.43,1.77-3.32,8.65-11.85C14.65,150.77,12.58,152.82,10.42,155.22Z"/><path class="cls-21" d="M6,161.7c1.08-.06,2.9-4.29,2.9-4.29.17-.48-.16-.24-.66.33s-.71.88-1,1.3C6.31,160.31,5.47,161.74,6,161.7Z"/></g><g class="cls-18"><path class="cls-19" d="M54.59,161.8s-11.46,11.4-8.65,11.85C48.58,174.08,47.71,170.33,54.59,161.8Z"/><path class="cls-20" d="M50.35,166.26a4.41,4.41,0,0,1-.43,1.45c-.94,2.07-3.12,5.66-4.4,5.6a.46.46,0,0,0,.42.34c2.64.43,1.77-3.32,8.65-11.85C54.59,161.8,52.52,163.86,50.35,166.26Z"/><path class="cls-21" d="M45.94,172.74c1.08-.07,2.91-4.29,2.91-4.29.16-.49-.17-.25-.66.32s-.72.88-1,1.31C46.24,171.34,45.41,172.77,45.94,172.74Z"/></g><g class="cls-18"><path class="cls-19" d="M54.68,147.06s-12.72,11-10,11.55C47.3,159.13,46.86,155.35,54.68,147.06Z"/><path class="cls-20" d="M50,151.37a5,5,0,0,1-.6,1.44c-1.17,2-3.75,5.55-5,5.45a.41.41,0,0,0,.38.35c2.59.52,2.15-3.26,10-11.55C54.68,147.06,52.39,149,50,151.37Z"/><path class="cls-21" d="M44.82,157.69c1.09,0,3.39-4.19,3.39-4.19.21-.48-.14-.24-.7.3s-.81.87-1.18,1.28C45.27,156.31,44.29,157.71,44.82,157.69Z"/></g><g class="cls-18"><path class="cls-19" d="M34.71,140s-7.51,6.19-6.17,6.61S29.94,144.71,34.71,140Z"/><path class="cls-20" d="M31.9,142.43a4.05,4.05,0,0,1-.44.84c-.8,1.18-2.44,3.2-3.08,3.1a.23.23,0,0,0,.16.23c1.27.39,1.4-1.89,6.17-6.61C34.71,140,33.35,141.1,31.9,142.43Z"/><path class="cls-21" d="M28.68,146.05c.56,0,2.13-2.4,2.13-2.4.15-.28,0-.16-.39.15l-.72.73C29.05,145.24,28.41,146,28.68,146.05Z"/></g><g class="cls-18"><path class="cls-19" d="M82.76,157.28s-7.51,6.19-6.17,6.61S78,162,82.76,157.28Z"/><path class="cls-20" d="M80,159.71a3.44,3.44,0,0,1-.44.85c-.79,1.18-2.44,3.21-3.07,3.1a.21.21,0,0,0,.15.23c1.27.39,1.41-1.89,6.17-6.61C82.76,157.28,81.41,158.39,80,159.71Z"/><path class="cls-21" d="M76.74,163.35c.55,0,2.12-2.41,2.12-2.41.16-.28,0-.15-.39.15l-.71.73C77.1,162.53,76.47,163.34,76.74,163.35Z"/></g><g class="cls-18"><path class="cls-19" d="M19.35,164.66s-7.51,6.2-6.17,6.61S14.59,169.39,19.35,164.66Z"/><path class="cls-20" d="M16.54,167.1a3.25,3.25,0,0,1-.44.84c-.79,1.19-2.44,3.21-3.07,3.11a.19.19,0,0,0,.15.22c1.27.4,1.41-1.88,6.17-6.61C19.35,164.66,18,165.78,16.54,167.1Z"/><path class="cls-21" d="M13.33,170.73c.55,0,2.12-2.4,2.12-2.4.16-.29,0-.16-.39.15l-.72.73C13.69,169.92,13.05,170.72,13.33,170.73Z"/></g><g class="cls-18"><path class="cls-19" d="M69.18,158.78S61.67,165,63,165.4,64.41,163.51,69.18,158.78Z"/><path class="cls-20" d="M66.37,161.22a3.22,3.22,0,0,1-.45.85c-.78,1.18-2.43,3.2-3.07,3.1a.21.21,0,0,0,.16.23c1.27.39,1.4-1.89,6.17-6.62C69.18,158.78,67.83,159.91,66.37,161.22Z"/><path class="cls-21" d="M63.16,164.85c.55,0,2.12-2.41,2.12-2.41.15-.27,0-.15-.39.16s-.5.49-.72.73C63.52,164,62.88,164.85,63.16,164.85Z"/></g></g><path class="cls-25" d="M130.28,120.4A46.07,46.07,0,0,0,128.5,113a11.47,11.47,0,0,0-1-2.69c-.2-.35-1.55-2.13-.82-2.36.34-.11,1-.78.47-1.07-.21-.1-.42-.2-.63-.28,1-.64,2.7-1.57,1.41-2.4a7.36,7.36,0,0,0-1.62-.77c-.78-4.12-2.84-8.14-4.51-12-.92-2.1-2.49-4.18-2.91-6.45a4,4,0,0,0-.68-1.9c-.57-.62-2.66-.9-1.51-2.22a1.86,1.86,0,0,0,.24-2.4A11.6,11.6,0,0,0,115.6,77a6.09,6.09,0,0,1-1.3-3.24c-.37-2.31-.5-4.67-.85-7a34.76,34.76,0,0,1-.86-6.53,23.18,23.18,0,0,1,3.1.36c.12,0,.28-.12.35-.26a.17.17,0,0,0,0-.21,5.36,5.36,0,0,0-3.37-1.89c-.38-1.69.18-3.83.27-5.53.14-2.36.21-4.71.34-7.06a37.63,37.63,0,0,0,.09-5.91,5.33,5.33,0,0,0-.57-2.15c-.43-.78.51-.56,1-.71.35-.1.88-.54.68-1-.55-1.19-2-1.47-3-2a33.14,33.14,0,0,0-6.11-1.77c-2-.51-4-1-6-1.32a34.57,34.57,0,0,0-4.31-.43c-13.55-2.16-27.57-.31-40.6,3.81a116.86,116.86,0,0,0-22,9.82c-1.59.9-3.15,1.84-4.7,2.83,0,0,0,0-.07,0C23.53,49.47,18.06,52,16.4,57c-.06.17-.12.51.14.58a7.39,7.39,0,0,0,3-.08C19.14,60.11,21.66,63,23,65.08s2.32,4.62,4.25,6.19a21.39,21.39,0,0,0-1.4,8.66c0,.16.13.17.25.11,0,.11.06.21.1.32s.14,0,.12-.09a3,3,0,0,1-.1-.32.32.32,0,0,0,.12-.17A15.69,15.69,0,0,1,28.24,74c.69,2.89,3.39,5.05,5.47,7A41,41,0,0,0,45,88.05a49.39,49.39,0,0,0,12.69,3.38,68.16,68.16,0,0,1,7.63,1.38,29.53,29.53,0,0,1,5.82,2.63A3,3,0,0,0,71,97.58c.63,1.4,2.15.93,3.51.27,4.35-.45,8,2.84,11.4,5.16a90.86,90.86,0,0,1,8.25,6.13l-.09.13.37.35h0l.11-.13c.51.45,1,.91,1.49,1.4a46.85,46.85,0,0,1,5.15,6.19c.64.86,1.25,1.75,1.81,2.67,2.15,3.52,3.56,7.57,2.78,11.63a23.18,23.18,0,0,1-1.69,10.4.25.25,0,0,0,0,.16,46.55,46.55,0,0,0-5.85,2.55.15.15,0,0,0-.15,0c-.5.85-1.36,1.38-1.51,2.4a1.78,1.78,0,0,0,.86,1.54c-3.6,1-6.54,3.22-9.77,5-.13.07-.19.34,0,.26,3-1.31,5.83-3,8.95-4-4.28,4.37-8.42,8.62-11.39,14.08a18,18,0,0,0-2.62,9.09,8,8,0,0,0,1.6,4.51,1.42,1.42,0,0,0,.08.18l.41-.32a7,7,0,0,1,0-2.81c0-.16,0-.33,0-.49a9.72,9.72,0,0,1,1.87-4.39,21.65,21.65,0,0,1,8.89-6.91c5.87-2.67,12-4.52,17.67-7.71a32.81,32.81,0,0,0,13-13,36.74,36.74,0,0,0,2.67-6.52.3.3,0,0,0,0-.1s0-.08,0-.13a39.48,39.48,0,0,0,1-4.1,22.21,22.21,0,0,0,.36-4A30.22,30.22,0,0,0,130.28,120.4Z"/><path class="cls-26" d="M128.63,132A38.58,38.58,0,0,1,124,143.46c-3.72,6.09-9.91,10.16-16.15,13.33-6,3.05-13,4.67-18.28,9a16.69,16.69,0,0,0-5.2,6.69,8.89,8.89,0,0,0-.55,2.16,13.46,13.46,0,0,1-.08-3.63c.34-3.16,1.92-6.11,3.45-8.83,2.78-5,6.72-9,10.9-12.78,3.79-.79,7.7-.57,11.55-.84.24,0,.53-.5.18-.57a30.44,30.44,0,0,0-10.85.16.26.26,0,0,0-.07-.11c-.65-.6-2-1.11-1.15-2.39a3.38,3.38,0,0,0,.37-.7h0c2.77-.87,5.36-2.12,8.22-2.73a19.38,19.38,0,0,1,4.66-.34c.59-.08,1.19-.15,1.79-.2a21.09,21.09,0,0,1,3.18,0l.72,0a.2.2,0,0,0-.11-.09c-4-1.59-8.09-1.15-12,.12a19.58,19.58,0,0,0,2.12-12.14,22.37,22.37,0,0,0-2.38-9.47,43,43,0,0,0-8-10.34l-1.09-1a20.94,20.94,0,0,1,2.43-1.9,38.31,38.31,0,0,1,7.16-3.65c5.31-2.17,11.46-3.55,17.13-2.14a.31.31,0,0,0,.27-.11,18.18,18.18,0,0,0-5-.61c-1.74,0-3.48,0-5.22.09-1,.06-2,.15-3,.26-1.28.38-2.54.83-3.75,1.31a40.37,40.37,0,0,0-7.86,4.13,14.29,14.29,0,0,0-2.58,2.21,78,78,0,0,0-9.38-7.45c-2.87-1.94-6.07-4.26-9.56-3.74a5.21,5.21,0,0,1,.61-.28c.24-.09.42-.66,0-.55-.78.23-1.51.57-2.26.87-.5.21-1.28.57-1.79.19s-.11-1.76,0-2.22A20.75,20.75,0,0,1,77.41,88,50.85,50.85,0,0,1,92.27,77.63c.1,0,.13-.24,0-.18-6.63,2.72-13.09,6.76-17.68,12.34a22.9,22.9,0,0,0-1.64,2.3c1.34-3.66,4-6.72,6.85-9.38a53.42,53.42,0,0,1,6.37-4.94A25.72,25.72,0,0,1,89.44,76l-3.7,1.44a42.75,42.75,0,0,0-6.8,5.09c-3.15,2.86-7.58,7.43-7.42,12.09-.08.18-.17.37-.25.56a37.59,37.59,0,0,0-11.2-4.47c-4.24-1.08-8.51-1.64-12.62-3.21a43.53,43.53,0,0,1-4.25-1.88c1.91-5.11,5.75-8.5,9.62-12.25.14-.14,0-.27-.15-.15a55.87,55.87,0,0,0-6.83,6.3c-1.09,1.31-3,3.63-3.44,5.69A46.59,46.59,0,0,1,36,81.1c-2.66-2-6-4.57-7.48-7.67a37.72,37.72,0,0,1,7.72-8.49.24.24,0,0,0,.09-.18l.29-.24a78.14,78.14,0,0,1,18.6-11.07A139.14,139.14,0,0,1,89,43.5c1.82-.41,3.63-.8,5.47-1.14.88-.16,1.77-.31,2.66-.45-7.63-.36-15.34,1.44-22.6,3.58A157.11,157.11,0,0,0,52.6,53.56,72.46,72.46,0,0,0,34.06,66.1a31.2,31.2,0,0,0-2.85,3,22.33,22.33,0,0,0-4.39,6.81,43.26,43.26,0,0,1,3.24-8.25A31.76,31.76,0,0,1,36.51,59,53.7,53.7,0,0,1,55.25,47.43c.07,0,.09-.16,0-.12A53.24,53.24,0,0,0,35.62,58.82a34.24,34.24,0,0,0-8.23,11.95c-1.32-1.51-2-3.53-3-5.25-.7-1.2-1.47-2.36-2.18-3.56-.89-1.49-2.17-3.31-1.5-5.09.08-.23.07-.62-.27-.62a20.66,20.66,0,0,1-2.82.25A10,10,0,0,1,20,52.85a10,10,0,0,0-1.27,2c-.08.18.16.13.22,0,1.46-2.65,4.21-4.36,6.71-5.92,2.81-1.74,5.65-3.4,8.57-4.94a121.13,121.13,0,0,1,21.36-9,95.88,95.88,0,0,1,45.06-3q1.73.42,3.45,1c1.64.52,3.33.88,5,1.45a15.2,15.2,0,0,1,3.81,1.77c-.64.26-1.29.65-.94,1.18,1.44,2.22.89,4.93.62,7.44s-.44,5.12-.51,7.68c0,1.25.09,2.47.08,3.71a10.9,10.9,0,0,0,.09,1.9c-.4-.07-.8-.14-1.17-.19a44,44,0,0,0-9.73-.34,94.49,94.49,0,0,0-13.9,2.35q-1.26.45-2.49.93A134.65,134.65,0,0,1,99.28,58.5a48.83,48.83,0,0,1,9.82.06,18.84,18.84,0,0,1,5.18,1c-3.59-.74-7.37-.26-11,.15A78.59,78.59,0,0,0,88.06,63c-8.94,2.87-17.7,7.1-24.94,13.16-.09.08,0,.21.09.13a83.14,83.14,0,0,1,23.73-12A77.76,77.76,0,0,1,101.86,61a65.8,65.8,0,0,1,10.3-.8,14,14,0,0,0-.08,4.71c.22,2.64.58,5.26.78,7.9a8.09,8.09,0,0,0,1.6,4.88,13,13,0,0,0,1.82,1.38c1,.83,0,1.59-.35,2.33l0,0c-3.71-1.53-8.17-.61-11.94.18-.07,0-.19.2-.06.2,1.91-.08,3.8-.34,5.71-.38,2.1,0,4.15.58,6.23.47.15.68,1.27,1.08,1.7,1.37a1.28,1.28,0,0,1,.44.56c-8.69-3.09-18.81.17-26.25,5-.08,0-.08.23,0,.16a42.47,42.47,0,0,1,12.69-4.56,33.61,33.61,0,0,1,6.94-.52,53.55,53.55,0,0,1,6.7.27c.2.73.16,1.66.37,2.22a35.26,35.26,0,0,0,1.63,3.46c1.09,2.19,2.1,4.42,3.16,6.63a31.52,31.52,0,0,1,2.61,6.76,23.81,23.81,0,0,0-4.81-.83c-4.26-.34-8.6.61-12.67,1.76a30.7,30.7,0,0,0-5.6,2.11c-.34.22-.66.46-1,.7-.55.4-1.1.82-1.63,1.26a28.68,28.68,0,0,1,7.52-3,45.25,45.25,0,0,1,11-1.75,30.86,30.86,0,0,1,7.34,1c.4.09.79.2,1.18.32.75.24.12.55-.3.8a3.71,3.71,0,0,0-1,.7c-3.33-1.09-7.11-.06-10.58.75-.54.19-1.06.39-1.59.61,1.71-.15,3.41-.38,5.12-.54a18.37,18.37,0,0,1,6.83.54,1.51,1.51,0,0,0,0,1.56c.36.76,1,1.4,1.42,2.14a22.78,22.78,0,0,1,1.36,4.41,32.82,32.82,0,0,1,1.1,5.37C129.35,124.79,129.42,128.4,128.63,132Z"/><path class="cls-27" d="M51.59,53.39a3.85,3.85,0,0,1,.72-1.9,5.8,5.8,0,0,1,.8-.92l.43-.4c.29-.25-.09-.63-.25-.83a.15.15,0,0,1,0-.17,7.71,7.71,0,0,1,1.4-1.51A53.06,53.06,0,0,0,36.51,59q-.93.91-1.8,1.89a2,2,0,0,0,1.95.8.11.11,0,0,1,.13.15,5.74,5.74,0,0,0-.43,2.22A71.5,71.5,0,0,1,51.61,54,2.83,2.83,0,0,1,51.59,53.39Z"/><path class="cls-27" d="M35.62,58.82A53.1,53.1,0,0,1,55,47.4a13,13,0,0,0,1.15-1.07c-4.67.22-8.66,4.1-13.43,3.47-.08,0-.1-.08-.09-.16C43,47.6,44.52,46,46,44.72a44.3,44.3,0,0,0,5.14-4.53c-1.37-.29-2.75,0-4.14-.18-.08,0-.1-.08-.09-.15a4.43,4.43,0,0,1,1.59-2.45A135.64,135.64,0,0,0,34.21,44c-2.61,1.37-5.16,2.85-7.67,4.39a5.21,5.21,0,0,0,2.29,0c.15,0,.16.14.09.23a4.3,4.3,0,0,0-.53,1.57,2.55,2.55,0,0,1-.23.62c0,.06.1.07.17.12A4.45,4.45,0,0,1,29.58,52a18.64,18.64,0,0,1,2.23,3.81A33.77,33.77,0,0,0,34,60c.07.09.13.19.21.29C34.66,59.76,35.14,59.28,35.62,58.82Z"/><path class="cls-27" d="M78.82,82.59l-1.22-.26c-.72-.16-1.91-.33-2.25-1.1a1.65,1.65,0,0,1,0-1.18,5.48,5.48,0,0,1,.33-.79l.32-.54c0-.06-.53-.14-.56-.15a13.58,13.58,0,0,0-4.89.7,8.54,8.54,0,0,1-4.22.35,6,6,0,0,1-3.79-3.31A10.69,10.69,0,0,1,62,73.74,2.38,2.38,0,0,0,60.2,72a2.57,2.57,0,0,1-1.64-1.23,2.37,2.37,0,0,1-.25-1.59c.37-1.46,1.74-2.46,2.73-3.5a11.4,11.4,0,0,0,1-1.17c.28-.39.34-.43-.22-.47A4.12,4.12,0,0,0,61,64c-.91.12-1.79.41-2.7.5-1.63.17-2.33-1.23-2.93-2.52-.72-1.56-1.4-3.09-2.25-4.59A16.13,16.13,0,0,1,51.84,55a77.16,77.16,0,0,0-15.18,9.52l-.18.15a1.66,1.66,0,0,0,.12.31,4.09,4.09,0,0,0,1.47,1.48A13.13,13.13,0,0,1,42,69.67c1.68,2.37,3.68,6.27,6.79,6.85,1.28-1.14,2.62-2.23,3.92-3.35.14-.12.29,0,.15.15-1.14,1.1-2.27,2.18-3.36,3.27a4.41,4.41,0,0,0,1.12-.12c.12,0,.15.11.11.2-1,2.09.48,3.58,2.18,4.62s3.85,2.48,6,2.71c2.3.24,5.06-.41,7.13.91a2.73,2.73,0,0,1,1.21,1.54,2.77,2.77,0,0,0,2,1.93c1.09.26,2.21.3,3.3.54a3.26,3.26,0,0,1,.63.18A30.47,30.47,0,0,1,78.82,82.59Z"/><path class="cls-27" d="M96.13,101.69a4,4,0,0,1,.64,1.48,2.9,2.9,0,0,1,.07.66c0,.38.2.29.52.39a5.56,5.56,0,0,1,1.68.86,42.76,42.76,0,0,1,5.22-2.67c-.42-.51-.86-1-1.33-1.49-1.54-1.55-3.17-3-4.75-4.51-.89-.85-1.83-1.64-2.71-2.49-.33-.33-1.39-.91-1.36-1.48a3.06,3.06,0,0,1,.71-1.4c.27-.44.33-1.68-.28-1.83a4.38,4.38,0,0,0-2.24.42c-1.27.46-2.44,1.06-3.8.68a8.15,8.15,0,0,1-4.1-2.82c-.88-1.06-1.64-2.41-2.64-3.41A38.76,38.76,0,0,0,77.41,88c-.67.69-1.34,1.43-2,2.22,1.9,1.06,3.8,2.16,5.8,3.05,2.65,1.18,5.39,2.17,8,3.45C91.67,97.91,94.61,99.35,96.13,101.69Z"/><path class="cls-27" d="M81.2,83.59a4.85,4.85,0,0,0-1.52-.77,29.35,29.35,0,0,0-5.55,6.7l.47.25A36.87,36.87,0,0,1,81.2,83.59Z"/><path class="cls-27" d="M104.83,103.22a47.86,47.86,0,0,0-5.14,2.41,10.3,10.3,0,0,1,1.32,1.55l.19.26c.2-.15.4-.31.61-.45s.65-.48,1-.7a26.91,26.91,0,0,1,3.23-1.36c-.36-.6-.75-1.17-1.16-1.73Z"/><path class="cls-27" d="M74.39,90,74,89.82a15.47,15.47,0,0,0-1,2.27A21.91,21.91,0,0,1,74.39,90Z"/><path class="cls-27" d="M112.24,146.43a12.84,12.84,0,0,0,2.49-3.86c.12-.27.3-.59.46-.93a17,17,0,0,0-2.36,0c-.6.05-1.2.12-1.79.2H111a5.54,5.54,0,0,1-.4.81,7.77,7.77,0,0,1-3,2.67c.23.17.48.33.71.52s0,.25-.11.27a7.75,7.75,0,0,0-3.08,1.44,26.66,26.66,0,0,1,4.73.41c.21,0,.19.24.08.39A15.91,15.91,0,0,0,112.24,146.43Z"/><path class="cls-27" d="M102.51,152.59c2.34-1.36,4.89-2.5,7.14-4-2,.14-4,.15-6,.23a24.2,24.2,0,0,1-3.49,2.9c-.69.43-2.08.62-2.49,1.38-.32.57-.4,1.25-.7,1.82-.61,1.15-2.27,1.84-3.35,2.46A15.25,15.25,0,0,0,89.08,161c-1.12,1.42-2.27,2.82-3.26,4.33-.37.57-.73,1.15-1,1.75a15.38,15.38,0,0,0-1,3.93,14.85,14.85,0,0,0-.06,2.42c0-.21.11-.42.16-.63a25.47,25.47,0,0,1,4.1-8.2,15.82,15.82,0,0,1,6.39-5.33,5.92,5.92,0,0,0,2.85-2.08,8,8,0,0,1,1-1.86c1.1-1.19,3-1.36,4.54-1.79a1.27,1.27,0,0,1-.3-.74A.21.21,0,0,1,102.51,152.59Z"/><path class="cls-27" d="M115.64,138.68c-.3-.5-.9-1.16-.85-1.8a5.62,5.62,0,0,1,.89-2c1-1.86.84-4.34.61-6.37a28.14,28.14,0,0,0-1.37-5.94,19.72,19.72,0,0,1-1.31-5.33c-.14-2.34-1.7-3.55-3.27-5.09s-2.31-3.55-3.28-5.39c-.2-.38-.41-.74-.62-1.11a29.4,29.4,0,0,0-5.12,2c1,1.4,1.89,2.83,2.88,4.22a30.63,30.63,0,0,1,3.32,5.81,42.39,42.39,0,0,1,2,5.82c.15.59.3,1.18.44,1.77.09.37.15,1.4.45,1.65A14.3,14.3,0,0,1,112,128a1.47,1.47,0,0,1,.16,1.5,6.71,6.71,0,0,0-.54,2.45c.08,1.18.34,2.35.35,3.54a23.23,23.23,0,0,1-.3,3.1,17.46,17.46,0,0,1-.31,2,14.74,14.74,0,0,1,4,.59A2.77,2.77,0,0,0,115.64,138.68Z"/><path class="cls-28" d="M73.1,31.9c.06,0,.07.1.06.15-.45,1.62-2.47,2.21-3.9,2.58A41,41,0,0,0,63.6,36c.93.06,1.85,0,2.78-.05.16,0,.09.24,0,.28-4.07,1.45-8.48,2.46-12,5.08a31.5,31.5,0,0,0,6.79-1.26c1.93-.5,3.88-.89,5.81-1.41,3.39-.91,7.33-2.28,10.86-1.38.15,0,0,.24,0,.28A31.69,31.69,0,0,0,75,39.13a6,6,0,0,0,2.11.1c.18,0,.15.18.06.26A12.88,12.88,0,0,1,72,41.76c-1.89.52-3.72,1.15-5.55,1.85a53.06,53.06,0,0,0-5.69,2.46,13.94,13.94,0,0,0-4.52,3.37c4.51-.9,8.68-3,13.21-3.85.19,0,.14.23,0,.28a32.24,32.24,0,0,0-4.7,2.26c1-.14,2-.32,3-.52q3.38-1.12,6.77-2.12c7.26-2.14,15-3.94,22.6-3.58-.89.14-1.78.29-2.66.45-1.84.34-3.65.73-5.47,1.14l-1.43.23c-4.38,1.32-9,2.24-13,4.37,1.23-.17,2.45-.4,3.69-.55.18,0,.15.22,0,.28C71.16,50.89,63.55,53.16,57.4,58a11.64,11.64,0,0,0,4.09-.61c1.5-.41,3-.77,4.52-1.11,3.57-.79,7.15-1.54,10.77-2.06.19,0,.15.22,0,.28a23.62,23.62,0,0,0-3.89,2c1.84.13,4.44-.73,5.76.8.07.07,0,.17,0,.23a9.07,9.07,0,0,0-1.28,1.74c4,.67,8.34-1.28,12.22.11a85.85,85.85,0,0,1,11.72-1.86,44,44,0,0,1,9.73.34c.37,0,.77.12,1.17.19a10.9,10.9,0,0,1-.09-1.9c0-1.24-.12-2.46-.08-3.71.07-2.56.24-5.13.51-7.68s.82-5.22-.62-7.44c-.35-.53.3-.92.94-1.18A15.2,15.2,0,0,0,109,34.43c-1.63-.57-3.32-.93-5-1.45q-1.72-.54-3.45-1a92,92,0,0,0-30.11-.4A10.16,10.16,0,0,1,73.1,31.9Z"/><path class="cls-28" d="M56.05,35c2.27-.59,4.49-1.33,6.74-2q-3.63.82-7.22,1.91A111.36,111.36,0,0,0,39.7,41.25C45.21,39.37,50.39,36.49,56.05,35Z"/><path class="cls-28" d="M88.86,62.72a79.1,79.1,0,0,1,14.44-3c3.61-.41,7.39-.89,11-.15a18.84,18.84,0,0,0-5.18-1,48.83,48.83,0,0,0-9.82-.06c-3,.28-6,.74-8.9,1.29h0c.1.05.06.19,0,.25a6.16,6.16,0,0,1-1.22.73c.47,0,.86.13.83.51C89.94,61.83,89.38,62.33,88.86,62.72Z"/><path class="cls-28" d="M116.69,103.62c.64.46,1.66,1.22,1.36,2.15a2.65,2.65,0,0,1-.48.83c2.84-.64,5.77-1.12,8.42-.25a3.71,3.71,0,0,1,1-.7c.42-.25,1-.56.3-.8-.39-.12-.78-.23-1.18-.32a30.86,30.86,0,0,0-7.34-1C118,103.53,117.37,103.57,116.69,103.62Z"/><path class="cls-28" d="M83.84,174.63a8.73,8.73,0,0,1,.19-1,6,6,0,0,0-.21.89A.59.59,0,0,1,83.84,174.63Z"/><path class="cls-28" d="M86.33,64.47c-1.1.7-2.24,1.34-3.35,2,1.58-.34,3.11-.89,4.7-1.15,1.22-.2,3-.49,3.9.67,0,.06,0,.17-.07.21-.55.33-.8.94-1.23,1.4a24.61,24.61,0,0,0,2.85.13c.07,0,.11.09.08.16a5,5,0,0,1-.94,1.44,7.79,7.79,0,0,1,1.18,0c.1,0,.12.12.08.2-.5.76-1.17,1.37-1.68,2.11,1.14.18,2.62.43,2,1.86a3.09,3.09,0,0,0-.39,2.29,2.65,2.65,0,0,0,1.74,1.6,24.25,24.25,0,0,0,6,.82c1.6.15,3.53.3,4.79,1.42a.17.17,0,0,1,0,.21,6.12,6.12,0,0,1-2.19,1.38,7,7,0,0,0,1.12-.14c.15,0,.16.14.09.23l-.07.07c3.57-.74,7.64-1.42,11.06,0l0,0c.37-.74,1.34-1.5.35-2.33a13,13,0,0,1-1.82-1.38,8.09,8.09,0,0,1-1.6-4.88c-.2-2.64-.56-5.26-.78-7.9a14,14,0,0,1,.08-4.71,65.8,65.8,0,0,0-10.3.8,77.76,77.76,0,0,0-14.92,3.26Z"/><path class="cls-28" d="M108.36,84l0,0c-1,1.11-2.5,1.6-3.75,2.4a8.63,8.63,0,0,1,3.08.31c.1,0,.07.15,0,.22a7.06,7.06,0,0,1-2.38,1.77c-.82.47-2.47,1.14-2.75,2.16-.64,2.35,3.79,1.65,5,1.69,1.63,0,4.23-.09,5.32,1.43a3.59,3.59,0,0,1,.7,2.52c0,.33-.22.62-.29.94-.18.72.89.77,1.36.84.11,0,.12.12.08.19-.25.52-1.23,1.23-1.76,1.94,1.41-.05,2.81-.05,4.22,0a18.18,18.18,0,0,1,5,.61.31.31,0,0,1-.27.11,22.48,22.48,0,0,0-9.28-.17.85.85,0,0,0,.34,1,5.46,5.46,0,0,0,1.83.76,26.47,26.47,0,0,1,6.22-.29,23.81,23.81,0,0,1,4.81.83,31.52,31.52,0,0,0-2.61-6.76c-1.06-2.21-2.07-4.44-3.16-6.63a35.26,35.26,0,0,1-1.63-3.46c-.21-.56-.17-1.49-.37-2.22a53.55,53.55,0,0,0-6.7-.27C110.39,83.89,109.37,83.9,108.36,84Z"/><path class="cls-28" d="M128.54,115.82a22.78,22.78,0,0,0-1.36-4.41c-.42-.74-1.06-1.38-1.42-2.14a1.51,1.51,0,0,1,0-1.56,18.37,18.37,0,0,0-6.83-.54l-2,.21-.19.24a2.54,2.54,0,0,0-.55,1.83c.14.81,1,1.31,1.57,1.78a4.23,4.23,0,0,1,1.57,1.76c.34.82.58,1.66.84,2.5.73,2.32,2.18,5.78-.22,7.54.77.53,2.08.68,2.26,1.74s-1.73,1.42-.84,2.62c.68.9,2,1.28,2.51,2.31a1.74,1.74,0,0,1-.53,2.2,11.32,11.32,0,0,1-3.33,1.67,9.42,9.42,0,0,0-1.82.85c-.21.13.19.55.32.74s.36.51.56.76c.34.43,1.13,1.08.95,1.72-.23.85-1.24,1.51-1.92,2,.47.6.7,1.42,1.37,1.84.09,0,0,.19,0,.23a10.24,10.24,0,0,1-4,1c-.48.09-1.42.16-1.66.68-.35.74.7,1.81,1.12,2.29a.18.18,0,0,1,0,.24c-1.55,1.32-3.75,1.07-5.49,1.91l.5.08c.35.07.06.55-.18.57l-1.08.06c.56.59,1.35,1.39,1.3,2.16a1,1,0,0,1-.38.76c-.36.27-1.52.41-1.12.94.07.09-.06.21-.14.24-1.86.54-3.14,1.88-4.57,3.09a10.77,10.77,0,0,1-2.83,1.75c-1.21.5-5.74,1.77-4.86,3.72a.19.19,0,0,1-.14.25c-2.38.37-4.48,2.21-6.13,3.88-.45.45-.88.92-1.29,1.4.37-.36.77-.7,1.17-1,5.29-4.32,12.26-5.94,18.28-9,6.24-3.17,12.43-7.24,16.15-13.33A38.58,38.58,0,0,0,128.63,132c.79-3.55.72-7.16,1-10.76A32.82,32.82,0,0,0,128.54,115.82Z"/><path class="cls-28" d="M115.85,81.92c-2.08.11-4.13-.51-6.23-.47-1.71,0-3.41.24-5.11.35-1.54,1.43-3.71,1.87-5.48,3a7.18,7.18,0,0,0,.8,0c5.87-2.19,12.33-3,18.16-.9a1.28,1.28,0,0,0-.44-.56C117.12,83,116,82.6,115.85,81.92Z"/><path class="cls-25" d="M116.56,145.64c-1.93-1-4.42-1.19-6.57-1.35a23.41,23.41,0,0,0-7.27.65c-.1,0-.22.27,0,.24a25.71,25.71,0,0,1,7-.2c2.23.21,4.38.91,6.6,1.14C116.5,146.15,116.81,145.78,116.56,145.64Z"/><path class="cls-25" d="M118.75,151c-2.34-.91-5.41-.36-7.87-.29a30.59,30.59,0,0,0-7.56,1c-.09,0-.18.23,0,.2,5-1.18,10-.19,15.09-.19C118.62,151.66,119.13,151.14,118.75,151Z"/><path class="cls-25" d="M93.18,162.61c-4.62-.1-9.27,1.87-13.08,4.38-.1.06-.11.29.05.2A34.51,34.51,0,0,1,93,163.07C93.22,163.05,93.46,162.62,93.18,162.61Z"/><path class="cls-25" d="M117.68,109.12c-.88.16-1.76.1-2.63.24a24.55,24.55,0,0,0-3.41.82,33.74,33.74,0,0,0-5.13,2,28.83,28.83,0,0,0-8.62,6.53c-.32.36,0,.71.38.37a39.87,39.87,0,0,1,8.76-6.45,39.77,39.77,0,0,1,4.57-1.92,55.28,55.28,0,0,1,6-1.38C117.74,109.33,117.85,109.09,117.68,109.12Z"/><path class="cls-25" d="M114.52,118.36a29.69,29.69,0,0,0-7.21,2.85c-1.85,1.05-4,2.42-4.76,4.53-.17.46.39.44.58.13,2.47-3.91,7.26-5.66,11.38-7.28C114.6,118.55,114.69,118.31,114.52,118.36Z"/><path class="cls-29" d="M90.57,92.65c-6.38,4.2-12.3,10.84-13.24,18.67,0,.14.16.05.18,0A26.55,26.55,0,0,1,82.62,101c2.39-3,5.45-5.32,8.27-7.87C91.21,92.84,91,92.39,90.57,92.65Z"/><path class="cls-25" d="M82.74,96.29c-1,1.13-2.56,2.19-2.74,3.84,0,.22.25.08.28,0,.4-1.54,1.84-2.4,2.74-3.61C83.19,96.25,82.91,96.1,82.74,96.29Z"/><path class="cls-29" d="M53,81c-3,2-5,5.34-6.59,8.53a35.23,35.23,0,0,0-2.14,5.73,23.83,23.83,0,0,0-.63,3.37c-.12,1,.07,2-.13,3,0,.2.23.07.26-.05A14,14,0,0,0,44,99.07a22.87,22.87,0,0,1,.59-2.85,36,36,0,0,1,2.21-5.74,33.35,33.35,0,0,1,6.44-9.13C53.47,81.1,53.31,80.75,53,81Z"/><path class="cls-25" d="M45.6,87.52c-1,1.56-2.38,3.29-2.33,5.24,0,.15.23,0,.24-.07.23-1.94,1.6-3.42,2.5-5.08C46.17,87.31,45.73,87.31,45.6,87.52Z"/><path class="cls-25" d="M119.88,66.7c-.92-1.27-3.54-1.23-4.87-1.32-5.26-.38-10.68.71-15.78,1.87A69.38,69.38,0,0,0,84,72.71a42.48,42.48,0,0,0-6.13,3.55c-1.79,1.3-3.36,2.94-5.35,3.95-.11.05-.15.28,0,.21a16.6,16.6,0,0,0,3.62-2.31,36.92,36.92,0,0,1,4.76-3,69,69,0,0,1,12.92-5.18,88.31,88.31,0,0,1,13.08-2.72,40.59,40.59,0,0,1,6.88-.37,26.12,26.12,0,0,1,3.42.38c.28,0,1.59.46,1.35.64s-.39.65.05.61C119.4,68.35,120.53,67.6,119.88,66.7Z"/><path class="cls-29" d="M119.12,47.59c-.38-1.48-3.07-1.93-4.25-2.28a45.65,45.65,0,0,0-13.24-1.86A65.12,65.12,0,0,0,87.86,45c-4.55,1-8.88,2.5-13.35,3.71-.09,0-.18.22,0,.19,3.43-.76,6.76-2,10.23-2.55a108.23,108.23,0,0,1,11.48-1.63,54.18,54.18,0,0,1,10.95.32,43.67,43.67,0,0,1,5.67,1.22c1,.26,1.93.58,2.89.9.41.14,2.69.84,1.75,1.56-.25.18-.32.76.12.55C118.19,49,119.35,48.49,119.12,47.59Z"/><path class="cls-29" d="M50.67,60c-8,3.28-14.84,9.59-20,16.42-2.57,3.43-4.83,7.32-5.4,11.63-.33,2.55.75,6,3.85,4.49.25-.13.54-.81,0-.68-3.94,1-2.47-5.75-1.86-7.53,1.22-3.57,3.52-6.7,5.79-9.67C37.86,68.51,44.06,64,50.7,60.16,50.78,60.11,50.79,60,50.67,60Z"/><path class="cls-25" d="M32.53,78.64a23.82,23.82,0,0,0-3.8,6c-.7,1.6-1.62,4.39,0,5.71.22.18.6-.21.43-.44-2.3-3.22,1.42-8.61,3.44-11.17C32.71,78.62,32.59,78.56,32.53,78.64Z"/><path class="cls-29" d="M140,117.68c-1.85-1.62-4.9-2.06-7.23-2.53-7.88-1.56-16.86-1.56-24.23,1.95-.08,0-.11.2,0,.15,6.22-2.68,13.21-2.8,19.82-1.85a43.86,43.86,0,0,1,7.67,1.81,10.86,10.86,0,0,1,2.75,1.31c1.34.94.6,1.83-.51,2.64-.26.19-.31.77.13.56C140.07,121,141.88,119.29,140,117.68Z"/><path class="cls-29" d="M115.86,133.71a35.88,35.88,0,0,0-20,6.13,12.38,12.38,0,0,0-4.18,4.48c-.52,1-1.42,3,.34,3.17.13,0,.31-.25.12-.29-2-.39.73-3.71,1.33-4.47,1.4-1.75,3.65-2.92,5.59-3.94a46.2,46.2,0,0,1,16.62-4.56C115.91,134.21,116.19,133.71,115.86,133.71Z"/><path class="cls-25" d="M110.25,132c-4.78.55-11.16,1.67-14.3,5.73-.08.1,0,.16.11.08,3.81-3.59,9.12-4.5,14.1-5.37C110.38,132.36,110.57,131.93,110.25,132Z"/><path class="cls-25" d="M122,89.9a38.6,38.6,0,0,0-20.59,4.36c-.09,0-.09.24,0,.18a41.69,41.69,0,0,1,19.24-3.79c3.12.15,9.4.88,7.58,5.47-.14.35.32.34.46.1C131.44,91.58,125.42,90.11,122,89.9Z"/><path class="cls-25" d="M123.53,86.58c-5.78-.77-11.88.63-17.36,2.55,0,0,0-.08-.06,0l-.28.18-.69.24c-.12,0-.16.28,0,.22a3.19,3.19,0,0,0,.49-.24,4.57,4.57,0,0,0,1.25-.26c.78-.22,1.58-.43,2.37-.63,1.4-.34,2.81-.64,4.23-.88a53.67,53.67,0,0,1,9.81-.61C123.54,87.1,123.88,86.62,123.53,86.58Z"/><path class="cls-29" d="M116.55,38.2A27,27,0,0,0,111,35.92a67.76,67.76,0,0,0-15-2.38,82.65,82.65,0,0,0-16.11.61c-2.73.36-5.44.72-8.14,1.27-1.37.28-2.72.64-4.09.93a16.55,16.55,0,0,1-3.52.84c-.06,0-.15.12-.06.13,1.67.18,3.5-.62,5.12-1a75.44,75.44,0,0,1,7.47-1.21,112,112,0,0,1,15.86-.84,87,87,0,0,1,14.65,1.75A32.8,32.8,0,0,1,114,38.2c1.09.49,3.69,1,3.85,2.41,0,.26.41,0,.42-.13C118.32,39.32,117.46,38.72,116.55,38.2Z"/><path class="cls-25" d="M44.63,42.53c-3.57,1.58-7.32,2.71-11,4.12a40.55,40.55,0,0,0-17.36,13.1c-.39.53-3.54,5.25-1.21,5.16.32,0,.8-.43.53-.76-.62-.75.59-2.5,1-3.14a26.57,26.57,0,0,1,2.89-3.71A45.47,45.47,0,0,1,26.84,51c5.37-3.81,12-5.37,17.81-8.24C44.77,42.69,44.81,42.45,44.63,42.53Z"/><path class="cls-29" d="M43.6,33.9c-9.85,4.66-19.71,9.5-27.23,17.6C14.63,53.38,5.88,63.94,12.8,64.12c.25,0,.74-.56.37-.65-5.23-1.31,2.63-10.08,4.36-11.9,7.39-7.77,16.61-12.7,26.09-17.48C43.72,34,43.75,33.83,43.6,33.9Z"/><path class="cls-29" d="M24.88,41.55c-4.23,3.19-8.75,5.89-12.34,9.84-2.39,2.63-5.93,7-4.9,10.87.1.37.62-.13.63-.35.38-9.42,10.16-15,16.66-20.25C25,41.61,25,41.49,24.88,41.55Z"/><g class="cls-30"><path class="cls-31" d="M115.85,81.92a36.23,36.23,0,0,1-5-.42c.19.37.37.76.53,1.15a21.48,21.48,0,0,1,6.58,1.2,1.28,1.28,0,0,0-.44-.56C117.12,83,116,82.6,115.85,81.92Z"/><path class="cls-31" d="M102.49,58.31l.76,1.45h0c3.61-.41,7.39-.89,11-.15a18.84,18.84,0,0,0-5.18-1A47.14,47.14,0,0,0,102.49,58.31Z"/><path class="cls-31" d="M112.08,64.91a14,14,0,0,1,.08-4.71,54.12,54.12,0,0,0-8.43.57,12.73,12.73,0,0,1,.69,1.88,46.79,46.79,0,0,1,1.46,5.43c.16,1,.4,2.36-.2,3.3a4.92,4.92,0,0,1-.78.8,9.56,9.56,0,0,0-1.47,1.71c1.76.26,4.3-.07,5.33,1.76.06.11-.06.38-.08.49a7.79,7.79,0,0,0-.19,1.37c0,1.17,1.1,1.84,1.68,2.75l.23.39a12.79,12.79,0,0,1,5.51.8l0,0c.37-.74,1.34-1.5.35-2.33a13,13,0,0,1-1.82-1.38,8.09,8.09,0,0,1-1.6-4.88C112.66,70.17,112.3,67.55,112.08,64.91Z"/><path class="cls-31" d="M120.91,105.73c0,.09.07.17.11.26a11.67,11.67,0,0,1,5,.36,3.71,3.71,0,0,1,1-.7c.42-.25,1-.56.3-.8-.39-.12-.78-.23-1.18-.32a36.5,36.5,0,0,0-6-1C120.35,104.28,120.61,105,120.91,105.73Z"/><path class="cls-31" d="M112.39,86.08a4.12,4.12,0,0,1-1.31,4,10.23,10.23,0,0,1,3.76,2.77,29.63,29.63,0,0,1,2,3.11,33.15,33.15,0,0,1,1.72,3.22c.17.42.33.84.49,1.27a14.46,14.46,0,0,1,3.21.54.31.31,0,0,1-.27.11,18.69,18.69,0,0,0-2.87-.48c.21.58.41,1.17.61,1.75.45,0,.91,0,1.37.07a23.81,23.81,0,0,1,4.81.83,31.52,31.52,0,0,0-2.61-6.76c-1.06-2.21-2.07-4.44-3.16-6.63a35.26,35.26,0,0,1-1.63-3.46c-.21-.56-.17-1.49-.37-2.22a49.62,49.62,0,0,0-6.22-.27A11.69,11.69,0,0,1,112.39,86.08Z"/><path class="cls-31" d="M101.51,159.56c1.57-.62,3.12-1.26,4.64-1.95C104.59,158.22,103,158.82,101.51,159.56Z"/><path class="cls-31" d="M128.54,115.82a22.78,22.78,0,0,0-1.36-4.41c-.42-.74-1.06-1.38-1.42-2.14a1.51,1.51,0,0,1,0-1.56,17.77,17.77,0,0,0-4-.63c.21.27.41.53.63.78a3,3,0,0,0,.24.26c.18.17.07,0,0,.28,0-.12.26-.29.28-.1l.12.78a4.84,4.84,0,0,1,1.33.65c1,.72.8,1.19.15,2.07-.27.37,1,1.72,1.23,2.06a7,7,0,0,1,.88,2.16,34.7,34.7,0,0,1,.89,6.08c.29,4.14.39,8.25-.86,12.24-.61,2-1.28,3.94-2,5.88a22.76,22.76,0,0,1-2.68,5.3,39.76,39.76,0,0,1-4.69,5.36,29,29,0,0,0,6.71-7.42A38.58,38.58,0,0,0,128.63,132c.79-3.55.72-7.16,1-10.76A32.82,32.82,0,0,0,128.54,115.82Z"/><path class="cls-31" d="M98.25,31.62c-1.48.75-3.09,1.31-4.21,2.56a11,11,0,0,0,2.64,2.11c.65.37,1.34.68,2,1.1a4.08,4.08,0,0,1,1.62,4c0,.73-.18,1.44-.25,2.17s0,1.45-.11,2.17-.42,1.46-.12,2.06a1.24,1.24,0,0,1,.16.88c-.15.68-1.16,1-1.7,1.17a9.8,9.8,0,0,0-3,1.12c1.2.6,2.74.24,4,.37a2.34,2.34,0,0,1,1.26.42c.33.27.91.62,1,1.08,0,.19-.14.34-.27.45-.52.42-.15,1-.36,1.47-.12.3-.36.53-.49.82-.3.67.16,1.07.67,1.34a3.67,3.67,0,0,1,1,.68,43.89,43.89,0,0,1,9,.38c.37,0,.77.12,1.17.19a10.9,10.9,0,0,1-.09-1.9c0-1.24-.12-2.46-.08-3.71.07-2.56.24-5.13.51-7.68s.82-5.22-.62-7.44c-.35-.53.3-.92.94-1.18A15.2,15.2,0,0,0,109,34.43c-1.63-.57-3.32-.93-5-1.45q-1.72-.54-3.45-1C99.84,31.87,99.05,31.74,98.25,31.62Z"/></g><path class="cls-26" d="M138.24,69.08a13.77,13.77,0,0,0-2.21.28,15.55,15.55,0,0,1-.4,3.66,8.55,8.55,0,0,1,1.93-.56A16.74,16.74,0,0,1,138.24,69.08Z"/><path class="cls-32" d="M137.24,82.23c0-.08.09-.15.13-.22.53-.77,1.22-1.4,1.71-2.17-.53.06-1.07.11-1.6.19-.4.43-.81.85-1.18,1.31l-.48.58C136.3,82,136.77,82.12,137.24,82.23Z"/><path class="cls-32" d="M151.3,85.56l-.18,1.85a17.46,17.46,0,0,1,2,1,13.62,13.62,0,0,0,.26-2.2A14.45,14.45,0,0,1,151.3,85.56Z"/><path class="cls-32" d="M151.73,77.94c.05-.61.12-1.22.17-1.84-.38-.15-.75-.32-1.13-.51a8.45,8.45,0,0,1,.08,2Z"/><path class="cls-26" d="M145.17,77.19c.22-.44.42-.88.63-1.32-.17-.23-.33-.47-.51-.69l-.51-.65c-.21.47-.46.92-.7,1.37l.21.2C144.61,76.45,144.89,76.82,145.17,77.19Z"/><path class="cls-26" d="M139.69,92.09a9.39,9.39,0,0,0,.86,1c.08-.56.15-1.13.21-1.7l-.45-.65C140.1,91.21,139.89,91.65,139.69,92.09Z"/><path class="cls-26" d="M63.9,116.74a8.38,8.38,0,0,0-1.4.18,10,10,0,0,1-.25,2.31,5.52,5.52,0,0,1,1.22-.35A10.28,10.28,0,0,1,63.9,116.74Z"/><path class="cls-32" d="M63.27,125.07l.08-.14c.33-.49.77-.89,1.09-1.37q-.51,0-1,.12c-.25.28-.51.54-.75.83l-.3.37C62.67,124.93,63,125,63.27,125.07Z"/><path class="cls-32" d="M72.18,127.19c0,.39-.08.78-.11,1.17a11.17,11.17,0,0,1,1.24.64,9.23,9.23,0,0,0,.17-1.4A9.36,9.36,0,0,1,72.18,127.19Z"/><path class="cls-32" d="M72.45,122.36c0-.39.07-.78.11-1.17l-.72-.32a4.88,4.88,0,0,1,0,1.27Z"/><path class="cls-26" d="M68.3,121.88l.39-.84c-.1-.15-.21-.29-.32-.44l-.33-.4c-.13.29-.28.57-.43.86l.12.13A7.45,7.45,0,0,1,68.3,121.88Z"/><path class="cls-26" d="M64.82,131.32a6.87,6.87,0,0,0,.55.66c0-.36.09-.72.13-1.08-.1-.14-.19-.28-.29-.41Z"/><path class="cls-26" d="M137,95.17a9.41,9.41,0,0,0-1.4.18,9.46,9.46,0,0,1-.26,2.31,6.42,6.42,0,0,1,1.23-.35A10.41,10.41,0,0,1,137,95.17Z"/><path class="cls-32" d="M136.37,103.5l.09-.13c.33-.49.77-.89,1.08-1.38l-1,.12c-.25.28-.51.54-.74.83l-.3.37C135.78,103.36,136.08,103.43,136.37,103.5Z"/><path class="cls-32" d="M145.28,105.62c0,.39-.07.78-.11,1.17a11.31,11.31,0,0,1,1.25.64,10.56,10.56,0,0,0,.17-1.39A10,10,0,0,1,145.28,105.62Z"/><path class="cls-32" d="M145.56,100.79c0-.39.07-.78.1-1.17-.24-.1-.47-.2-.71-.32a6,6,0,0,1,.05,1.27Z"/><path class="cls-26" d="M141.4,100.31c.14-.28.27-.56.4-.84l-.32-.43-.33-.41c-.13.3-.29.58-.44.86l.13.13C141.05,99.84,141.22,100.08,141.4,100.31Z"/><path class="cls-26" d="M137.93,109.75a5.75,5.75,0,0,0,.54.66c.05-.36.1-.72.13-1.08l-.28-.41C138.18,109.19,138.06,109.48,137.93,109.75Z"/><path class="cls-26" d="M84.05,122.93a10.91,10.91,0,0,0-1.61.21,11.5,11.5,0,0,1-.29,2.67,6.09,6.09,0,0,1,1.4-.41A12.16,12.16,0,0,1,84.05,122.93Z"/><path class="cls-32" d="M83.32,132.52l.09-.16c.39-.56.89-1,1.25-1.58-.39,0-.78.08-1.17.14-.29.31-.59.62-.86,1-.12.14-.23.28-.34.43C82.63,132.35,83,132.44,83.32,132.52Z"/><path class="cls-32" d="M93.56,135l-.12,1.35a11.39,11.39,0,0,1,1.43.74,12.41,12.41,0,0,0,.19-1.61A10.92,10.92,0,0,1,93.56,135Z"/><path class="cls-32" d="M93.87,129.4c0-.45.09-.89.13-1.35-.27-.11-.55-.23-.82-.37a6.56,6.56,0,0,1,0,1.47Z"/><path class="cls-26" d="M89.1,128.85l.45-1-.36-.5-.38-.47c-.15.34-.33.67-.5,1l.14.14A9.87,9.87,0,0,1,89.1,128.85Z"/><path class="cls-26" d="M85.1,139.7a9.06,9.06,0,0,0,.63.76c.06-.41.11-.83.15-1.24l-.33-.47Z"/><path class="cls-26" d="M58.45,92.7a9.71,9.71,0,0,0-1.61.2,11.35,11.35,0,0,1-.29,2.66,6.62,6.62,0,0,1,1.4-.4A12.78,12.78,0,0,1,58.45,92.7Z"/><path class="cls-32" d="M57.72,102.28c0-.06.07-.11.1-.16.38-.56.88-1,1.25-1.58-.39,0-.79.08-1.18.14-.29.32-.58.62-.86.95-.11.14-.23.28-.34.43C57,102.11,57.38,102.2,57.72,102.28Z"/><path class="cls-32" d="M68,104.71c0,.45-.09.9-.13,1.35a11.39,11.39,0,0,1,1.43.74,9.69,9.69,0,0,0,.19-1.61A9.59,9.59,0,0,1,68,104.71Z"/><path class="cls-32" d="M68.28,99.16c0-.45.09-.9.12-1.34l-.82-.37a5.92,5.92,0,0,1,.06,1.46C67.85,99,68.07,99.07,68.28,99.16Z"/><path class="cls-26" d="M63.5,98.61c.16-.32.3-.65.46-1l-.37-.5c-.12-.16-.25-.31-.38-.47-.15.34-.33.67-.5,1l.15.15A9.6,9.6,0,0,1,63.5,98.61Z"/><path class="cls-26" d="M59.5,109.46a5.85,5.85,0,0,0,.64.76c0-.42.11-.83.15-1.24l-.34-.47C59.8,108.82,59.66,109.15,59.5,109.46Z"/><g class="cls-33"><path class="cls-26" d="M96.61,63.74a9.46,9.46,0,0,0-1.6.2,11.92,11.92,0,0,1-.3,2.66,6.62,6.62,0,0,1,1.4-.4A12.63,12.63,0,0,1,96.61,63.74Z"/><path class="cls-26" d="M95.88,73.32l.1-.17c.38-.55.88-1,1.25-1.58l-1.18.14c-.28.32-.58.63-.86,1l-.34.42C95.2,73.15,95.54,73.24,95.88,73.32Z"/><path class="cls-26" d="M106.13,75.75c0,.45-.09.9-.13,1.35a11.39,11.39,0,0,1,1.43.74,9.69,9.69,0,0,0,.19-1.61A10.79,10.79,0,0,1,106.13,75.75Z"/><path class="cls-26" d="M106.44,70.2c0-.45.09-.9.13-1.35a8.58,8.58,0,0,1-.82-.37,6.54,6.54,0,0,1,0,1.47C106,70,106.23,70.11,106.44,70.2Z"/><path class="cls-26" d="M101.66,69.65c.16-.32.3-.65.46-1-.12-.17-.24-.34-.37-.5s-.25-.31-.38-.47a10.36,10.36,0,0,1-.5,1l.15.14A8.3,8.3,0,0,1,101.66,69.65Z"/><path class="cls-26" d="M97.66,80.5a6.6,6.6,0,0,0,.64.76c0-.42.11-.83.14-1.24l-.32-.48C98,79.86,97.82,80.18,97.66,80.5Z"/></g><g class="cls-33"><path class="cls-26" d="M16.51,57.38a10.91,10.91,0,0,0-1.61.21,11.36,11.36,0,0,1-.3,2.66,6.3,6.3,0,0,1,1.41-.4A11.52,11.52,0,0,1,16.51,57.38Z"/><path class="cls-26" d="M15.77,67l.11-.16c.38-.56.88-1,1.24-1.58q-.59.06-1.17.15c-.29.31-.59.62-.86.94l-.34.43C15.09,66.8,15.43,66.88,15.77,67Z"/><path class="cls-26" d="M26,69.4c0,.45-.09.89-.13,1.34a10.92,10.92,0,0,1,1.44.75,12.41,12.41,0,0,0,.19-1.61A10.92,10.92,0,0,1,26,69.4Z"/><path class="cls-26" d="M26.33,63.84c.05-.45.09-.89.13-1.34-.28-.11-.55-.24-.82-.37a6.47,6.47,0,0,1,.05,1.46Z"/><path class="cls-26" d="M21.56,63.29l.45-1c-.12-.17-.24-.34-.37-.5l-.37-.47c-.15.34-.33.67-.51,1l.15.15A9.73,9.73,0,0,1,21.56,63.29Z"/><path class="cls-26" d="M17.56,74.15a9.06,9.06,0,0,0,.63.76c.06-.42.11-.83.15-1.25L18,73.19Z"/></g><g class="cls-33"><path class="cls-26" d="M43.57,60.1a10.91,10.91,0,0,0-1.61.21A11.35,11.35,0,0,1,41.67,63a6.62,6.62,0,0,1,1.4-.4A12.88,12.88,0,0,1,43.57,60.1Z"/><path class="cls-26" d="M42.84,69.68a1.3,1.3,0,0,1,.1-.15c.38-.56.88-1,1.25-1.58L43,68.08c-.28.32-.58.63-.86,1l-.34.42C42.16,69.52,42.5,69.61,42.84,69.68Z"/><path class="cls-26" d="M53.09,72.12c0,.44-.09.9-.13,1.35a10.2,10.2,0,0,1,1.43.74,9.69,9.69,0,0,0,.19-1.61A10.79,10.79,0,0,1,53.09,72.12Z"/><path class="cls-26" d="M53.4,66.56c0-.44.09-.89.12-1.34-.27-.11-.55-.24-.82-.37a5.94,5.94,0,0,1,.06,1.46Z"/><path class="cls-26" d="M48.62,66c.16-.32.3-.65.46-1-.12-.17-.24-.34-.37-.5s-.25-.31-.38-.47c-.14.34-.33.66-.5,1l.15.14A8.3,8.3,0,0,1,48.62,66Z"/><path class="cls-26" d="M44.62,76.87a7.58,7.58,0,0,0,.64.76c.05-.42.1-.83.14-1.24l-.32-.48C44.92,76.23,44.78,76.55,44.62,76.87Z"/></g><g class="cls-33"><path class="cls-26" d="M34.9,89.28a13.69,13.69,0,0,0-2.11.27A14.7,14.7,0,0,1,32.41,93a7.77,7.77,0,0,1,1.84-.53A16.09,16.09,0,0,1,34.9,89.28Z"/><path class="cls-26" d="M33.94,101.84a1.91,1.91,0,0,1,.14-.21c.49-.73,1.15-1.34,1.63-2.07-.51,0-1,.11-1.54.18-.38.41-.77.81-1.13,1.25l-.45.56C33.05,101.62,33.49,101.73,33.94,101.84Z"/><path class="cls-26" d="M47.37,105c0,.59-.11,1.18-.17,1.77a15.88,15.88,0,0,1,1.88,1,13.51,13.51,0,0,0,.25-2.11A12.43,12.43,0,0,1,47.37,105Z"/><path class="cls-26" d="M47.78,97.75c.06-.59.11-1.18.16-1.76-.36-.15-.71-.31-1.07-.48a8.09,8.09,0,0,1,.07,1.91Q47.36,97.57,47.78,97.75Z"/><path class="cls-26" d="M41.52,97l.6-1.26c-.16-.23-.32-.45-.49-.67l-.49-.61c-.19.45-.43.87-.66,1.31l.19.19A12,12,0,0,1,41.52,97Z"/><path class="cls-26" d="M36.28,111.26a11.15,11.15,0,0,0,.83,1c.07-.55.14-1.09.2-1.63l-.44-.62Z"/></g><g class="cls-33"><path class="cls-26" d="M87.78,94.93a13.56,13.56,0,0,0-2.1.27,15.24,15.24,0,0,1-.39,3.49,8.29,8.29,0,0,1,1.84-.54A16.13,16.13,0,0,1,87.78,94.93Z"/><path class="cls-26" d="M86.82,107.48l.14-.21c.5-.73,1.15-1.33,1.63-2.07-.51.06-1,.11-1.54.19-.38.41-.77.81-1.13,1.24l-.45.56C85.93,107.27,86.37,107.38,86.82,107.48Z"/><path class="cls-26" d="M100.25,110.67c0,.59-.11,1.18-.16,1.77a15.07,15.07,0,0,1,1.87,1,13.51,13.51,0,0,0,.25-2.11A12.43,12.43,0,0,1,100.25,110.67Z"/><path class="cls-26" d="M100.66,103.4c.06-.59.12-1.18.17-1.76-.36-.15-.72-.32-1.08-.49a8.2,8.2,0,0,1,.07,1.92Q100.24,103.22,100.66,103.4Z"/><path class="cls-26" d="M94.4,102.68l.6-1.27c-.16-.22-.31-.44-.48-.66l-.5-.61c-.19.44-.43.87-.66,1.3l.2.19A11.7,11.7,0,0,1,94.4,102.68Z"/><path class="cls-26" d="M89.16,116.9a9.88,9.88,0,0,0,.83,1c.07-.54.14-1.08.2-1.63l-.44-.61C89.55,116.06,89.36,116.49,89.16,116.9Z"/></g><g class="cls-33"><path class="cls-26" d="M87.56,36.23a14,14,0,0,0-.91-1.92,15.5,15.5,0,0,1-3.44.73,8.7,8.7,0,0,1,1.09,1.58A15.62,15.62,0,0,1,87.56,36.23Z"/><path class="cls-26" d="M75.34,39.25l.24.06c.85.25,1.63.68,2.48.9-.21-.47-.43-.94-.66-1.4-.51-.23-1-.48-1.54-.68l-.67-.25C75.27,38.33,75.3,38.79,75.34,39.25Z"/><path class="cls-26" d="M76.52,53l-1.73.4a16.54,16.54,0,0,1-.34,2.09,14.48,14.48,0,0,0,2.08-.43A12.88,12.88,0,0,1,76.52,53Z"/><path class="cls-26" d="M83.56,51.11l1.72-.39q0-.59.12-1.17a8.53,8.53,0,0,1-1.79.66C83.6,50.51,83.58,50.81,83.56,51.11Z"/><path class="cls-26" d="M82.28,44.94l1.39.17c.16-.21.32-.43.47-.66s.29-.44.43-.66c-.48,0-1-.14-1.44-.22,0,.08-.09.17-.13.24A10.85,10.85,0,0,1,82.28,44.94Z"/><path class="cls-26" d="M67.13,44.42a8.36,8.36,0,0,0-.68,1.1c.53-.1,1.07-.2,1.6-.33l.46-.6Z"/></g><g class="cls-33"><path class="cls-26" d="M126.27,113.85a13.56,13.56,0,0,0-2.1.27,15.16,15.16,0,0,1-.39,3.48,8.83,8.83,0,0,1,1.84-.53A16,16,0,0,1,126.27,113.85Z"/><path class="cls-26" d="M125.31,126.4l.14-.21c.49-.73,1.15-1.33,1.63-2.07l-1.54.19c-.38.41-.77.81-1.13,1.25l-.45.55C124.42,126.19,124.86,126.3,125.31,126.4Z"/><path class="cls-26" d="M138.74,129.59c-.05.59-.11,1.18-.16,1.77a15.07,15.07,0,0,1,1.87,1,13.65,13.65,0,0,0,.25-2.11A13.55,13.55,0,0,1,138.74,129.59Z"/><path class="cls-26" d="M139.15,122.32c.06-.59.12-1.18.16-1.76-.36-.16-.71-.31-1.07-.49a8.13,8.13,0,0,1,.07,1.91Z"/><path class="cls-26" d="M132.89,121.6l.6-1.27-.48-.66-.5-.61c-.19.45-.43.87-.66,1.3l.2.2A9.32,9.32,0,0,1,132.89,121.6Z"/><path class="cls-26" d="M127.65,135.82a11.15,11.15,0,0,0,.83,1c.07-.54.14-1.08.2-1.63-.15-.2-.29-.41-.44-.62Z"/></g><g class="cls-33"><path class="cls-26" d="M108.09,143.34a15.3,15.3,0,0,0-2-.82,14.8,14.8,0,0,1-2.07,2.83,8.72,8.72,0,0,1,1.86.46A15.94,15.94,0,0,1,108.09,143.34Z"/><path class="cls-26" d="M101,153.74l.21-.11c.8-.39,1.67-.58,2.45-1-.47-.21-.94-.42-1.42-.61-.54.17-1.08.32-1.6.52l-.67.26C100.33,153.11,100.66,153.43,101,153.74Z"/><path class="cls-26" d="M111,163.21c-.34.48-.69,1-1,1.45a17.21,17.21,0,0,1,1.14,1.77,14.18,14.18,0,0,0,1.27-1.7A13.33,13.33,0,0,1,111,163.21Z"/><path class="cls-26" d="M115,157.11l1-1.44q-.36-.48-.69-1a8.34,8.34,0,0,1-.9,1.69C114.66,156.63,114.84,156.87,115,157.11Z"/><path class="cls-26" d="M110,153.36c.39-.26.77-.54,1.15-.8q0-.41-.09-.81l-.12-.78c-.39.29-.81.54-1.22.8,0,.09,0,.18.07.26A12.25,12.25,0,0,1,110,153.36Z"/><path class="cls-26" d="M98.32,163.07c.06.43.12.86.22,1.28.34-.44.67-.87,1-1.32l-.06-.75Z"/></g><g class="cls-33"><path class="cls-26" d="M116.72,41.81a13.94,13.94,0,0,0-2-.81,15.5,15.5,0,0,1-2.08,2.83,8,8,0,0,1,1.86.45A16.54,16.54,0,0,1,116.72,41.81Z"/><path class="cls-26" d="M109.62,52.21l.22-.11c.8-.39,1.67-.58,2.45-1-.47-.21-1-.42-1.43-.61-.53.17-1.07.32-1.59.52l-.67.26C109,51.58,109.28,51.9,109.62,52.21Z"/><path class="cls-26" d="M119.67,61.68c-.34.48-.69,1-1,1.45a13.79,13.79,0,0,1,1.14,1.78,14,14,0,0,0,1.27-1.71A12.38,12.38,0,0,1,119.67,61.68Z"/><path class="cls-26" d="M123.65,55.58c.34-.48.69-1,1-1.44-.23-.32-.47-.63-.69-1a8.29,8.29,0,0,1-.89,1.69C123.28,55.1,123.47,55.34,123.65,55.58Z"/><path class="cls-26" d="M118.59,51.83l1.15-.8c0-.27,0-.54-.1-.81s-.07-.52-.12-.78c-.39.29-.8.54-1.22.8a2.68,2.68,0,0,1,.07.27A12.11,12.11,0,0,1,118.59,51.83Z"/><path class="cls-26" d="M107,61.54a9.26,9.26,0,0,0,.22,1.28c.33-.44.67-.87,1-1.32l-.06-.75C107.7,61,107.33,61.28,107,61.54Z"/></g><g class="cls-33"><path class="cls-26" d="M153.17,42a14,14,0,0,0,.53-2,15.38,15.38,0,0,1-3.1-1.65,8.2,8.2,0,0,1-.19,1.91A16.31,16.31,0,0,1,153.17,42Z"/><path class="cls-26" d="M141.86,36.49a2.43,2.43,0,0,1,.14.2c.5.73.82,1.57,1.32,2.28.14-.5.28-1,.4-1.49-.24-.51-.47-1-.74-1.51-.12-.21-.23-.42-.36-.63C142.39,35.74,142.12,36.11,141.86,36.49Z"/><path class="cls-26" d="M133.94,47.79l-1.58-.8a15.09,15.09,0,0,1-1.6,1.38,13,13,0,0,0,1.87,1A13.33,13.33,0,0,1,133.94,47.79Z"/><path class="cls-26" d="M140.55,50.86l1.57.8.85-.82a8.4,8.4,0,0,1-1.8-.64Z"/><path class="cls-26" d="M143.53,45.31l.95,1c.27-.06.53-.13.79-.21l.76-.23c-.34-.34-.65-.72-1-1.09l-.25.11C144.39,45.07,144,45.19,143.53,45.31Z"/><path class="cls-26" d="M132.24,35.19a8.7,8.7,0,0,0-1.22.4q.71.4,1.44.78l.73-.17C132.88,35.86,132.56,35.52,132.24,35.19Z"/></g></g></g></g></svg>