<svg width="20" height="20" viewBox="0 0 20 20" fill="none" xmlns="http://www.w3.org/2000/svg">
<path d="M0.0446242 4.14305C0.17282 3.82256 0.536552 3.66667 0.857041 3.79487L3.05356 4.67348C3.50059 4.85229 3.99926 4.85229 4.44628 4.67348L5.71433 4.16626C6.45936 3.86825 7.29048 3.86825 8.03552 4.16626L9.30356 4.67348C9.75058 4.85229 10.2493 4.85229 10.6963 4.67348L11.9643 4.16626C12.7094 3.86825 13.5405 3.86825 14.2855 4.16626L15.5536 4.67348C16.0006 4.85229 16.4993 4.85229 16.9463 4.67348L19.1428 3.79487C19.4633 3.66667 19.827 3.82256 19.9552 4.14305C20.0834 4.46354 19.9275 4.82727 19.607 4.95546L17.4105 5.83407C16.6655 6.13209 15.8344 6.13209 15.0893 5.83407L13.8213 5.32685C13.3743 5.14805 12.8756 5.14805 12.4286 5.32686L11.1605 5.83407C10.4155 6.13209 9.58436 6.13209 8.83933 5.83407L7.57128 5.32685C7.12426 5.14805 6.62558 5.14805 6.17856 5.32686L4.91052 5.83407C4.16548 6.13209 3.33436 6.13209 2.58933 5.83407L0.392803 4.95546C0.0723132 4.82727 -0.0835717 4.46354 0.0446242 4.14305ZM0.0446242 7.89305C0.17282 7.57256 0.536552 7.41667 0.857041 7.54487L3.05356 8.42348C3.50059 8.60229 3.99926 8.60229 4.44628 8.42348L5.71433 7.91626C6.45936 7.61825 7.29048 7.61825 8.03552 7.91626L9.30356 8.42348C9.75058 8.60229 10.2493 8.60229 10.6963 8.42348L11.9643 7.91626C12.7094 7.61825 13.5405 7.61825 14.2855 7.91626L15.5536 8.42348C16.0006 8.60229 16.4993 8.60229 16.9463 8.42348L19.1428 7.54487C19.4633 7.41667 19.827 7.57256 19.9552 7.89305C20.0834 8.21354 19.9275 8.57727 19.607 8.70546L17.4105 9.58407C16.6655 9.88209 15.8344 9.88209 15.0893 9.58407L13.8213 9.07685C13.3743 8.89805 12.8756 8.89805 12.4286 9.07686L11.1605 9.58407C10.4155 9.88209 9.58436 9.88209 8.83933 9.58407L7.57128 9.07685C7.12426 8.89805 6.62559 8.89805 6.17856 9.07686L4.91052 9.58407C4.16548 9.88209 3.33436 9.88209 2.58933 9.58407L0.392803 8.70546C0.0723133 8.57727 -0.0835717 8.21354 0.0446242 7.89305ZM0.0446242 11.643C0.17282 11.3226 0.536552 11.1667 0.857041 11.2949L3.05356 12.1735C3.50058 12.3523 3.99926 12.3523 4.44628 12.1735L5.71433 11.6663C6.45936 11.3682 7.29048 11.3682 8.03552 11.6663L9.30357 12.1735C9.75058 12.3523 10.2493 12.3523 10.6963 12.1735L11.9643 11.6663C12.7094 11.3682 13.5405 11.3682 14.2855 11.6663L15.5536 12.1735C16.0006 12.3523 16.4993 12.3523 16.9463 12.1735L19.1428 11.2949C19.4633 11.1667 19.827 11.3226 19.9552 11.643C20.0834 11.9635 19.9275 12.3273 19.607 12.4555L17.4105 13.3341C16.6655 13.6321 15.8344 13.6321 15.0893 13.3341L13.8213 12.8269C13.3743 12.648 12.8756 12.648 12.4286 12.8269L11.1605 13.3341C10.4155 13.6321 9.58436 13.6321 8.83933 13.3341L7.57128 12.8269C7.12426 12.648 6.62558 12.648 6.17856 12.8269L4.91052 13.3341C4.16548 13.6321 3.33436 13.6321 2.58933 13.3341L0.392803 12.4555C0.0723132 12.3273 -0.0835717 11.9635 0.0446242 11.643ZM0.0446242 15.393C0.17282 15.0726 0.536552 14.9167 0.857041 15.0449L3.05356 15.9235C3.50058 16.1023 3.99926 16.1023 4.44628 15.9235L5.71433 15.4163C6.45936 15.1182 7.29048 15.1182 8.03552 15.4163L9.30357 15.9235C9.75058 16.1023 10.2493 16.1023 10.6963 15.9235L11.9643 15.4163C12.7094 15.1182 13.5405 15.1182 14.2855 15.4163L15.5536 15.9235C16.0006 16.1023 16.4993 16.1023 16.9463 15.9235L19.1428 15.0449C19.4633 14.9167 19.827 15.0726 19.9552 15.393C20.0834 15.7135 19.9275 16.0773 19.607 16.2055L17.4105 17.0841C16.6655 17.3821 15.8344 17.3821 15.0893 17.0841L13.8213 16.5769C13.3743 16.398 12.8756 16.398 12.4286 16.5769L11.1605 17.0841C10.4155 17.3821 9.58436 17.3821 8.83933 17.0841L7.57128 16.5769C7.12426 16.398 6.62558 16.398 6.17856 16.5769L4.91052 17.0841C4.16548 17.3821 3.33436 17.3821 2.58933 17.0841L0.392803 16.2055C0.0723132 16.0773 -0.0835717 15.7135 0.0446242 15.393Z" fill="white"/>
</svg>
